{
.appVersion = "1032";
DisplayStrings = (
"/an-georgian/ban-georgian/gan-georgian/don-georgian/en-georgian/vin-georgian/zen-georgian/tan-georgian/in-georgian/kan-georgian/las-georgian/man-georgian/nar-georgian/on-georgian/par-georgian/zhar-georgian/rae-georgian/san-georgian/tar-georgian/un-georgian/phar-georgian/khar-georgian/ghan-georgian/qar-georgian/shin-georgian/chin-georgian/can-georgian/jil-georgian/cil-georgian/char-georgian/xan-georgian/jhan-georgian/hae-georgian/he-georgian/hie-georgian/we-georgian/har-georgian/hoe-georgian/fi-georgian/yn-georgian/elifi-georgian/turnedgan-georgian/ain-georgian/aen-georgian/hardsign-georgian/labial-georgian"
);
copyright = "Copyright © 2017 by Unknow Designer, Eliso Kirvalidze. All rights reserved.";
customParameters = (
{
name = vendorID;
value = DHRM;
},
{
name = panose;
value = (
2,
11,
6,
6,
2,
2,
2,
5,
2,
1
);
},
{
name = unicodeRanges;
value = (
0,
1,
2,
3,
5,
9,
29,
31,
32,
33,
35,
36,
38
);
},
{
name = codePageRanges;
value = (
1252,
1250,
1251,
1254,
1257
);
},
{
name = glyphOrder;
value = (
.notdef,
NULL,
CR,
space,
numbersign,
dollar,
percent,
ampersand,
quotesingle,
parenleft,
parenright,
asterisk,
plus,
comma,
hyphen,
period,
slash,
zero,
one,
two,
three,
four,
five,
six,
seven,
eight,
nine,
colon,
semicolon,
less,
equal,
greater,
question,
at,
A,
B,
C,
D,
E,
F,
G,
H,
I,
J,
K,
L,
M,
N,
O,
P,
Q,
R,
S,
T,
U,
V,
W,
X,
Y,
Z,
bracketleft,
backslash,
bracketright,
asciicircum,
underscore,
grave,
a,
b,
c,
d,
e,
f,
g,
h,
i,
j,
k,
l,
m,
n,
o,
p,
q,
r,
s,
t,
u,
v,
w,
x,
y,
z,
braceleft,
bar,
braceright,
asciitilde,
uni00A0,
exclamdown,
cent,
sterling,
currency,
yen,
brokenbar,
section,
dieresis,
copyright,
ordfeminine,
guillemotleft,
logicalnot,
uni00AD,
registered,
macron,
degree,
plusminus,
twosuperior,
threesuperior,
acute,
uni00B5,
paragraph,
periodcentered,
cedilla,
onesuperior,
ordmasculine,
guillemotright,
onequarter,
onehalf,
threequarters,
questiondown,
Agrave,
Aacute,
Acircumflex,
Atilde,
Adieresis,
Aring,
AE,

glyphs = (
{
glyphname = .notdef;
lastChange = "2017-06-10 14:04:23 +0000";
layers = (
{
layerId = "68C61D79-A6B0-463A-BFCB-C5A54C9143A5";
paths = (
{
closed = 1;
nodes = (
"50 0 LINE",
"498 0 LINE",
"498 700 LINE",
"50 700 LINE"
);
},
{
closed = 1;
nodes = (
"416 615 LINE",
"329 357 LINE",
"422 85 LINE",
"334 85 LINE",
"266 295 LINE",
"197 85 LINE",
"120 85 LINE",
"213 357 LINE",
"126 615 LINE",
"212 615 LINE",
"275 420 LINE",
"339 615 LINE"
);
}
);
width = 548;
}
);
note = .notdef;
},
{
glyphname = numbersign;
lastChange = "2017-06-10 14:08:23 +0000";
layers = (
{
layerId = "68C61D79-A6B0-463A-BFCB-C5A54C9143A5";
paths = (
{
closed = 1;
nodes = (
"207 8 LINE",
"281 8 LINE",
"302 208 LINE",
"353 208 LINE",
"359 270 LINE",
"308 270 LINE",
"329 469 LINE",
"380 469 LINE",
"386 531 LINE",
"335 531 LINE",
"352 692 LINE",
"278 692 LINE",
"261 531 LINE",
"180 531 LINE",
"197 692 LINE",
"123 692 LINE",
"106 531 LINE",
"56 531 LINE",
"50 469 LINE",
"100 469 LINE",
"79 270 LINE",
"30 270 LINE",
"24 208 LINE",
"73 208 LINE",
"52 8 LINE",
"126 8 LINE",
"147 208 LINE",
"228 208 LINE"
);
},
{
closed = 1;
nodes = (
"174 469 LINE",
"255 469 LINE",
"234 270 LINE",
"153 270 LINE"
);
}
);
width = 410;
}
);
note = numbersign;
unicode = 0023;
},
{
glyphname = dollar;
lastChange = "2017-06-10 14:08:23 +0000";
layers = (
{
layerId = "68C61D79-A6B0-463A-BFCB-C5A54C9143A5";
paths = (
{
closed = 1;
nodes = (
"45 329 OFFCURVE",
"260 322 OFFCURVE",
"260 171 CURVE SMOOTH",
"260 121 OFFCURVE",
"238 95 OFFCURVE",
"195 95 CURVE SMOOTH",
"152 95 OFFCURVE",
"130 121 OFFCURVE",
"130 171 CURVE SMOOTH",
"130 218 LINE",
"42 218 LINE",
"42 178 LINE SMOOTH",
"42 82 OFFCURVE",
"83 26 OFFCURVE",
"161 13 CURVE",
"161 -37 LINE",
"235 -37 LINE",
"235 13 LINE",
"312 26 OFFCURVE",
"354 83 OFFCURVE",
"354 178 CURVE SMOOTH",
"354 371 OFFCURVE",
"139 378 OFFCURVE",
"139 529 CURVE SMOOTH",
"139 580 OFFCURVE",
"160 606 OFFCURVE",
"202 606 CURVE SMOOTH",
"244 606 OFFCURVE",
"265 580 OFFCURVE",
"265 529 CURVE SMOOTH",
"265 508 LINE",
"353 508 LINE",
"353 522 LINE SMOOTH",
"353 617 OFFCURVE",
"312 673 OFFCURVE",
"235 686 CURVE",
"235 737 LINE",
"161 737 LINE",
"161 686 LINE",
"85 672 OFFCURVE",
"45 616 OFFCURVE",
"45 522 CURVE SMOOTH"
);
}
);
width = 396;
}
);
note = dollar;
unicode = 0024;
},
{
glyphname = percent;
lastChange = "2017-06-10 14:08:23 +0000";
layers = (
{
layerId = "68C61D79-A6B0-463A-BFCB-C5A54C9143A5";
paths = (
{
closed = 1;
nodes = (
"96 598 LINE SMOOTH",
"96 631 OFFCURVE",
"111 650 OFFCURVE",
"140 650 CURVE SMOOTH",
"168 650 OFFCURVE",
"184 631 OFFCURVE",
"184 598 CURVE SMOOTH",
"184 358 LINE SMOOTH",
"184 325 OFFCURVE",
"168 306 OFFCURVE",
"140 306 CURVE SMOOTH",
"111 306 OFFCURVE",
"96 325 OFFCURVE",
"96 358 CURVE SMOOTH"
);
},
{
closed = 1;
nodes = (
"42 363 LINE SMOOTH",
"42 295 OFFCURVE",
"76 259 OFFCURVE",
"140 259 CURVE SMOOTH",
"204 259 OFFCURVE",
"238 295 OFFCURVE",
"238 363 CURVE SMOOTH",
"238 593 LINE SMOOTH",
"238 661 OFFCURVE",
"204 697 OFFCURVE",
"140 697 CURVE SMOOTH",
"76 697 OFFCURVE",
"42 661 OFFCURVE",
"42 593 CURVE SMOOTH"
);
},
{
closed = 1;
nodes = (
"152 8 LINE",
"200 8 LINE",
"469 692 LINE",
"421 692 LINE"
);
},
{
closed = 1;
nodes = (
"443 342 LINE SMOOTH",
"443 375 OFFCURVE",
"458 394 OFFCURVE",
"487 394 CURVE SMOOTH",
"515 394 OFFCURVE",
"531 375 OFFCURVE",
"531 342 CURVE SMOOTH",
"531 102 LINE SMOOTH",
"531 69 OFFCURVE",
"515 50 OFFCURVE",
"487 50 CURVE SMOOTH",
"458 50 OFFCURVE",
"443 69 OFFCURVE",
"443 102 CURVE SMOOTH"
);
},
{
closed = 1;
nodes = (
"389 107 LINE SMOOTH",
"389 39 OFFCURVE",
"423 3 OFFCURVE",
"487 3 CURVE SMOOTH",
"551 3 OFFCURVE",
"585 39 OFFCURVE",
"585 107 CURVE SMOOTH",
"585 337 LINE SMOOTH",
"585 405 OFFCURVE",
"551 441 OFFCURVE",
"487 441 CURVE SMOOTH",
"423 441 OFFCURVE",
"389 405 OFFCURVE",
"389 337 CURVE SMOOTH"
);
}
);
width = 627;
}
);
note = percent;
unicode = 0025;
},
{
glyphname = ampersand;
lastChange = "2017-06-10 14:08:23 +0000";
layers = (
{
layerId = "68C61D79-A6B0-463A-BFCB-C5A54C9143A5";
paths = (
{
closed = 1;
nodes = (
"49 152 LINE SMOOTH",
"49 52 OFFCURVE",
"88 0 OFFCURVE",
"163 0 CURVE SMOOTH",
"223 0 OFFCURVE",
"258 34 OFFCURVE",
"271 102 CURVE",
"273 38 OFFCURVE",
"275 24 OFFCURVE",
"281 8 CURVE",
"375 8 LINE",
"368 32 OFFCURVE",
"367 55 OFFCURVE",
"367 85 CURVE SMOOTH",
"367 323 LINE",
"396 323 LINE",
"396 407 LINE",
"367 407 LINE",
"367 485 LINE",
"273 485 LINE",
"273 407 LINE",
"217 407 LINE SMOOTH",
"167 407 OFFCURVE",
"143 433 OFFCURVE",
"143 489 CURVE SMOOTH",
"143 532 LINE SMOOTH",
"143 583 OFFCURVE",
"164 608 OFFCURVE",
"207 608 CURVE SMOOTH",
"323 608 LINE",
"323 692 LINE",
"205 692 LINE SMOOTH",
"101 692 OFFCURVE",
"49 637 OFFCURVE",
"49 527 CURVE SMOOTH",
"49 514 LINE SMOOTH",
"49 431 OFFCURVE",
"78 386 OFFCURVE",
"142 370 CURVE",
"79 354 OFFCURVE",
"49 306 OFFCURVE",
"49 223 CURVE SMOOTH"
);
},
{
closed = 1;
nodes = (
"143 226 LINE SMOOTH",
"143 294 OFFCURVE",
"167 323 OFFCURVE",
"223 323 CURVE SMOOTH",
"273 323 LINE",
"273 153 LINE",
"271 108 OFFCURVE",
"248 84 OFFCURVE",
"208 84 CURVE SMOOTH",
"165 84 OFFCURVE",
"143 110 OFFCURVE",
"143 161 CURVE SMOOTH"
);
}
);
width = 414;
}
);
note = ampersand;
unicode = 0026;
},
{
glyphname = quotesingle;
lastChange = "2017-06-10 14:08:23 +0000";
layers = (
{
layerId = "68C61D79-A6B0-463A-BFCB-C5A54C9143A5";
paths = (
{
closed = 1;
nodes = (
"59 502 LINE",
"120 502 LINE",
"134 692 LINE",
"46 692 LINE"
);
}
);
width = 180;
}
);
note = quotesingle;
unicode = 0027;
},
{
glyphname = parenleft;
lastChange = "2017-06-10 14:08:23 +0000";
layers = (
{
layerId = "68C61D79-A6B0-463A-BFCB-C5A54C9143A5";
paths = (
{
closed = 1;
nodes = (
"201 692 LINE SMOOTH",
"94 692 OFFCURVE",
"55 653 OFFCURVE",
"55 547 CURVE SMOOTH",
"55 153 LINE SMOOTH",
"55 47 OFFCURVE",
"94 8 OFFCURVE",
"201 8 CURVE SMOOTH",
"227 8 LINE",
"227 82 LINE",
"208 82 LINE SMOOTH",
"165 82 OFFCURVE",
"149 102 OFFCURVE",
"149 153 CURVE SMOOTH",
"149 547 LINE SMOOTH",
"149 598 OFFCURVE",
"165 618 OFFCURVE",
"208 618 CURVE SMOOTH",
"227 618 LINE",
"227 692 LINE"
);
}
);
width = 251;
}
);
note = parenleft;
unicode = 0028;
},
{
glyphname = parenright;
lastChange = "2017-06-10 14:08:23 +0000";
layers = (
{
layerId = "68C61D79-A6B0-463A-BFCB-C5A54C9143A5";
paths = (
{
closed = 1;
nodes = (
"24 692 LINE",
"24 618 LINE",
"43 618 LINE SMOOTH",
"86 618 OFFCURVE",
"102 598 OFFCURVE",
"102 547 CURVE SMOOTH",
"102 153 LINE SMOOTH",
"102 102 OFFCURVE",
"86 82 OFFCURVE",
"43 82 CURVE SMOOTH",
"24 82 LINE",
"24 8 LINE",
"50 8 LINE SMOOTH",
"157 8 OFFCURVE",
"196 47 OFFCURVE",
"196 153 CURVE SMOOTH",
"196 547 LINE SMOOTH",
"196 653 OFFCURVE",
"157 692 OFFCURVE",
"50 692 CURVE SMOOTH"
);
}
);
width = 251;
}
);
note = parenright;
unicode = 0029;
},
{
glyphname = asterisk;
lastChange = "2017-06-10 14:08:23 +0000";
layers = (
{
layerId = "68C61D79-A6B0-463A-BFCB-C5A54C9143A5";
paths = (
{
closed = 1;
nodes = (
"35 599 LINE",
"13 531 LINE",
"183 502 LINE",
"61 381 LINE",
"118 339 LINE",
"198 492 LINE",
"278 339 LINE",
"335 381 LINE",
"213 502 LINE",
"383 531 LINE",
"361 599 LINE",
"207 521 LINE",
"234 692 LINE",
"162 692 LINE",
"189 521 LINE"
);
}
);
width = 396;
}
);
note = asterisk;
unicode = 002A;
},
{
glyphname = plus;
lastChange = "2017-06-10 14:08:23 +0000";
layers = (
{
layerId = "68C61D79-A6B0-463A-BFCB-C5A54C9143A5";
paths = (
{
closed = 1;
nodes = (
"229 516 LINE",
"167 516 LINE",
"167 381 LINE",
"33 381 LINE",
"33 319 LINE",
"167 319 LINE",
"167 182 LINE",
"229 182 LINE",
"229 319 LINE",
"363 319 LINE",
"363 381 LINE",
"229 381 LINE"
);
}
);
width = 396;
}
);
note = plus;
unicode = 002B;
},
{
glyphname = comma;
lastChange = "2017-06-10 14:08:23 +0000";
layers = (
{
layerId = "68C61D79-A6B0-463A-BFCB-C5A54C9143A5";
paths = (
{
closed = 1;
nodes = (
"93 8 LINE",
"64 -92 LINE",
"93 -92 LINE",
"138 13 LINE",
"138 98 LINE",
"48 98 LINE",
"48 8 LINE"
);
}
);
width = 186;
}
);
note = comma;
unicode = 002C;
},
{
glyphname = hyphen;
lastChange = "2017-06-10 14:08:23 +0000";
layers = (
{
layerId = "68C61D79-A6B0-463A-BFCB-C5A54C9143A5";
paths = (
{
closed = 1;
nodes = (
"43 308 LINE",
"227 308 LINE",
"227 392 LINE",
"43 392 LINE"
);
}
);
width = 270;
}
);
leftKerningGroup = hyphen;
note = hyphen;
rightKerningGroup = hyphen;
unicode = 002D;
},
{
glyphname = period;
lastChange = "2017-06-10 14:08:23 +0000";
layers = (
{
layerId = "68C61D79-A6B0-463A-BFCB-C5A54C9143A5";
paths = (
{
closed = 1;
nodes = (
"48 98 LINE",
"48 8 LINE",
"138 8 LINE",
"138 98 LINE"
);
}
);
width = 186;
}
);
note = period;
unicode = 002E;
},
{
glyphname = slash;
lastChange = "2017-06-10 14:08:23 +0000";
layers = (
{
layerId = "68C61D79-A6B0-463A-BFCB-C5A54C9143A5";
paths = (
{
closed = 1;
nodes = (
"17 8 LINE",
"95 8 LINE",
"364 692 LINE",
"286 692 LINE"
);
}
);
width = 381;
}
);
note = slash;
unicode = 002F;
},
{
color = 9;
glyphname = zero;
lastChange = "2017-06-10 14:04:57 +0000";
layers = (
{
backgroundImage = {
crop = "{{0, 0}, {140, 160}}";
imagePath = "../documents-export-2016-06-11/0";
locked = "1";
transform = "{29.033, 0, 0, 29.033, 10, -26}";
};
layerId = "68C61D79-A6B0-463A-BFCB-C5A54C9143A5";
paths = (
{
closed = 1;
nodes = (
"30 53 OFFCURVE",
"93 -10 OFFCURVE",
"170 -10 CURVE SMOOTH",
"182 -10 LINE SMOOTH",
"259 -10 OFFCURVE",
"322 53 OFFCURVE",
"322 130 CURVE SMOOTH",
"322 570 LINE SMOOTH",
"322 647 OFFCURVE",
"259 710 OFFCURVE",
"182 710 CURVE SMOOTH",
"170 710 LINE SMOOTH",
"93 710 OFFCURVE",
"30 647 OFFCURVE",
"30 570 CURVE SMOOTH",
"30 542 OFFCURVE",
"30 517 OFFCURVE",
"30 496 CURVE SMOOTH",
"30 130 LINE SMOOTH"
);
},
{
closed = 1;
nodes = (
"117 579 LINE SMOOTH",
"117 607 OFFCURVE",
"139 629 OFFCURVE",
"167 629 CURVE SMOOTH",
"185 629 LINE SMOOTH",
"213 629 OFFCURVE",
"235 607 OFFCURVE",
"235 579 CURVE SMOOTH",
"235 121 LINE SMOOTH",
"235 93 OFFCURVE",
"213 71 OFFCURVE",
"185 71 CURVE SMOOTH",
"167 71 LINE SMOOTH",
"139 71 OFFCURVE",
"117 93 OFFCURVE",
"117 121 CURVE SMOOTH"
);
}
);
width = 353;
}
);
unicode = 0030;
},
{
color = 9;
glyphname = one;
lastChange = "2017-06-10 14:04:57 +0000";
layers = (
{
backgroundImage = {
crop = "{{0, 0}, {140, 160}}";
imagePath = "../documents-export-2016-06-11/1.png";
locked = "1";
transform = "{42.118, 0, 0, 42.118, 28, -22}";
};
layerId = "68C61D79-A6B0-463A-BFCB-C5A54C9143A5";
paths = (
{
closed = 1;
nodes = (
"30 501 LINE",
"50 508 OFFCURVE",
"93 533 OFFCURVE",
"106 556 CURVE",
"108 556 LINE",
"108 0 LINE",
"195 0 LINE",
"195 700 LINE",
"113 700 LINE",
"108 658 OFFCURVE",
"72 617 OFFCURVE",
"30 593 CURVE"
);
}
);
width = 228;
}
);
unicode = 0031;
},
{
color = 9;
glyphname = two;
lastChange = "2017-06-10 14:04:57 +0000";
layers = (
{
backgroundImage = {
crop = "{{0, 0}, {140, 160}}";
imagePath = "../documents-export-2016-06-11/2.png";
locked = "1";
transform = "{29.386, 0, 0, 29.386, 10, -56}";
};
layerId = "68C61D79-A6B0-463A-BFCB-C5A54C9143A5";
paths = (
{
closed = 1;
nodes = (
"300 0 LINE",
"300 87 LINE",
"137 87 LINE",
"187 191 OFFCURVE",
"317 246 OFFCURVE",
"317 428 CURVE SMOOTH",
"317 570 LINE SMOOTH",
"317 647 OFFCURVE",
"254 710 OFFCURVE",
"177 710 CURVE SMOOTH",
"170 710 LINE SMOOTH",
"93 710 OFFCURVE",
"30 647 OFFCURVE",
"30 570 CURVE SMOOTH",
"30 420 LINE",
"117 420 LINE",
"117 579 LINE SMOOTH",
"117 607 OFFCURVE",
"139 629 OFFCURVE",
"167 629 CURVE SMOOTH",
"180 629 LINE SMOOTH",
"208 629 OFFCURVE",
"230 607 OFFCURVE",
"230 579 CURVE SMOOTH",
"230 428 LINE SMOOTH",
"230 230 OFFCURVE",
"30 209 OFFCURVE",
"30 0 CURVE"
);
}
);
width = 348;
}
);
unicode = 0032;
},
{
color = 9;
glyphname = three;
lastChange = "2017-06-10 14:04:57 +0000";
layers = (
{
backgroundImage = {
crop = "{{0, 0}, {140, 160}}";
imagePath = "../documents-export-2016-06-11/3.png";
locked = "1";
transform = "{29.179, 0, 0, 29.179, 9, -31}";
};
layerId = "68C61D79-A6B0-463A-BFCB-C5A54C9143A5";
paths = (
{
closed = 1;
nodes = (
"30 53 OFFCURVE",
"93 -10 OFFCURVE",
"170 -10 CURVE SMOOTH",
"182 -10 LINE SMOOTH",
"259 -10 OFFCURVE",
"322 53 OFFCURVE",
"322 130 CURVE SMOOTH",
"322 279 LINE SMOOTH",
"322 318 OFFCURVE",
"306 353 OFFCURVE",
"280 379 CURVE",
"306 404 OFFCURVE",
"322 439 OFFCURVE",
"322 478 CURVE SMOOTH",
"322 570 LINE SMOOTH",
"322 647 OFFCURVE",
"259 710 OFFCURVE",
"182 710 CURVE SMOOTH",
"181 710 LINE SMOOTH",
"104 710 OFFCURVE",
"41 647 OFFCURVE",
"41 570 CURVE SMOOTH",
"41 530 LINE",
"128 530 LINE",
"128 579 LINE SMOOTH",
"128 607 OFFCURVE",
"150 629 OFFCURVE",
"178 629 CURVE SMOOTH",
"185 629 LINE SMOOTH",
"213 629 OFFCURVE",
"235 607 OFFCURVE",
"235 579 CURVE SMOOTH",
"235 469 LINE SMOOTH",
"235 441 OFFCURVE",
"213 419 OFFCURVE",
"185 419 CURVE SMOOTH",
"159 419 LINE",
"159 338 LINE",
"185 338 LINE SMOOTH",
"213 338 OFFCURVE",
"235 316 OFFCURVE",
"235 288 CURVE SMOOTH",
"235 121 LINE SMOOTH",
"235 93 OFFCURVE",
"213 71 OFFCURVE",
"185 71 CURVE SMOOTH",
"167 71 LINE SMOOTH",
"139 71 OFFCURVE",
"117 93 OFFCURVE",
"117 121 CURVE SMOOTH",
"117 250 LINE",
"30 250 LINE",
"30 130 LINE SMOOTH"
);
}
);
width = 357;
}
);
unicode = 0033;
},
{
color = 9;
glyphname = four;
lastChange = "2017-06-10 14:04:57 +0000";
layers = (
{
backgroundImage = {
crop = "{{0, 0}, {140, 160}}";
imagePath = "../documents-export-2016-06-11/4.png";
locked = "1";
transform = "{31.984, 0, 0, 31.984, 13, -15}";
};
layerId = "68C61D79-A6B0-463A-BFCB-C5A54C9143A5";
paths = (
{
closed = 1;
nodes = (
"169 154 LINE",
"169 0 LINE",
"256 0 LINE",
"256 154 LINE",
"332 154 LINE",
"332 235 LINE",
"256 235 LINE",
"256 700 LINE",
"155 700 LINE",
"115 512 OFFCURVE",
"72 353 OFFCURVE",
"30 235 CURVE",
"30 154 LINE"
);
},
{
closed = 1;
nodes = (
"124 319 OFFCURVE",
"148 410 OFFCURVE",
"167 498 CURVE",
"169 498 LINE",
"169 235 LINE",
"96 235 LINE"
);
}
);
width = 364;
}
);
unicode = 0034;
},
{
color = 9;
glyphname = five;
lastChange = "2017-06-10 14:04:57 +0000";
layers = (
{
backgroundImage = {
crop = "{{0, 0}, {140, 160}}";
imagePath = "../documents-export-2016-06-11/5.png";
locked = "1";
transform = "{28.976, 0, 0, 28.976, 22, -24}";
};
guideLines = (
{
angle = 90;
position = "{328, 378}";
}
);
layerId = "68C61D79-A6B0-463A-BFCB-C5A54C9143A5";
paths = (
{
closed = 1;
nodes = (
"30 53 OFFCURVE",
"93 -10 OFFCURVE",
"170 -10 CURVE SMOOTH",
"182 -10 LINE SMOOTH",
"259 -10 OFFCURVE",
"322 53 OFFCURVE",
"322 130 CURVE SMOOTH",
"322 338 LINE SMOOTH",
"322 415 OFFCURVE",
"281 478 OFFCURVE",
"204 478 CURVE SMOOTH",
"179 478 OFFCURVE",
"155 472 OFFCURVE",
"141 461 CURVE",
"139 461 LINE",
"142 619 LINE",
"313 619 LINE",
"313 700 LINE",
"57 700 LINE",
"52 376 LINE",
"141 376 LINE",
"149 389 OFFCURVE",
"162 397 OFFCURVE",
"179 397 CURVE SMOOTH",
"190 397 LINE SMOOTH",
"218 397 OFFCURVE",
"235 375 OFFCURVE",
"235 347 CURVE SMOOTH",
"235 121 LINE SMOOTH",
"235 93 OFFCURVE",
"213 71 OFFCURVE",
"185 71 CURVE SMOOTH",
"167 71 LINE SMOOTH",
"139 71 OFFCURVE",
"117 93 OFFCURVE",
"117 121 CURVE SMOOTH",
"117 250 LINE",
"30 250 LINE",
"30 130 LINE SMOOTH"
);
}
);
width = 354;
}
);
unicode = 0035;
},
{
color = 9;
glyphname = six;
lastChange = "2017-06-10 14:04:57 +0000";
layers = (
{
backgroundImage = {
crop = "{{0, 0}, {140, 160}}";
imagePath = "../documents-export-2016-06-11/6.png";
locked = "1";
transform = "{29.125, 0, 0, 29.125, 15, -33}";
};
layerId = "68C61D79-A6B0-463A-BFCB-C5A54C9143A5";
paths = (
{
closed = 1;
nodes = (
"179 430 LINE",
"156 430 OFFCURVE",
"132 423 OFFCURVE",
"119 413 CURVE",
"117 413 LINE",
"117 579 LINE SMOOTH",
"117 607 OFFCURVE",
"139 629 OFFCURVE",
"167 629 CURVE SMOOTH",
"180 629 LINE SMOOTH",
"208 629 OFFCURVE",
"230 607 OFFCURVE",
"230 579 CURVE SMOOTH",
"230 561 LINE",
"317 561 LINE",
"317 570 LINE",
"317 647 OFFCURVE",
"254 710 OFFCURVE",
"177 710 CURVE",
"170 710 LINE",
"93 710 OFFCURVE",
"30 647 OFFCURVE",
"30 570 CURVE SMOOTH",
"30 130 LINE SMOOTH",
"30 53 OFFCURVE",
"93 -10 OFFCURVE",
"170 -10 CURVE",
"182 -10 LINE",
"259 -10 OFFCURVE",
"322 53 OFFCURVE",
"322 130 CURVE SMOOTH",
"322 212 OFFCURVE",
"322 256 OFFCURVE",
"322 290 CURVE SMOOTH",
"322 367 OFFCURVE",
"259 430 OFFCURVE",
"182 430 CURVE"
);
},
{
closed = 1;
nodes = (
"235 93 OFFCURVE",
"213 71 OFFCURVE",
"185 71 CURVE",
"167 71 LINE",
"139 71 OFFCURVE",
"117 93 OFFCURVE",
"117 121 CURVE SMOOTH",
"117 299 LINE SMOOTH",
"117 327 OFFCURVE",
"139 349 OFFCURVE",
"167 349 CURVE",
"185 349 LINE",
"213 349 OFFCURVE",
"235 327 OFFCURVE",
"235 299 CURVE SMOOTH",
"235 121 LINE SMOOTH"
);
}
);
width = 355;
}
);
unicode = 0036;
},
{
color = 9;
glyphname = seven;
lastChange = "2017-06-10 14:04:57 +0000";
layers = (
{
backgroundImage = {
crop = "{{0, 0}, {140, 160}}";
imagePath = "../documents-export-2016-06-11/7.png";
locked = "1";
transform = "{28.406, 0, 0, 28.406, -8, -14}";
};
layerId = "68C61D79-A6B0-463A-BFCB-C5A54C9143A5";
paths = (
{
closed = 1;
nodes = (
"221 619 LINE",
"221 370 OFFCURVE",
"83 295 OFFCURVE",
"83 27 CURVE SMOOTH",
"83 0 LINE",
"170 0 LINE",
"170 27 LINE SMOOTH",
"170 327 OFFCURVE",
"302 330 OFFCURVE",
"302 640 CURVE SMOOTH",
"302 700 LINE",
"30 700 LINE",
"30 619 LINE"
);
}
);
width = 334;
}
);
unicode = 0037;
},
{
color = 9;
glyphname = eight;
lastChange = "2017-06-10 14:04:57 +0000";
layers = (
{
backgroundImage = {
crop = "{{0, 0}, {140, 160}}";
imagePath = "../documents-export-2016-06-11/8.png";
locked = "1";
transform = "{29.506, 0, 0, 29.506, 9, -36}";
};
guideLines = (
{
angle = 90;
position = "{128, 299}";
},
{
angle = 90;
position = "{224, 299}";
},
{
position = "{321, 629}";
}
);
layerId = "68C61D79-A6B0-463A-BFCB-C5A54C9143A5";
paths = (
{
closed = 1;
nodes = (
"30 53 OFFCURVE",
"93 -10 OFFCURVE",
"170 -10 CURVE SMOOTH",
"182 -10 LINE SMOOTH",
"259 -10 OFFCURVE",
"322 53 OFFCURVE",
"322 130 CURVE SMOOTH",
"322 290 LINE SMOOTH",
"322 330 OFFCURVE",
"305 366 OFFCURVE",
"279 391 CURVE",
"298 413 OFFCURVE",
"310 442 OFFCURVE",
"310 474 CURVE SMOOTH",
"310 586 LINE SMOOTH",
"310 654 OFFCURVE",
"254 710 OFFCURVE",
"186 710 CURVE SMOOTH",
"166 710 LINE SMOOTH",
"97 710 OFFCURVE",
"41 654 OFFCURVE",
"41 586 CURVE SMOOTH",
"41 474 LINE SMOOTH",
"41 442 OFFCURVE",
"53 413 OFFCURVE",
"73 391 CURVE",
"46 365 OFFCURVE",
"30 329 OFFCURVE",
"30 290 CURVE SMOOTH",
"30 130 LINE SMOOTH"
);
},
{
closed = 1;
nodes = (
"117 299 LINE SMOOTH",
"117 327 OFFCURVE",
"139 349 OFFCURVE",
"167 349 CURVE SMOOTH",
"185 349 LINE SMOOTH",
"213 349 OFFCURVE",
"235 327 OFFCURVE",
"235 299 CURVE SMOOTH",
"235 121 LINE SMOOTH",
"235 93 OFFCURVE",
"213 71 OFFCURVE",
"185 71 CURVE SMOOTH",
"167 71 LINE SMOOTH",
"139 71 OFFCURVE",
"117 93 OFFCURVE",
"117 121 CURVE SMOOTH"
);
},
{
closed = 1;
nodes = (
"128 585 LINE SMOOTH",
"128 609 OFFCURVE",
"148 629 OFFCURVE",
"172 629 CURVE SMOOTH",
"180 629 LINE SMOOTH",
"204 629 OFFCURVE",
"224 609 OFFCURVE",
"224 585 CURVE SMOOTH",
"224 474 LINE SMOOTH",
"224 450 OFFCURVE",
"204 430 OFFCURVE",
"180 430 CURVE SMOOTH",
"172 430 LINE SMOOTH",
"148 430 OFFCURVE",
"128 450 OFFCURVE",
"128 474 CURVE SMOOTH"
);
}
);
width = 356;
}
);
unicode = 0038;
},
{
color = 9;
glyphname = nine;
lastChange = "2017-06-10 14:04:57 +0000";
layers = (
{
backgroundImage = {
crop = "{{0, 0}, {140, 160}}";
imagePath = "../documents-export-2016-06-11/9.png";
locked = "1";
transform = "{29.079, 0, 0, 29.079, 17, -31}";
};
layerId = "68C61D79-A6B0-463A-BFCB-C5A54C9143A5";
paths = (
{
closed = 1;
nodes = (
"173 258 LINE",
"196 258 OFFCURVE",
"220 265 OFFCURVE",
"233 275 CURVE",
"235 275 LINE",
"235 121 LINE SMOOTH",
"235 93 OFFCURVE",
"213 71 OFFCURVE",
"185 71 CURVE SMOOTH",
"172 71 LINE SMOOTH",
"144 71 OFFCURVE",
"122 93 OFFCURVE",
"122 121 CURVE SMOOTH",
"122 139 LINE",
"35 139 LINE",
"35 130 LINE",
"35 53 OFFCURVE",
"98 -10 OFFCURVE",
"175 -10 CURVE",
"182 -10 LINE",
"259 -10 OFFCURVE",
"322 53 OFFCURVE",
"322 130 CURVE SMOOTH",
"322 570 LINE SMOOTH",
"322 647 OFFCURVE",
"259 710 OFFCURVE",
"182 710 CURVE",
"170 710 LINE",
"93 710 OFFCURVE",
"30 647 OFFCURVE",
"30 570 CURVE SMOOTH",
"30 488 OFFCURVE",
"30 432 OFFCURVE",
"30 398 CURVE SMOOTH",
"30 321 OFFCURVE",
"93 258 OFFCURVE",
"170 258 CURVE"
);
},
{
closed = 1;
nodes = (
"117 607 OFFCURVE",
"139 629 OFFCURVE",
"167 629 CURVE",
"185 629 LINE",
"213 629 OFFCURVE",
"235 607 OFFCURVE",
"235 579 CURVE SMOOTH",
"235 389 LINE SMOOTH",
"235 361 OFFCURVE",
"213 339 OFFCURVE",
"185 339 CURVE",
"167 339 LINE",
"139 339 OFFCURVE",
"117 361 OFFCURVE",
"117 389 CURVE SMOOTH",
"117 579 LINE SMOOTH"
);
}
);
width = 353;
}
);
unicode = 0039;
},
{
glyphname = colon;
lastChange = "2017-06-10 14:08:23 +0000";
layers = (
{
layerId = "68C61D79-A6B0-463A-BFCB-C5A54C9143A5";
paths = (
{
closed = 1;
nodes = (
"48 98 LINE",
"48 8 LINE",
"138 8 LINE",
"138 98 LINE"
);
},
{
closed = 1;
nodes = (
"48 479 LINE",
"48 389 LINE",
"138 389 LINE",
"138 479 LINE"
);
}
);
width = 186;
}
);
note = colon;
unicode = 003A;
},
{
glyphname = semicolon;
lastChange = "2017-06-10 14:08:23 +0000";
layers = (
{
layerId = "68C61D79-A6B0-463A-BFCB-C5A54C9143A5";
paths = (
{
closed = 1;
nodes = (
"93 8 LINE",
"64 -92 LINE",
"93 -92 LINE",
"138 13 LINE",
"138 98 LINE",
"48 98 LINE",
"48 8 LINE"
);
},
{
closed = 1;
nodes = (
"48 479 LINE",
"48 389 LINE",
"138 389 LINE",
"138 479 LINE"
);
}
);
width = 186;
}
);
note = semicolon;
unicode = 003B;
},
{
glyphname = less;
lastChange = "2017-06-10 14:08:23 +0000";
layers = (
{
layerId = "68C61D79-A6B0-463A-BFCB-C5A54C9143A5";
paths = (
{
closed = 1;
nodes = (
"348 202 LINE",
"348 264 LINE",
"108 350 LINE",
"348 436 LINE",
"348 498 LINE",
"38 383 LINE",
"38 317 LINE"
);
}
);
width = 396;
}
);
note = less;
unicode = 003C;
},
{
glyphname = equal;
lastChange = "2017-06-10 14:08:23 +0000";
layers = (
{
layerId = "68C61D79-A6B0-463A-BFCB-C5A54C9143A5";
paths = (
{
closed = 1;
nodes = (
"43 300 LINE",
"43 238 LINE",
"353 238 LINE",
"353 300 LINE"
);
},
{
closed = 1;
nodes = (
"43 462 LINE",
"43 400 LINE",
"353 400 LINE",
"353 462 LINE"
);
}
);
width = 396;
}
);
note = equal;
unicode = 003D;
},
{
glyphname = greater;
lastChange = "2017-06-10 14:08:23 +0000";
layers = (
{
layerId = "68C61D79-A6B0-463A-BFCB-C5A54C9143A5";
paths = (
{
closed = 1;
nodes = (
"358 317 LINE",
"358 383 LINE",
"48 498 LINE",
"48 436 LINE",
"288 350 LINE",
"48 264 LINE",
"48 202 LINE"
);
}
);
width = 396;
}
);
note = greater;
unicode = 003E;
},
{
glyphname = question;
lastChange = "2017-06-10 14:08:23 +0000";
layers = (
{
layerId = "68C61D79-A6B0-463A-BFCB-C5A54C9143A5";
paths = (
{
closed = 1;
nodes = (
"208 163 LINE",
"207 172 OFFCURVE",
"206 182 OFFCURVE",
"206 194 CURVE SMOOTH",
"206 327 OFFCURVE",
"336 356 OFFCURVE",
"336 532 CURVE SMOOTH",
"336 642 OFFCURVE",
"283 700 OFFCURVE",
"182 700 CURVE SMOOTH",
"81 700 OFFCURVE",
"28 642 OFFCURVE",
"28 532 CURVE SMOOTH",
"28 471 LINE",
"116 471 LINE",
"116 539 LINE SMOOTH",
"116 590 OFFCURVE",
"137 616 OFFCURVE",
"179 616 CURVE SMOOTH",
"221 616 OFFCURVE",
"242 590 OFFCURVE",
"242 539 CURVE SMOOTH",
"242 358 OFFCURVE",
"122 345 OFFCURVE",
"122 198 CURVE SMOOTH",
"122 184 OFFCURVE",
"123 173 OFFCURVE",
"126 163 CURVE"
);
},
{
closed = 1;
nodes = (
"123 98 LINE",
"123 8 LINE",
"213 8 LINE",
"213 98 LINE"
);
}
);
width = 360;
}
);
note = question;
unicode = 003F;
},
{
glyphname = at;
lastChange = "2017-06-10 14:08:23 +0000";
layers = (
{
layerId = "68C61D79-A6B0-463A-BFCB-C5A54C9143A5";
paths = (
{
closed = 1;
nodes = (
"551 135 OFFCURVE",
"663 204 OFFCURVE",
"663 446 CURVE SMOOTH",
"663 635 OFFCURVE",
"572 732 OFFCURVE",
"393 732 CURVE SMOOTH",
"171 732 OFFCURVE",
"32 560 OFFCURVE",
"32 290 CURVE SMOOTH",
"32 68 OFFCURVE",
"142 -52 OFFCURVE",
"345 -52 CURVE SMOOTH",
"417 -52 OFFCURVE",
"479 -41 OFFCURVE",
"542 1 CURVE",
"549 75 LINE",
"489 33 OFFCURVE",
"431 16 OFFCURVE",
"351 16 CURVE SMOOTH",
"195 16 OFFCURVE",
"110 111 OFFCURVE",
"110 285 CURVE SMOOTH",
"110 524 OFFCURVE",
"211 663 OFFCURVE",
"389 663 CURVE SMOOTH",
"522 663 OFFCURVE",
"596 585 OFFCURVE",
"596 444 CURVE SMOOTH",
"596 307 OFFCURVE",
"561 210 OFFCURVE",
"508 210 CURVE SMOOTH",
"487 210 OFFCURVE",
"477 222 OFFCURVE",
"480 244 CURVE SMOOTH",
"509 524 LINE",
"429 524 LINE",
"424 473 LINE",
"408 471 LINE",
"396 509 OFFCURVE",
"372 527 OFFCURVE",
"334 528 CURVE SMOOTH",
"269 531 OFFCURVE",
"230 482 OFFCURVE",
"220 387 CURVE SMOOTH",
"209 286 LINE SMOOTH",
"199 192 OFFCURVE",
"228 143 OFFCURVE",
"291 141 CURVE SMOOTH",
"340 139 OFFCURVE",
"374 166 OFFCURVE",
"394 223 CURVE",
"389 163 OFFCURVE",
"414 135 OFFCURVE",
"476 135 CURVE SMOOTH"
);
},
{
closed = 1;
nodes = (
"299 378 LINE SMOOTH",
"304 426 OFFCURVE",
"326 449 OFFCURVE",
"364 448 CURVE SMOOTH",
"399 448 OFFCURVE",
"419 423 OFFCURVE",
"415 383 CURVE SMOOTH",
"405 288 LINE SMOOTH",
"400 241 OFFCURVE",
"378 217 OFFCURVE",
"341 218 CURVE SMOOTH",
"302 219 OFFCURVE",
"285 245 OFFCURVE",
"290 293 CURVE SMOOTH"
);
}
);
width = 689;
}
);
note = at;
unicode = 0040;
},
{
glyphname = A;
lastChange = "2017-06-10 14:08:23 +0000";
layers = (
{
layerId = "68C61D79-A6B0-463A-BFCB-C5A54C9143A5";
paths = (
{
closed = 1;
nodes = (
"277 692 LINE",
"130 692 LINE",
"20 8 LINE",
"105 8 LINE",
"124 135 LINE",
"273 135 LINE",
"292 8 LINE",
"387 8 LINE"
);
},
{
closed = 1;
nodes = (
"198 630 LINE",
"260 214 LINE",
"136 214 LINE"
);
}
);
width = 407;
}
);
leftKerningGroup = A;
note = A;
unicode = 0041;
},
{
glyphname = B;
lastChange = "2017-06-10 14:08:23 +0000";
layers = (
{
layerId = "68C61D79-A6B0-463A-BFCB-C5A54C9143A5";
paths = (
{
closed = 1;
nodes = (
"48 692 LINE",
"48 8 LINE",
"213 8 LINE SMOOTH",
"318 8 OFFCURVE",
"372 62 OFFCURVE",
"372 166 CURVE SMOOTH",
"372 223 LINE SMOOTH",
"372 309 OFFCURVE",
"340 357 OFFCURVE",
"273 372 CURVE",
"333 390 OFFCURVE",
"361 433 OFFCURVE",
"361 514 CURVE SMOOTH",
"361 539 LINE SMOOTH",
"361 645 OFFCURVE",
"313 692 OFFCURVE",
"206 692 CURVE SMOOTH"
);
},
{
closed = 1;
nodes = (
"199 323 LINE SMOOTH",
"256 323 OFFCURVE",
"278 297 OFFCURVE",
"278 230 CURVE SMOOTH",
"278 169 LINE SMOOTH",
"278 116 OFFCURVE",
"258 92 OFFCURVE",
"213 92 CURVE SMOOTH",
"142 92 LINE",
"142 323 LINE"
);
},
{
closed = 1;
nodes = (
"203 608 LINE SMOOTH",
"247 608 OFFCURVE",
"267 582 OFFCURVE",
"267 528 CURVE SMOOTH",
"267 489 LINE SMOOTH",
"267 433 OFFCURVE",
"243 407 OFFCURVE",
"193 407 CURVE SMOOTH",
"142 407 LINE",
"142 608 LINE"
);
}
);
width = 406;
}
);
note = B;
rightKerningGroup = B;
unicode = 0042;
},
{
glyphname = C;
lastChange = "2017-06-10 14:08:23 +0000";
layers = (
{
layerId = "68C61D79-A6B0-463A-BFCB-C5A54C9143A5";
paths = (
{
closed = 1;
nodes = (
"263 253 LINE",
"263 161 LINE SMOOTH",
"263 111 OFFCURVE",
"241 85 OFFCURVE",
"198 85 CURVE SMOOTH",
"155 85 OFFCURVE",
"133 111 OFFCURVE",
"133 161 CURVE SMOOTH",
"133 539 LINE SMOOTH",
"133 590 OFFCURVE",
"155 616 OFFCURVE",
"198 616 CURVE SMOOTH",
"241 616 OFFCURVE",
"263 590 OFFCURVE",
"263 539 CURVE SMOOTH",
"263 472 LINE",
"351 472 LINE",
"351 532 LINE SMOOTH",
"351 642 OFFCURVE",
"297 700 OFFCURVE",
"195 700 CURVE SMOOTH",
"93 700 OFFCURVE",
"39 642 OFFCURVE",
"39 532 CURVE SMOOTH",
"39 168 LINE SMOOTH",
"39 58 OFFCURVE",
"93 0 OFFCURVE",
"195 0 CURVE SMOOTH",
"297 0 OFFCURVE",
"351 58 OFFCURVE",
"351 168 CURVE SMOOTH",
"351 253 LINE"
);
}
);
width = 386;
}
);
leftKerningGroup = C;
note = C;
rightKerningGroup = C;
unicode = 0043;
},
{
glyphname = D;
lastChange = "2017-06-10 14:08:23 +0000";
layers = (
{
layerId = "68C61D79-A6B0-463A-BFCB-C5A54C9143A5";
paths = (
{
closed = 1;
nodes = (
"48 8 LINE",
"214 8 LINE SMOOTH",
"318 8 OFFCURVE",
"370 63 OFFCURVE",
"370 173 CURVE SMOOTH",
"370 527 LINE SMOOTH",
"370 637 OFFCURVE",
"318 692 OFFCURVE",
"214 692 CURVE SMOOTH",
"48 692 LINE"
);
},
{
closed = 1;
nodes = (
"212 608 LINE SMOOTH",
"255 608 OFFCURVE",
"276 583 OFFCURVE",
"276 532 CURVE SMOOTH",
"276 168 LINE SMOOTH",
"276 117 OFFCURVE",
"255 92 OFFCURVE",
"212 92 CURVE SMOOTH",
"142 92 LINE",
"142 608 LINE"
);
}
);
width = 408;
}
);
note = D;
rightKerningGroup = D;
unicode = 0044;
},
{
glyphname = E;
lastChange = "2017-06-10 14:08:23 +0000";
layers = (
{
layerId = "68C61D79-A6B0-463A-BFCB-C5A54C9143A5";
paths = (
{
closed = 1;
nodes = (
"142 608 LINE",
"332 608 LINE",
"332 692 LINE",
"48 692 LINE",
"48 8 LINE",
"332 8 LINE",
"332 92 LINE",
"142 92 LINE",
"142 313 LINE",
"293 313 LINE",
"293 397 LINE",
"142 397 LINE"
);
}
);
width = 368;
}
);
note = E;
unicode = 0045;
},
{
glyphname = F;
lastChange = "2017-06-10 14:08:23 +0000";
layers = (
{
layerId = "68C61D79-A6B0-463A-BFCB-C5A54C9143A5";
paths = (
{
closed = 1;
nodes = (
"142 608 LINE",
"323 608 LINE",
"323 692 LINE",
"48 692 LINE",
"48 8 LINE",
"142 8 LINE",
"142 297 LINE",
"284 297 LINE",
"284 381 LINE",
"142 381 LINE"
);
}
);
width = 344;
}
);
note = F;
rightKerningGroup = F;
unicode = 0046;
},
{
glyphname = G;
lastChange = "2017-06-10 14:08:23 +0000";
layers = (
{
layerId = "68C61D79-A6B0-463A-BFCB-C5A54C9143A5";
paths = (
{
closed = 1;
nodes = (
"213 298 LINE",
"263 298 LINE",
"263 161 LINE SMOOTH",
"263 111 OFFCURVE",
"241 85 OFFCURVE",
"198 85 CURVE SMOOTH",
"155 85 OFFCURVE",
"133 111 OFFCURVE",
"133 161 CURVE SMOOTH",
"133 539 LINE SMOOTH",
"133 590 OFFCURVE",
"155 616 OFFCURVE",
"198 616 CURVE SMOOTH",
"241 616 OFFCURVE",
"263 590 OFFCURVE",
"263 539 CURVE SMOOTH",
"263 472 LINE",
"351 472 LINE",
"351 532 LINE SMOOTH",
"351 642 OFFCURVE",
"297 700 OFFCURVE",
"195 700 CURVE SMOOTH",
"93 700 OFFCURVE",
"39 642 OFFCURVE",
"39 532 CURVE SMOOTH",
"39 168 LINE SMOOTH",
"39 58 OFFCURVE",
"93 0 OFFCURVE",
"195 0 CURVE SMOOTH",
"297 0 OFFCURVE",
"351 58 OFFCURVE",
"351 168 CURVE SMOOTH",
"351 382 LINE",
"213 382 LINE"
);
}
);
width = 390;
}
);
leftKerningGroup = G;
note = G;
rightKerningGroup = G;
unicode = 0047;
},
{
glyphname = H;
lastChange = "2017-06-10 14:08:23 +0000";
layers = (
{
layerId = "68C61D79-A6B0-463A-BFCB-C5A54C9143A5";
paths = (
{
closed = 1;
nodes = (
"142 308 LINE",
"283 308 LINE",
"283 8 LINE",
"379 8 LINE",
"379 692 LINE",
"283 692 LINE",
"283 392 LINE",
"142 392 LINE",
"142 692 LINE",
"48 692 LINE",
"48 8 LINE",
"142 8 LINE"
);
}
);
width = 427;
}
);
note = H;
unicode = 0048;
},
{
glyphname = I;
lastChange = "2017-06-10 14:08:23 +0000";
layers = (
{
layerId = "68C61D79-A6B0-463A-BFCB-C5A54C9143A5";
paths = (
{
closed = 1;
nodes = (
"48 8 LINE",
"142 8 LINE",
"142 692 LINE",
"48 692 LINE"
);
}
);
width = 190;
}
);
note = I;
unicode = 0049;
},
{
glyphname = J;
lastChange = "2017-06-10 14:08:23 +0000";
layers = (
{
layerId = "68C61D79-A6B0-463A-BFCB-C5A54C9143A5";
paths = (
{
closed = 1;
nodes = (
"18 7 LINE",
"33 6 OFFCURVE",
"46 6 OFFCURVE",
"63 6 CURVE SMOOTH",
"165 6 OFFCURVE",
"213 62 OFFCURVE",
"213 174 CURVE SMOOTH",
"213 692 LINE",
"119 692 LINE",
"119 166 LINE SMOOTH",
"119 116 OFFCURVE",
"96 91 OFFCURVE",
"48 91 CURVE SMOOTH",
"39 91 OFFCURVE",
"28 91 OFFCURVE",
"18 91 CURVE"
);
}
);
width = 256;
}
);
leftKerningGroup = J;
note = J;
rightKerningGroup = J;
unicode = 004A;
},
{
glyphname = K;
lastChange = "2017-06-10 14:08:23 +0000";
layers = (
{
layerId = "68C61D79-A6B0-463A-BFCB-C5A54C9143A5";
paths = (
{
closed = 1;
nodes = (
"297 8 LINE",
"392 8 LINE",
"242 388 LINE",
"391 692 LINE",
"299 692 LINE",
"142 359 LINE",
"142 692 LINE",
"48 692 LINE",
"48 8 LINE",
"142 8 LINE",
"142 217 LINE",
"185 298 LINE"
);
}
);
width = 414;
}
);
note = K;
rightKerningGroup = K;
unicode = 004B;
},
{
glyphname = L;
lastChange = "2017-06-10 14:08:23 +0000";
layers = (
{
layerId = "68C61D79-A6B0-463A-BFCB-C5A54C9143A5";
paths = (
{
closed = 1;
nodes = (
"48 8 LINE",
"323 8 LINE",
"323 92 LINE",
"142 92 LINE",
"142 692 LINE",
"48 692 LINE"
);
}
);
width = 339;
}
);
note = L;
rightKerningGroup = L;
unicode = 004C;
},
{
glyphname = M;
lastChange = "2017-06-10 14:08:23 +0000";
layers = (
{
layerId = "68C61D79-A6B0-463A-BFCB-C5A54C9143A5";
paths = (
{
closed = 1;
nodes = (
"185 692 LINE",
"47 692 LINE",
"47 8 LINE",
"127 8 LINE",
"127 592 LINE",
"224 8 LINE",
"314 8 LINE",
"405 608 LINE",
"405 8 LINE",
"493 8 LINE",
"493 692 LINE",
"355 692 LINE",
"273 151 LINE"
);
}
);
width = 541;
}
);
note = M;
unicode = 004D;
},
{
glyphname = N;
lastChange = "2017-06-10 14:08:23 +0000";
layers = (
{
layerId = "68C61D79-A6B0-463A-BFCB-C5A54C9143A5";
paths = (
{
closed = 1;
nodes = (
"281 8 LINE",
"380 8 LINE",
"380 692 LINE",
"298 692 LINE",
"298 221 LINE",
"171 692 LINE",
"47 692 LINE",
"47 8 LINE",
"130 8 LINE",
"130 567 LINE"
);
}
);
width = 427;
}
);
note = N;
unicode = 004E;
},
{
glyphname = O;
lastChange = "2017-06-10 14:08:23 +0000";
layers = (
{
layerId = "68C61D79-A6B0-463A-BFCB-C5A54C9143A5";
paths = (
{
closed = 1;
nodes = (
"133 539 LINE SMOOTH",
"133 590 OFFCURVE",
"155 616 OFFCURVE",
"198 616 CURVE SMOOTH",
"241 616 OFFCURVE",
"263 590 OFFCURVE",
"263 539 CURVE SMOOTH",
"263 161 LINE SMOOTH",
"263 110 OFFCURVE",
"241 84 OFFCURVE",
"198 84 CURVE SMOOTH",
"155 84 OFFCURVE",
"133 110 OFFCURVE",
"133 161 CURVE SMOOTH"
);
},
{
closed = 1;
nodes = (
"39 168 LINE SMOOTH",
"39 59 OFFCURVE",
"95 0 OFFCURVE",
"198 0 CURVE SMOOTH",
"301 0 OFFCURVE",
"357 59 OFFCURVE",
"357 168 CURVE SMOOTH",
"357 532 LINE SMOOTH",
"357 641 OFFCURVE",
"301 700 OFFCURVE",
"198 700 CURVE SMOOTH",
"95 700 OFFCURVE",
"39 641 OFFCURVE",
"39 532 CURVE SMOOTH"
);
}
);
width = 396;
}
);
leftKerningGroup = O;
note = O;
rightKerningGroup = O;
unicode = 004F;
},
{
glyphname = P;
lastChange = "2017-06-10 14:08:23 +0000";
layers = (
{
layerId = "68C61D79-A6B0-463A-BFCB-C5A54C9143A5";
paths = (
{
closed = 1;
nodes = (
"48 692 LINE",
"48 8 LINE",
"142 8 LINE",
"142 271 LINE",
"202 271 LINE SMOOTH",
"306 271 OFFCURVE",
"358 326 OFFCURVE",
"358 436 CURVE SMOOTH",
"358 527 LINE SMOOTH",
"358 637 OFFCURVE",
"306 692 OFFCURVE",
"202 692 CURVE SMOOTH"
);
},
{
closed = 1;
nodes = (
"202 608 LINE SMOOTH",
"245 608 OFFCURVE",
"264 585 OFFCURVE",
"264 534 CURVE SMOOTH",
"264 429 LINE SMOOTH",
"264 378 OFFCURVE",
"245 355 OFFCURVE",
"202 355 CURVE SMOOTH",
"142 355 LINE",
"142 608 LINE"
);
}
);
width = 382;
}
);
note = P;
rightKerningGroup = P;
unicode = 0050;
},
{
glyphname = Q;
lastChange = "2017-06-10 14:08:23 +0000";
layers = (
{
layerId = "68C61D79-A6B0-463A-BFCB-C5A54C9143A5";
paths = (
{
closed = 1;
nodes = (
"39 168 LINE SMOOTH",
"39 59 OFFCURVE",
"95 0 OFFCURVE",
"198 0 CURVE SMOOTH",
"226 0 OFFCURVE",
"255 5 OFFCURVE",
"279 15 CURVE",
"292 -18 OFFCURVE",
"323 -35 OFFCURVE",
"370 -35 CURVE SMOOTH",
"377 -35 LINE",
"377 47 LINE",
"375 47 LINE SMOOTH",
"350 47 OFFCURVE",
"341 53 OFFCURVE",
"335 71 CURVE",
"349 96 OFFCURVE",
"357 128 OFFCURVE",
"357 168 CURVE SMOOTH",
"357 532 LINE SMOOTH",
"357 641 OFFCURVE",
"301 700 OFFCURVE",
"198 700 CURVE SMOOTH",
"95 700 OFFCURVE",
"39 641 OFFCURVE",
"39 532 CURVE SMOOTH"
);
},
{
closed = 1;
nodes = (
"133 539 LINE SMOOTH",
"133 590 OFFCURVE",
"155 616 OFFCURVE",
"198 616 CURVE SMOOTH",
"241 616 OFFCURVE",
"263 590 OFFCURVE",
"263 539 CURVE SMOOTH",
"263 161 LINE SMOOTH",
"263 110 OFFCURVE",
"241 84 OFFCURVE",
"198 84 CURVE SMOOTH",
"155 84 OFFCURVE",
"133 110 OFFCURVE",
"133 161 CURVE SMOOTH"
);
}
);
width = 396;
}
);
note = Q;
unicode = 0051;
},
{
glyphname = R;
lastChange = "2017-06-10 14:08:23 +0000";
layers = (
{
layerId = "68C61D79-A6B0-463A-BFCB-C5A54C9143A5";
paths = (
{
closed = 1;
nodes = (
"370 8 LINE",
"363 32 OFFCURVE",
"362 55 OFFCURVE",
"362 85 CURVE SMOOTH",
"362 193 LINE SMOOTH",
"362 282 OFFCURVE",
"334 327 OFFCURVE",
"273 341 CURVE",
"332 359 OFFCURVE",
"361 404 OFFCURVE",
"361 484 CURVE SMOOTH",
"361 539 LINE SMOOTH",
"361 645 OFFCURVE",
"313 692 OFFCURVE",
"206 692 CURVE SMOOTH",
"48 692 LINE",
"48 8 LINE",
"142 8 LINE",
"142 293 LINE",
"188 293 LINE SMOOTH",
"244 293 OFFCURVE",
"268 264 OFFCURVE",
"268 196 CURVE SMOOTH",
"268 86 LINE SMOOTH",
"268 36 OFFCURVE",
"271 23 OFFCURVE",
"276 8 CURVE"
);
},
{
closed = 1;
nodes = (
"203 608 LINE SMOOTH",
"247 608 OFFCURVE",
"267 582 OFFCURVE",
"267 528 CURVE SMOOTH",
"267 459 LINE SMOOTH",
"267 403 OFFCURVE",
"243 377 OFFCURVE",
"193 377 CURVE SMOOTH",
"142 377 LINE",
"142 608 LINE"
);
}
);
width = 402;
}
);
note = R;
rightKerningGroup = R;
unicode = 0052;
},
{
glyphname = S;
lastChange = "2017-06-10 14:08:23 +0000";
layers = (
{
layerId = "68C61D79-A6B0-463A-BFCB-C5A54C9143A5";
paths = (
{
closed = 1;
nodes = (
"34 338 OFFCURVE",
"249 312 OFFCURVE",
"249 161 CURVE SMOOTH",
"249 111 OFFCURVE",
"227 85 OFFCURVE",
"184 85 CURVE SMOOTH",
"141 85 OFFCURVE",
"119 111 OFFCURVE",
"119 161 CURVE SMOOTH",
"119 203 LINE",
"31 203 LINE",
"31 168 LINE SMOOTH",
"31 58 OFFCURVE",
"85 0 OFFCURVE",
"187 0 CURVE SMOOTH",
"289 0 OFFCURVE",
"343 58 OFFCURVE",
"343 168 CURVE SMOOTH",
"343 362 OFFCURVE",
"128 388 OFFCURVE",
"128 539 CURVE SMOOTH",
"128 590 OFFCURVE",
"149 616 OFFCURVE",
"191 616 CURVE SMOOTH",
"233 616 OFFCURVE",
"254 590 OFFCURVE",
"254 539 CURVE SMOOTH",
"254 518 LINE",
"342 518 LINE",
"342 532 LINE SMOOTH",
"342 642 OFFCURVE",
"289 700 OFFCURVE",
"188 700 CURVE SMOOTH",
"87 700 OFFCURVE",
"34 642 OFFCURVE",
"34 532 CURVE SMOOTH"
);
}
);
width = 374;
}
);
leftKerningGroup = S;
note = S;
rightKerningGroup = S;
unicode = 0053;
},
{
glyphname = T;
lastChange = "2017-06-10 14:08:23 +0000";
layers = (
{
layerId = "68C61D79-A6B0-463A-BFCB-C5A54C9143A5";
paths = (
{
closed = 1;
nodes = (
"16 608 LINE",
"131 608 LINE",
"131 8 LINE",
"225 8 LINE",
"225 608 LINE",
"340 608 LINE",
"340 692 LINE",
"16 692 LINE"
);
}
);
width = 356;
}
);
leftKerningGroup = T;
note = T;
rightKerningGroup = T;
unicode = 0054;
},
{
glyphname = U;
lastChange = "2017-06-10 14:08:23 +0000";
layers = (
{
layerId = "68C61D79-A6B0-463A-BFCB-C5A54C9143A5";
paths = (
{
closed = 1;
nodes = (
"43 692 LINE",
"43 167 LINE SMOOTH",
"43 57 OFFCURVE",
"97 -1 OFFCURVE",
"199 -1 CURVE SMOOTH",
"301 -1 OFFCURVE",
"355 57 OFFCURVE",
"355 167 CURVE SMOOTH",
"355 692 LINE",
"267 692 LINE",
"267 160 LINE SMOOTH",
"267 110 OFFCURVE",
"245 84 OFFCURVE",
"202 84 CURVE SMOOTH",
"159 84 OFFCURVE",
"137 110 OFFCURVE",
"137 160 CURVE SMOOTH",
"137 692 LINE"
);
}
);
width = 398;
}
);
leftKerningGroup = U;
note = U;
rightKerningGroup = U;
unicode = 0055;
},
{
glyphname = V;
lastChange = "2017-06-10 14:08:23 +0000";
layers = (
{
layerId = "68C61D79-A6B0-463A-BFCB-C5A54C9143A5";
paths = (
{
closed = 1;
nodes = (
"115 692 LINE",
"20 692 LINE",
"126 8 LINE",
"276 8 LINE",
"382 692 LINE",
"297 692 LINE",
"206 74 LINE"
);
}
);
width = 402;
}
);
note = V;
unicode = 0056;
},
{
glyphname = W;
lastChange = "2017-06-10 14:08:23 +0000";
layers = (
{
layerId = "68C61D79-A6B0-463A-BFCB-C5A54C9143A5";
paths = (
{
closed = 1;
nodes = (
"331 8 LINE",
"463 8 LINE",
"539 692 LINE",
"459 692 LINE",
"395 64 LINE",
"333 692 LINE",
"241 692 LINE",
"181 69 LINE",
"115 692 LINE",
"24 692 LINE",
"100 8 LINE",
"237 8 LINE",
"284 448 LINE"
);
}
);
width = 563;
}
);
leftKerningGroup = W;
note = W;
rightKerningGroup = W;
unicode = 0057;
},
{
glyphname = X;
lastChange = "2017-06-10 14:08:23 +0000";
layers = (
{
layerId = "68C61D79-A6B0-463A-BFCB-C5A54C9143A5";
paths = (
{
closed = 1;
nodes = (
"311 692 LINE",
"220 416 LINE",
"131 692 LINE",
"34 692 LINE",
"146 360 LINE",
"26 8 LINE",
"112 8 LINE",
"209 303 LINE",
"305 8 LINE",
"404 8 LINE",
"284 360 LINE",
"396 692 LINE"
);
}
);
width = 430;
}
);
note = X;
unicode = 0058;
},
{
glyphname = Y;
lastChange = "2017-06-10 14:08:23 +0000";
layers = (
{
layerId = "68C61D79-A6B0-463A-BFCB-C5A54C9143A5";
paths = (
{
closed = 1;
nodes = (
"151 8 LINE",
"245 8 LINE",
"245 233 LINE",
"381 692 LINE",
"293 692 LINE",
"203 350 LINE",
"113 692 LINE",
"15 692 LINE",
"151 233 LINE"
);
}
);
width = 396;
}
);
leftKerningGroup = Y;
note = Y;
rightKerningGroup = Y;
unicode = 0059;
},
{
glyphname = Z;
lastChange = "2017-06-10 14:08:23 +0000";
layers = (
{
layerId = "68C61D79-A6B0-463A-BFCB-C5A54C9143A5";
paths = (
{
closed = 1;
nodes = (
"41 692 LINE",
"41 608 LINE",
"244 608 LINE",
"31 96 LINE",
"31 8 LINE",
"337 8 LINE",
"337 92 LINE",
"124 92 LINE",
"337 604 LINE",
"337 692 LINE"
);
}
);
width = 370;
}
);
leftKerningGroup = Z;
note = Z;
rightKerningGroup = Z;
unicode = 005A;
},
{
glyphname = bracketleft;
lastChange = "2017-06-10 14:08:23 +0000";
layers = (
{
layerId = "68C61D79-A6B0-463A-BFCB-C5A54C9143A5";
paths = (
{
closed = 1;
nodes = (
"55 8 LINE",
"221 8 LINE",
"221 82 LINE",
"149 82 LINE",
"149 618 LINE",
"221 618 LINE",
"221 692 LINE",
"55 692 LINE"
);
}
);
width = 251;
}
);
note = bracketleft;
unicode = 005B;
},
{
glyphname = backslash;
lastChange = "2017-06-10 14:08:23 +0000";
layers = (
{
layerId = "68C61D79-A6B0-463A-BFCB-C5A54C9143A5";
paths = (
{
closed = 1;
nodes = (
"95 692 LINE",
"17 692 LINE",
"286 8 LINE",
"364 8 LINE"
);
}
);
width = 381;
}
);
note = backslash;
unicode = 005C;
},
{
glyphname = bracketright;
lastChange = "2017-06-10 14:08:23 +0000";
layers = (
{
layerId = "68C61D79-A6B0-463A-BFCB-C5A54C9143A5";
paths = (
{
closed = 1;
nodes = (
"196 692 LINE",
"30 692 LINE",
"30 618 LINE",
"102 618 LINE",
"102 82 LINE",
"30 82 LINE",
"30 8 LINE",
"196 8 LINE"
);
}
);
width = 251;
}
);
note = bracketright;
unicode = 005D;
},
{
glyphname = asciicircum;
lastChange = "2017-06-10 14:08:23 +0000";
layers = (
{
layerId = "68C61D79-A6B0-463A-BFCB-C5A54C9143A5";
paths = (
{
closed = 1;
nodes = (
"32 398 LINE",
"103 398 LINE",
"198 620 LINE",
"293 398 LINE",
"364 398 LINE",
"232 692 LINE",
"164 692 LINE"
);
}
);
width = 396;
}
);
note = asciicircum;
unicode = 005E;
},
{
glyphname = underscore;
lastChange = "2017-06-10 14:08:23 +0000";
layers = (
{
layerId = "68C61D79-A6B0-463A-BFCB-C5A54C9143A5";
paths = (
{
closed = 1;
nodes = (
"8 -82 LINE",
"492 -82 LINE",
"492 -18 LINE",
"8 -18 LINE"
);
}
);
width = 500;
}
);
note = underscore;
unicode = 005F;
},
{
glyphname = grave;
lastChange = "2017-06-10 14:08:23 +0000";
layers = (
{
layerId = "68C61D79-A6B0-463A-BFCB-C5A54C9143A5";
paths = (
{
closed = 1;
nodes = (
"62 840 LINE",
"150 745 LINE",
"211 745 LINE",
"153 840 LINE"
);
}
);
width = 250;
}
);
note = grave;
unicode = 0060;
},
{
glyphname = a;
lastChange = "2017-06-10 14:08:23 +0000";
layers = (
{
layerId = "68C61D79-A6B0-463A-BFCB-C5A54C9143A5";
paths = (
{
closed = 1;
nodes = (
"277 692 LINE",
"130 692 LINE",
"20 8 LINE",
"105 8 LINE",
"124 135 LINE",
"273 135 LINE",
"292 8 LINE",
"387 8 LINE"
);
},
{
closed = 1;
nodes = (
"198 630 LINE",
"260 214 LINE",
"136 214 LINE"
);
}
);
width = 407;
}
);
leftKerningGroup = a;
note = a;
rightKerningGroup = a;
unicode = 0061;
},
{
glyphname = b;
lastChange = "2017-06-10 14:08:23 +0000";
layers = (
{
layerId = "68C61D79-A6B0-463A-BFCB-C5A54C9143A5";
paths = (
{
closed = 1;
nodes = (
"48 692 LINE",
"48 8 LINE",
"213 8 LINE SMOOTH",
"318 8 OFFCURVE",
"372 62 OFFCURVE",
"372 166 CURVE SMOOTH",
"372 223 LINE SMOOTH",
"372 309 OFFCURVE",
"340 357 OFFCURVE",
"273 372 CURVE",
"333 390 OFFCURVE",
"361 433 OFFCURVE",
"361 514 CURVE SMOOTH",
"361 539 LINE SMOOTH",
"361 645 OFFCURVE",
"313 692 OFFCURVE",
"206 692 CURVE SMOOTH"
);
},
{
closed = 1;
nodes = (
"199 323 LINE SMOOTH",
"256 323 OFFCURVE",
"278 297 OFFCURVE",
"278 230 CURVE SMOOTH",
"278 169 LINE SMOOTH",
"278 116 OFFCURVE",
"258 92 OFFCURVE",
"213 92 CURVE SMOOTH",
"142 92 LINE",
"142 323 LINE"
);
},
{
closed = 1;
nodes = (
"203 608 LINE SMOOTH",
"247 608 OFFCURVE",
"267 582 OFFCURVE",
"267 528 CURVE SMOOTH",
"267 489 LINE SMOOTH",
"267 433 OFFCURVE",
"243 407 OFFCURVE",
"193 407 CURVE SMOOTH",
"142 407 LINE",
"142 608 LINE"
);
}
);
width = 406;
}
);
note = b;
rightKerningGroup = b;
unicode = 0062;
},
{
glyphname = c;
lastChange = "2017-06-10 14:08:23 +0000";
layers = (
{
layerId = "68C61D79-A6B0-463A-BFCB-C5A54C9143A5";
paths = (
{
closed = 1;
nodes = (
"263 253 LINE",
"263 161 LINE SMOOTH",
"263 111 OFFCURVE",
"241 85 OFFCURVE",
"198 85 CURVE SMOOTH",
"155 85 OFFCURVE",
"133 111 OFFCURVE",
"133 161 CURVE SMOOTH",
"133 539 LINE SMOOTH",
"133 590 OFFCURVE",
"155 616 OFFCURVE",
"198 616 CURVE SMOOTH",
"241 616 OFFCURVE",
"263 590 OFFCURVE",
"263 539 CURVE SMOOTH",
"263 472 LINE",
"351 472 LINE",
"351 532 LINE SMOOTH",
"351 642 OFFCURVE",
"297 700 OFFCURVE",
"195 700 CURVE SMOOTH",
"93 700 OFFCURVE",
"39 642 OFFCURVE",
"39 532 CURVE SMOOTH",
"39 168 LINE SMOOTH",
"39 58 OFFCURVE",
"93 0 OFFCURVE",
"195 0 CURVE SMOOTH",
"297 0 OFFCURVE",
"351 58 OFFCURVE",
"351 168 CURVE SMOOTH",
"351 253 LINE"
);
}
);
width = 386;
}
);
leftKerningGroup = c;
note = c;
rightKerningGroup = c;
unicode = 0063;
},
{
glyphname = d;
lastChange = "2017-06-10 14:08:23 +0000";
layers = (
{
layerId = "68C61D79-A6B0-463A-BFCB-C5A54C9143A5";
paths = (
{
closed = 1;
nodes = (
"48 8 LINE",
"214 8 LINE SMOOTH",
"318 8 OFFCURVE",
"370 63 OFFCURVE",
"370 173 CURVE SMOOTH",
"370 527 LINE SMOOTH",
"370 637 OFFCURVE",
"318 692 OFFCURVE",
"214 692 CURVE SMOOTH",
"48 692 LINE"
);
},
{
closed = 1;
nodes = (
"212 608 LINE SMOOTH",
"255 608 OFFCURVE",
"276 583 OFFCURVE",
"276 532 CURVE SMOOTH",
"276 168 LINE SMOOTH",
"276 117 OFFCURVE",
"255 92 OFFCURVE",
"212 92 CURVE SMOOTH",
"142 92 LINE",
"142 608 LINE"
);
}
);
width = 408;
}
);
note = d;
rightKerningGroup = d;
unicode = 0064;
},
{
glyphname = e;
lastChange = "2017-06-10 14:08:23 +0000";
layers = (
{
layerId = "68C61D79-A6B0-463A-BFCB-C5A54C9143A5";
paths = (
{
closed = 1;
nodes = (
"142 608 LINE",
"332 608 LINE",
"332 692 LINE",
"48 692 LINE",
"48 8 LINE",
"332 8 LINE",
"332 92 LINE",
"142 92 LINE",
"142 313 LINE",
"293 313 LINE",
"293 397 LINE",
"142 397 LINE"
);
}
);
width = 368;
}
);
note = e;
unicode = 0065;
},
{
glyphname = f;
lastChange = "2017-06-10 14:08:23 +0000";
layers = (
{
layerId = "68C61D79-A6B0-463A-BFCB-C5A54C9143A5";
paths = (
{
closed = 1;
nodes = (
"142 608 LINE",
"323 608 LINE",
"323 692 LINE",
"48 692 LINE",
"48 8 LINE",
"142 8 LINE",
"142 297 LINE",
"284 297 LINE",
"284 381 LINE",
"142 381 LINE"
);
}
);
width = 344;
}
);
note = f;
rightKerningGroup = f;
unicode = 0066;
},
{
glyphname = g;
lastChange = "2017-06-10 14:08:23 +0000";
layers = (
{
layerId = "68C61D79-A6B0-463A-BFCB-C5A54C9143A5";
paths = (
{
closed = 1;
nodes = (
"213 298 LINE",
"263 298 LINE",
"263 161 LINE SMOOTH",
"263 111 OFFCURVE",
"241 85 OFFCURVE",
"198 85 CURVE SMOOTH",
"155 85 OFFCURVE",
"133 111 OFFCURVE",
"133 161 CURVE SMOOTH",
"133 539 LINE SMOOTH",
"133 590 OFFCURVE",
"155 616 OFFCURVE",
"198 616 CURVE SMOOTH",
"241 616 OFFCURVE",
"263 590 OFFCURVE",
"263 539 CURVE SMOOTH",
"263 472 LINE",
"351 472 LINE",
"351 532 LINE SMOOTH",
"351 642 OFFCURVE",
"297 700 OFFCURVE",
"195 700 CURVE SMOOTH",
"93 700 OFFCURVE",
"39 642 OFFCURVE",
"39 532 CURVE SMOOTH",
"39 168 LINE SMOOTH",
"39 58 OFFCURVE",
"93 0 OFFCURVE",
"195 0 CURVE SMOOTH",
"297 0 OFFCURVE",
"351 58 OFFCURVE",
"351 168 CURVE SMOOTH",
"351 382 LINE",
"213 382 LINE"
);
}
);
width = 390;
}
);
leftKerningGroup = g;
note = g;
rightKerningGroup = g;
unicode = 0067;
},
{
glyphname = h;
lastChange = "2017-06-10 14:08:23 +0000";
layers = (
{
layerId = "68C61D79-A6B0-463A-BFCB-C5A54C9143A5";
paths = (
{
closed = 1;
nodes = (
"142 308 LINE",
"283 308 LINE",
"283 8 LINE",
"379 8 LINE",
"379 692 LINE",
"283 692 LINE",
"283 392 LINE",
"142 392 LINE",
"142 692 LINE",
"48 692 LINE",
"48 8 LINE",
"142 8 LINE"
);
}
);
width = 427;
}
);
note = h;
unicode = 0068;
},
{
glyphname = i;
lastChange = "2017-06-10 14:08:23 +0000";
layers = (
{
layerId = "68C61D79-A6B0-463A-BFCB-C5A54C9143A5";
paths = (
{
closed = 1;
nodes = (
"48 8 LINE",
"142 8 LINE",
"142 692 LINE",
"48 692 LINE"
);
}
);
width = 190;
}
);
note = i;
unicode = 0069;
},
{
glyphname = j;
lastChange = "2017-06-10 14:08:23 +0000";
layers = (
{
layerId = "68C61D79-A6B0-463A-BFCB-C5A54C9143A5";
paths = (
{
closed = 1;
nodes = (
"18 7 LINE",
"33 6 OFFCURVE",
"46 6 OFFCURVE",
"63 6 CURVE SMOOTH",
"165 6 OFFCURVE",
"213 62 OFFCURVE",
"213 174 CURVE SMOOTH",
"213 692 LINE",
"119 692 LINE",
"119 166 LINE SMOOTH",
"119 116 OFFCURVE",
"96 91 OFFCURVE",
"48 91 CURVE SMOOTH",
"39 91 OFFCURVE",
"28 91 OFFCURVE",
"18 91 CURVE"
);
}
);
width = 256;
}
);
leftKerningGroup = j;
note = j;
rightKerningGroup = j;
unicode = 006A;
},
{
glyphname = k;
lastChange = "2017-06-10 14:08:23 +0000";
layers = (
{
layerId = "68C61D79-A6B0-463A-BFCB-C5A54C9143A5";
paths = (
{
closed = 1;
nodes = (
"297 8 LINE",
"392 8 LINE",
"242 388 LINE",
"391 692 LINE",
"299 692 LINE",
"142 359 LINE",
"142 692 LINE",
"48 692 LINE",
"48 8 LINE",
"142 8 LINE",
"142 217 LINE",
"185 298 LINE"
);
}
);
width = 414;
}
);
note = k;
rightKerningGroup = k;
unicode = 006B;
},
{
glyphname = l;
lastChange = "2017-06-10 14:08:23 +0000";
layers = (
{
layerId = "68C61D79-A6B0-463A-BFCB-C5A54C9143A5";
paths = (
{
closed = 1;
nodes = (
"48 8 LINE",
"323 8 LINE",
"323 92 LINE",
"142 92 LINE",
"142 692 LINE",
"48 692 LINE"
);
}
);
width = 339;
}
);
note = l;
rightKerningGroup = l;
unicode = 006C;
},
{
glyphname = m;
lastChange = "2017-06-10 14:08:23 +0000";
layers = (
{
layerId = "68C61D79-A6B0-463A-BFCB-C5A54C9143A5";
paths = (
{
closed = 1;
nodes = (
"185 692 LINE",
"47 692 LINE",
"47 8 LINE",
"127 8 LINE",
"127 592 LINE",
"224 8 LINE",
"314 8 LINE",
"405 608 LINE",
"405 8 LINE",
"493 8 LINE",
"493 692 LINE",
"355 692 LINE",
"273 151 LINE"
);
}
);
width = 541;
}
);
note = m;
unicode = 006D;
},
{
glyphname = n;
lastChange = "2017-06-10 14:08:23 +0000";
layers = (
{
layerId = "68C61D79-A6B0-463A-BFCB-C5A54C9143A5";
paths = (
{
closed = 1;
nodes = (
"281 8 LINE",
"380 8 LINE",
"380 692 LINE",
"298 692 LINE",
"298 221 LINE",
"171 692 LINE",
"47 692 LINE",
"47 8 LINE",
"130 8 LINE",
"130 567 LINE"
);
}
);
width = 427;
}
);
note = n;
unicode = 006E;
},
{
glyphname = o;
lastChange = "2017-06-10 14:08:23 +0000";
layers = (
{
layerId = "68C61D79-A6B0-463A-BFCB-C5A54C9143A5";
paths = (
{
closed = 1;
nodes = (
"133 539 LINE SMOOTH",
"133 590 OFFCURVE",
"155 616 OFFCURVE",
"198 616 CURVE SMOOTH",
"241 616 OFFCURVE",
"263 590 OFFCURVE",
"263 539 CURVE SMOOTH",
"263 161 LINE SMOOTH",
"263 110 OFFCURVE",
"241 84 OFFCURVE",
"198 84 CURVE SMOOTH",
"155 84 OFFCURVE",
"133 110 OFFCURVE",
"133 161 CURVE SMOOTH"
);
},
{
closed = 1;
nodes = (
"39 168 LINE SMOOTH",
"39 59 OFFCURVE",
"95 0 OFFCURVE",
"198 0 CURVE SMOOTH",
"301 0 OFFCURVE",
"357 59 OFFCURVE",
"357 168 CURVE SMOOTH",
"357 532 LINE SMOOTH",
"357 641 OFFCURVE",
"301 700 OFFCURVE",
"198 700 CURVE SMOOTH",
"95 700 OFFCURVE",
"39 641 OFFCURVE",
"39 532 CURVE SMOOTH"
);
}
);
width = 396;
}
);
leftKerningGroup = o;
note = o;
rightKerningGroup = o;
unicode = 006F;
},
{
glyphname = p;
lastChange = "2017-06-10 14:08:23 +0000";
layers = (
{
layerId = "68C61D79-A6B0-463A-BFCB-C5A54C9143A5";
paths = (
{
closed = 1;
nodes = (
"48 692 LINE",
"48 8 LINE",
"142 8 LINE",
"142 271 LINE",
"202 271 LINE SMOOTH",
"306 271 OFFCURVE",
"358 326 OFFCURVE",
"358 436 CURVE SMOOTH",
"358 527 LINE SMOOTH",
"358 637 OFFCURVE",
"306 692 OFFCURVE",
"202 692 CURVE SMOOTH"
);
},
{
closed = 1;
nodes = (
"202 608 LINE SMOOTH",
"245 608 OFFCURVE",
"264 585 OFFCURVE",
"264 534 CURVE SMOOTH",
"264 429 LINE SMOOTH",
"264 378 OFFCURVE",
"245 355 OFFCURVE",
"202 355 CURVE SMOOTH",
"142 355 LINE",
"142 608 LINE"
);
}
);
width = 377;
}
);
note = p;
rightKerningGroup = p;
unicode = 0070;
},
{
glyphname = q;
lastChange = "2017-06-10 14:08:23 +0000";
layers = (
{
layerId = "68C61D79-A6B0-463A-BFCB-C5A54C9143A5";
paths = (
{
closed = 1;
nodes = (
"39 168 LINE SMOOTH",
"39 59 OFFCURVE",
"95 0 OFFCURVE",
"198 0 CURVE SMOOTH",
"226 0 OFFCURVE",
"255 5 OFFCURVE",
"279 15 CURVE",
"292 -18 OFFCURVE",
"323 -35 OFFCURVE",
"370 -35 CURVE SMOOTH",
"377 -35 LINE",
"377 47 LINE",
"375 47 LINE SMOOTH",
"350 47 OFFCURVE",
"341 53 OFFCURVE",
"335 71 CURVE",
"349 96 OFFCURVE",
"357 128 OFFCURVE",
"357 168 CURVE SMOOTH",
"357 532 LINE SMOOTH",
"357 641 OFFCURVE",
"301 700 OFFCURVE",
"198 700 CURVE SMOOTH",
"95 700 OFFCURVE",
"39 641 OFFCURVE",
"39 532 CURVE SMOOTH"
);
},
{
closed = 1;
nodes = (
"133 539 LINE SMOOTH",
"133 590 OFFCURVE",
"155 616 OFFCURVE",
"198 616 CURVE SMOOTH",
"241 616 OFFCURVE",
"263 590 OFFCURVE",
"263 539 CURVE SMOOTH",
"263 161 LINE SMOOTH",
"263 110 OFFCURVE",
"241 84 OFFCURVE",
"198 84 CURVE SMOOTH",
"155 84 OFFCURVE",
"133 110 OFFCURVE",
"133 161 CURVE SMOOTH"
);
}
);
width = 396;
}
);
note = q;
unicode = 0071;
},
{
glyphname = r;
lastChange = "2017-06-10 14:08:23 +0000";
layers = (
{
layerId = "68C61D79-A6B0-463A-BFCB-C5A54C9143A5";
paths = (
{
closed = 1;
nodes = (
"370 8 LINE",
"363 32 OFFCURVE",
"362 55 OFFCURVE",
"362 85 CURVE SMOOTH",
"362 193 LINE SMOOTH",
"362 282 OFFCURVE",
"334 327 OFFCURVE",
"273 341 CURVE",
"332 359 OFFCURVE",
"361 404 OFFCURVE",
"361 484 CURVE SMOOTH",
"361 539 LINE SMOOTH",
"361 645 OFFCURVE",
"313 692 OFFCURVE",
"206 692 CURVE SMOOTH",
"48 692 LINE",
"48 8 LINE",
"142 8 LINE",
"142 293 LINE",
"188 293 LINE SMOOTH",
"244 293 OFFCURVE",
"268 264 OFFCURVE",
"268 196 CURVE SMOOTH",
"268 86 LINE SMOOTH",
"268 36 OFFCURVE",
"271 23 OFFCURVE",
"276 8 CURVE"
);
},
{
closed = 1;
nodes = (
"203 608 LINE SMOOTH",
"247 608 OFFCURVE",
"267 582 OFFCURVE",
"267 528 CURVE SMOOTH",
"267 459 LINE SMOOTH",
"267 403 OFFCURVE",
"243 377 OFFCURVE",
"193 377 CURVE SMOOTH",
"142 377 LINE",
"142 608 LINE"
);
}
);
width = 402;
}
);
note = r;
rightKerningGroup = r;
unicode = 0072;
},
{
glyphname = s;
lastChange = "2017-06-10 14:08:23 +0000";
layers = (
{
layerId = "68C61D79-A6B0-463A-BFCB-C5A54C9143A5";
paths = (
{
closed = 1;
nodes = (
"34 338 OFFCURVE",
"249 312 OFFCURVE",
"249 161 CURVE SMOOTH",
"249 111 OFFCURVE",
"227 85 OFFCURVE",
"184 85 CURVE SMOOTH",
"141 85 OFFCURVE",
"119 111 OFFCURVE",
"119 161 CURVE SMOOTH",
"119 203 LINE",
"31 203 LINE",
"31 168 LINE SMOOTH",
"31 58 OFFCURVE",
"85 0 OFFCURVE",
"187 0 CURVE SMOOTH",
"289 0 OFFCURVE",
"343 58 OFFCURVE",
"343 168 CURVE SMOOTH",
"343 362 OFFCURVE",
"128 388 OFFCURVE",
"128 539 CURVE SMOOTH",
"128 590 OFFCURVE",
"149 616 OFFCURVE",
"191 616 CURVE SMOOTH",
"233 616 OFFCURVE",
"254 590 OFFCURVE",
"254 539 CURVE SMOOTH",
"254 518 LINE",
"342 518 LINE",
"342 532 LINE SMOOTH",
"342 642 OFFCURVE",
"289 700 OFFCURVE",
"188 700 CURVE SMOOTH",
"87 700 OFFCURVE",
"34 642 OFFCURVE",
"34 532 CURVE SMOOTH"
);
}
);
width = 374;
}
);
leftKerningGroup = s;
note = s;
rightKerningGroup = s;
unicode = 0073;
},
{
glyphname = t;
lastChange = "2017-06-10 14:08:23 +0000";
layers = (
{
layerId = "68C61D79-A6B0-463A-BFCB-C5A54C9143A5";
paths = (
{
closed = 1;
nodes = (
"16 608 LINE",
"131 608 LINE",
"131 8 LINE",
"225 8 LINE",
"225 608 LINE",
"340 608 LINE",
"340 692 LINE",
"16 692 LINE"
);
}
);
width = 356;
}
);
leftKerningGroup = t;
note = t;
rightKerningGroup = t;
unicode = 0074;
},
{
glyphname = u;
lastChange = "2017-06-10 14:08:23 +0000";
layers = (
{
layerId = "68C61D79-A6B0-463A-BFCB-C5A54C9143A5";
paths = (
{
closed = 1;
nodes = (
"43 692 LINE",
"43 167 LINE SMOOTH",
"43 57 OFFCURVE",
"97 -1 OFFCURVE",
"199 -1 CURVE SMOOTH",
"301 -1 OFFCURVE",
"355 57 OFFCURVE",
"355 167 CURVE SMOOTH",
"355 692 LINE",
"267 692 LINE",
"267 160 LINE SMOOTH",
"267 110 OFFCURVE",
"245 84 OFFCURVE",
"202 84 CURVE SMOOTH",
"159 84 OFFCURVE",
"137 110 OFFCURVE",
"137 160 CURVE SMOOTH",
"137 692 LINE"
);
}
);
width = 398;
}
);
leftKerningGroup = u;
note = u;
rightKerningGroup = u;
unicode = 0075;
},
{
glyphname = v;
lastChange = "2017-06-10 14:08:23 +0000";
layers = (
{
layerId = "68C61D79-A6B0-463A-BFCB-C5A54C9143A5";
paths = (
{
closed = 1;
nodes = (
"115 692 LINE",
"20 692 LINE",
"126 8 LINE",
"276 8 LINE",
"382 692 LINE",
"297 692 LINE",
"206 74 LINE"
);
}
);
width = 402;
}
);
note = v;
unicode = 0076;
},
{
glyphname = w;
lastChange = "2017-06-10 14:08:23 +0000";
layers = (
{
layerId = "68C61D79-A6B0-463A-BFCB-C5A54C9143A5";
paths = (
{
closed = 1;
nodes = (
"331 8 LINE",
"463 8 LINE",
"539 692 LINE",
"459 692 LINE",
"395 64 LINE",
"333 692 LINE",
"241 692 LINE",
"181 69 LINE",
"115 692 LINE",
"24 692 LINE",
"100 8 LINE",
"237 8 LINE",
"284 448 LINE"
);
}
);
width = 563;
}
);
leftKerningGroup = w;
note = w;
rightKerningGroup = w;
unicode = 0077;
},
{
glyphname = x;
lastChange = "2017-06-10 14:08:23 +0000";
layers = (
{
layerId = "68C61D79-A6B0-463A-BFCB-C5A54C9143A5";
paths = (
{
closed = 1;
nodes = (
"311 692 LINE",
"220 416 LINE",
"131 692 LINE",
"34 692 LINE",
"146 360 LINE",
"26 8 LINE",
"112 8 LINE",
"209 303 LINE",
"305 8 LINE",
"404 8 LINE",
"284 360 LINE",
"396 692 LINE"
);
}
);
width = 430;
}
);
note = x;
unicode = 0078;
},
{
glyphname = y;
lastChange = "2017-06-10 14:08:23 +0000";
layers = (
{
layerId = "68C61D79-A6B0-463A-BFCB-C5A54C9143A5";
paths = (
{
closed = 1;
nodes = (
"151 8 LINE",
"245 8 LINE",
"245 233 LINE",
"381 692 LINE",
"293 692 LINE",
"203 350 LINE",
"113 692 LINE",
"15 692 LINE",
"151 233 LINE"
);
}
);
width = 396;
}
);
leftKerningGroup = y;
note = y;
rightKerningGroup = y;
unicode = 0079;
},
{
glyphname = z;
lastChange = "2017-06-10 14:08:23 +0000";
layers = (
{
layerId = "68C61D79-A6B0-463A-BFCB-C5A54C9143A5";
paths = (
{
closed = 1;
nodes = (
"41 692 LINE",
"41 608 LINE",
"244 608 LINE",
"31 96 LINE",
"31 8 LINE",
"337 8 LINE",
"337 92 LINE",
"124 92 LINE",
"337 604 LINE",
"337 692 LINE"
);
}
);
width = 370;
}
);
leftKerningGroup = z;
note = z;
rightKerningGroup = z;
unicode = 007A;
},
{
glyphname = braceleft;
lastChange = "2017-06-10 14:08:23 +0000";
layers = (
{
layerId = "68C61D79-A6B0-463A-BFCB-C5A54C9143A5";
paths = (
{
closed = 1;
nodes = (
"127 356 OFFCURVE",
"156 381 OFFCURVE",
"159 439 CURVE SMOOTH",
"164 539 LINE SMOOTH",
"167 596 OFFCURVE",
"184 618 OFFCURVE",
"225 618 CURVE SMOOTH",
"233 618 LINE",
"233 692 LINE",
"185 692 LINE SMOOTH",
"123 692 OFFCURVE",
"86 656 OFFCURVE",
"82 588 CURVE SMOOTH",
"74 455 LINE SMOOTH",
"71 406 OFFCURVE",
"58 389 OFFCURVE",
"19 387 CURVE",
"19 313 LINE",
"58 311 OFFCURVE",
"71 294 OFFCURVE",
"74 246 CURVE SMOOTH",
"82 111 LINE SMOOTH",
"86 44 OFFCURVE",
"123 8 OFFCURVE",
"185 8 CURVE SMOOTH",
"233 8 LINE",
"233 82 LINE",
"225 82 LINE SMOOTH",
"184 82 OFFCURVE",
"167 104 OFFCURVE",
"164 161 CURVE SMOOTH",
"159 261 LINE SMOOTH",
"156 319 OFFCURVE",
"127 344 OFFCURVE",
"69 350 CURVE"
);
}
);
width = 257;
}
);
note = braceleft;
unicode = 007B;
},
{
glyphname = bar;
lastChange = "2017-06-10 14:08:23 +0000";
layers = (
{
layerId = "68C61D79-A6B0-463A-BFCB-C5A54C9143A5";
paths = (
{
closed = 1;
nodes = (
"218 -57 LINE",
"292 -57 LINE",
"292 757 LINE",
"218 757 LINE"
);
}
);
width = 500;
}
);
note = bar;
unicode = 007C;
},
{
glyphname = braceright;
lastChange = "2017-06-10 14:08:23 +0000";
layers = (
{
layerId = "68C61D79-A6B0-463A-BFCB-C5A54C9143A5";
paths = (
{
closed = 1;
nodes = (
"130 344 OFFCURVE",
"101 319 OFFCURVE",
"98 261 CURVE SMOOTH",
"93 161 LINE SMOOTH",
"90 104 OFFCURVE",
"73 82 OFFCURVE",
"32 82 CURVE SMOOTH",
"24 82 LINE",
"24 8 LINE",
"72 8 LINE SMOOTH",
"134 8 OFFCURVE",
"171 44 OFFCURVE",
"175 112 CURVE SMOOTH",
"183 245 LINE SMOOTH",
"186 294 OFFCURVE",
"199 311 OFFCURVE",
"238 313 CURVE",
"238 387 LINE",
"199 389 OFFCURVE",
"186 406 OFFCURVE",
"183 454 CURVE SMOOTH",
"175 589 LINE SMOOTH",
"171 656 OFFCURVE",
"134 692 OFFCURVE",
"72 692 CURVE SMOOTH",
"24 692 LINE",
"24 618 LINE",
"32 618 LINE SMOOTH",
"73 618 OFFCURVE",
"90 596 OFFCURVE",
"93 539 CURVE SMOOTH",
"98 439 LINE SMOOTH",
"101 381 OFFCURVE",
"130 356 OFFCURVE",
"188 350 CURVE"
);
}
);
width = 257;
}
);
note = braceright;
unicode = 007D;
},
{
glyphname = asciitilde;
lastChange = "2017-06-10 14:08:23 +0000";
layers = (
{
layerId = "68C61D79-A6B0-463A-BFCB-C5A54C9143A5";
paths = (
{
closed = 1;
nodes = (
"59 294 LINE",
"89 336 OFFCURVE",
"103 347 OFFCURVE",
"126 347 CURVE SMOOTH",
"171 347 OFFCURVE",
"218 286 OFFCURVE",
"269 286 CURVE SMOOTH",
"309 286 OFFCURVE",
"338 306 OFFCURVE",
"378 363 CURVE",
"337 406 LINE",
"309 368 OFFCURVE",
"295 353 OFFCURVE",
"270 353 CURVE SMOOTH",
"225 353 OFFCURVE",
"178 414 OFFCURVE",
"127 414 CURVE SMOOTH",
"89 414 OFFCURVE",
"59 392 OFFCURVE",
"18 333 CURVE"
);
}
);
width = 396;
}
);
note = asciitilde;
unicode = 007E;
},
{
glyphname = exclamdown;
lastChange = "2017-06-10 14:08:23 +0000";
layers = (
{
layerId = "68C61D79-A6B0-463A-BFCB-C5A54C9143A5";
paths = (
{
closed = 1;
nodes = (
"62 537 LINE",
"48 292 LINE",
"48 8 LINE",
"142 8 LINE",
"142 292 LINE",
"128 537 LINE"
);
},
{
closed = 1;
nodes = (
"140 602 LINE",
"140 692 LINE",
"50 692 LINE",
"50 602 LINE"
);
}
);
width = 190;
}
);
note = exclamdown;
unicode = 00A1;
},
{
glyphname = cent;
lastChange = "2017-06-10 14:08:23 +0000";
layers = (
{
layerId = "68C61D79-A6B0-463A-BFCB-C5A54C9143A5";
paths = (
{
closed = 1;
nodes = (
"161 -7 LINE",
"235 -7 LINE",
"235 43 LINE",
"314 55 OFFCURVE",
"356 112 OFFCURVE",
"356 208 CURVE SMOOTH",
"356 273 LINE",
"268 273 LINE",
"268 201 LINE SMOOTH",
"268 151 OFFCURVE",
"246 125 OFFCURVE",
"203 125 CURVE SMOOTH",
"160 125 OFFCURVE",
"138 151 OFFCURVE",
"138 201 CURVE SMOOTH",
"138 499 LINE SMOOTH",
"138 550 OFFCURVE",
"160 576 OFFCURVE",
"203 576 CURVE SMOOTH",
"246 576 OFFCURVE",
"268 550 OFFCURVE",
"268 499 CURVE SMOOTH",
"268 452 LINE",
"356 452 LINE",
"356 492 LINE SMOOTH",
"356 588 OFFCURVE",
"315 644 OFFCURVE",
"235 657 CURVE",
"235 707 LINE",
"161 707 LINE",
"161 656 LINE",
"84 642 OFFCURVE",
"44 586 OFFCURVE",
"44 492 CURVE SMOOTH",
"44 208 LINE SMOOTH",
"44 113 OFFCURVE",
"84 57 OFFCURVE",
"161 44 CURVE"
);
}
);
width = 396;
}
);
note = cent;
unicode = 00A2;
},
{
glyphname = sterling;
lastChange = "2017-06-10 14:08:23 +0000";
layers = (
{
layerId = "68C61D79-A6B0-463A-BFCB-C5A54C9143A5";
paths = (
{
closed = 1;
nodes = (
"52 218 LINE",
"133 218 LINE",
"134 145 OFFCURVE",
"96 93 OFFCURVE",
"38 88 CURVE",
"38 8 LINE",
"349 8 LINE",
"349 92 LINE",
"142 92 LINE",
"188 118 OFFCURVE",
"213 159 OFFCURVE",
"217 218 CURVE",
"330 218 LINE",
"330 287 LINE",
"211 287 LINE",
"193 365 OFFCURVE",
"142 408 OFFCURVE",
"142 539 CURVE SMOOTH",
"142 590 OFFCURVE",
"163 616 OFFCURVE",
"205 616 CURVE SMOOTH",
"247 616 OFFCURVE",
"268 590 OFFCURVE",
"268 539 CURVE SMOOTH",
"268 471 LINE",
"356 471 LINE",
"356 532 LINE SMOOTH",
"356 642 OFFCURVE",
"303 700 OFFCURVE",
"202 700 CURVE SMOOTH",
"101 700 OFFCURVE",
"48 642 OFFCURVE",
"48 532 CURVE SMOOTH",
"48 407 OFFCURVE",
"99 364 OFFCURVE",
"122 287 CURVE",
"52 287 LINE"
);
}
);
width = 396;
}
);
note = sterling;
unicode = 00A3;
},
{
glyphname = currency;
lastChange = "2017-06-10 14:08:23 +0000";
layers = (
{
layerId = "68C61D79-A6B0-463A-BFCB-C5A54C9143A5";
paths = (
{
closed = 1;
nodes = (
"126 389 OFFCURVE",
"159 422 OFFCURVE",
"198 422 CURVE SMOOTH",
"237 422 OFFCURVE",
"270 389 OFFCURVE",
"270 350 CURVE SMOOTH",
"270 311 OFFCURVE",
"237 278 OFFCURVE",
"198 278 CURVE SMOOTH",
"159 278 OFFCURVE",
"126 311 OFFCURVE",
"126 350 CURVE SMOOTH"
);
},
{
closed = 1;
nodes = (
"43 227 LINE",
"75 195 LINE",
"129 249 LINE",
"148 236 OFFCURVE",
"172 229 OFFCURVE",
"198 229 CURVE SMOOTH",
"224 229 OFFCURVE",
"249 237 OFFCURVE",
"266 249 CURVE",
"321 195 LINE",
"353 227 LINE",
"298 282 LINE",
"311 301 OFFCURVE",
"319 325 OFFCURVE",
"319 350 CURVE SMOOTH",
"319 373 OFFCURVE",
"312 397 OFFCURVE",
"298 418 CURVE",
"353 473 LINE",
"321 505 LINE",
"266 450 LINE",
"245 464 OFFCURVE",
"221 471 OFFCURVE",
"198 471 CURVE SMOOTH",
"173 471 OFFCURVE",
"149 463 OFFCURVE",
"130 450 CURVE",
"75 505 LINE",
"43 473 LINE",
"97 418 LINE",
"85 401 OFFCURVE",
"77 376 OFFCURVE",
"77 350 CURVE SMOOTH",
"77 324 OFFCURVE",
"84 300 OFFCURVE",
"97 281 CURVE"
);
}
);
width = 396;
}
);
note = currency;
unicode = 00A4;
},
{
glyphname = yen;
lastChange = "2017-06-10 14:08:23 +0000";
layers = (
{
layerId = "68C61D79-A6B0-463A-BFCB-C5A54C9143A5";
paths = (
{
closed = 1;
nodes = (
"290 692 LINE",
"203 359 LINE",
"116 692 LINE",
"18 692 LINE",
"145 263 LINE",
"60 263 LINE",
"60 224 LINE",
"151 224 LINE",
"151 163 LINE",
"60 163 LINE",
"60 124 LINE",
"151 124 LINE",
"151 8 LINE",
"245 8 LINE",
"245 124 LINE",
"336 124 LINE",
"336 163 LINE",
"245 163 LINE",
"245 224 LINE",
"336 224 LINE",
"336 263 LINE",
"250 263 LINE",
"378 692 LINE"
);
}
);
width = 396;
}
);
note = yen;
unicode = 00A5;
},
{
glyphname = brokenbar;
lastChange = "2017-06-10 14:08:23 +0000";
layers = (
{
layerId = "68C61D79-A6B0-463A-BFCB-C5A54C9143A5";
paths = (
{
closed = 1;
nodes = (
"218 418 LINE",
"292 418 LINE",
"292 757 LINE",
"218 757 LINE"
);
},
{
closed = 1;
nodes = (
"218 -57 LINE",
"292 -57 LINE",
"292 282 LINE",
"218 282 LINE"
);
}
);
width = 500;
}
);
note = brokenbar;
unicode = 00A6;
},
{
glyphname = section;
lastChange = "2017-06-10 14:08:23 +0000";
layers = (
{
layerId = "68C61D79-A6B0-463A-BFCB-C5A54C9143A5";
paths = (
{
closed = 1;
nodes = (
"43 138 OFFCURVE",
"258 167 OFFCURVE",
"258 74 CURVE SMOOTH",
"258 34 OFFCURVE",
"234 10 OFFCURVE",
"195 10 CURVE SMOOTH",
"157 10 OFFCURVE",
"132 37 OFFCURVE",
"132 78 CURVE SMOOTH",
"132 105 LINE",
"44 105 LINE",
"44 63 LINE SMOOTH",
"44 -17 OFFCURVE",
"101 -65 OFFCURVE",
"198 -65 CURVE SMOOTH",
"293 -65 OFFCURVE",
"352 -13 OFFCURVE",
"352 69 CURVE SMOOTH",
"352 129 OFFCURVE",
"327 170 OFFCURVE",
"273 198 CURVE",
"323 220 OFFCURVE",
"352 266 OFFCURVE",
"352 321 CURVE SMOOTH",
"352 497 OFFCURVE",
"137 468 OFFCURVE",
"137 561 CURVE SMOOTH",
"137 601 OFFCURVE",
"161 625 OFFCURVE",
"200 625 CURVE SMOOTH",
"238 625 OFFCURVE",
"263 598 OFFCURVE",
"263 557 CURVE SMOOTH",
"263 544 LINE",
"351 544 LINE",
"351 572 LINE SMOOTH",
"351 652 OFFCURVE",
"294 700 OFFCURVE",
"197 700 CURVE SMOOTH",
"102 700 OFFCURVE",
"43 648 OFFCURVE",
"43 566 CURVE SMOOTH",
"43 505 OFFCURVE",
"67 466 OFFCURVE",
"120 435 CURVE",
"71 413 OFFCURVE",
"43 369 OFFCURVE",
"43 314 CURVE SMOOTH"
);
},
{
closed = 1;
nodes = (
"132 362 OFFCURVE",
"158 397 OFFCURVE",
"194 401 CURVE",
"242 378 OFFCURVE",
"263 353 OFFCURVE",
"263 317 CURVE SMOOTH",
"263 273 OFFCURVE",
"236 237 OFFCURVE",
"200 233 CURVE",
"152 256 OFFCURVE",
"132 281 OFFCURVE",
"132 318 CURVE SMOOTH"
);
}
);
width = 396;
}
);
note = section;
unicode = 00A7;
},
{
glyphname = dieresis;
lastChange = "2017-06-10 14:08:23 +0000";
layers = (
{
layerId = "68C61D79-A6B0-463A-BFCB-C5A54C9143A5";
paths = (
{
closed = 1;
nodes = (
"9 825 LINE",
"9 745 LINE",
"89 745 LINE",
"89 825 LINE"
);
},
{
closed = 1;
nodes = (
"161 825 LINE",
"161 745 LINE",
"241 745 LINE",
"241 825 LINE"
);
}
);
width = 250;
}
);
note = dieresis;
unicode = 00A8;
},
{
glyphname = copyright;
lastChange = "2017-06-10 14:08:23 +0000";
layers = (
{
layerId = "68C61D79-A6B0-463A-BFCB-C5A54C9143A5";
paths = (
{
closed = 1;
nodes = (
"413 300 LINE",
"413 248 LINE SMOOTH",
"413 212 OFFCURVE",
"397 193 OFFCURVE",
"366 193 CURVE SMOOTH",
"335 193 OFFCURVE",
"319 212 OFFCURVE",
"319 248 CURVE SMOOTH",
"319 452 LINE SMOOTH",
"319 489 OFFCURVE",
"335 508 OFFCURVE",
"366 508 CURVE SMOOTH",
"397 508 OFFCURVE",
"413 489 OFFCURVE",
"413 452 CURVE SMOOTH",
"413 418 LINE",
"469 418 LINE",
"469 446 LINE SMOOTH",
"469 523 OFFCURVE",
"434 562 OFFCURVE",
"364 562 CURVE SMOOTH",
"294 562 OFFCURVE",
"259 523 OFFCURVE",
"259 446 CURVE SMOOTH",
"259 252 LINE SMOOTH",
"259 177 OFFCURVE",
"295 138 OFFCURVE",
"364 138 CURVE SMOOTH",
"433 138 OFFCURVE",
"469 177 OFFCURVE",
"469 252 CURVE SMOOTH",
"469 300 LINE"
);
},
{
closed = 1;
nodes = (
"28 148 OFFCURVE",
"172 0 OFFCURVE",
"368 0 CURVE SMOOTH",
"564 0 OFFCURVE",
"708 148 OFFCURVE",
"708 350 CURVE SMOOTH",
"708 552 OFFCURVE",
"564 700 OFFCURVE",
"368 700 CURVE SMOOTH",
"172 700 OFFCURVE",
"28 552 OFFCURVE",
"28 350 CURVE SMOOTH"
);
},
{
closed = 1;
nodes = (
"84 520 OFFCURVE",
"205 646 OFFCURVE",
"368 646 CURVE SMOOTH",
"531 646 OFFCURVE",
"652 520 OFFCURVE",
"652 350 CURVE SMOOTH",
"652 180 OFFCURVE",
"531 54 OFFCURVE",
"368 54 CURVE SMOOTH",
"205 54 OFFCURVE",
"84 180 OFFCURVE",
"84 350 CURVE SMOOTH"
);
}
);
width = 736;
}
);
note = copyright;
unicode = 00A9;
},
{
glyphname = ordfeminine;
lastChange = "2017-06-10 14:08:23 +0000";
layers = (
{
layerId = "68C61D79-A6B0-463A-BFCB-C5A54C9143A5";
paths = (
{
closed = 1;
nodes = (
"38 429 LINE SMOOTH",
"38 366 OFFCURVE",
"61 336 OFFCURVE",
"108 336 CURVE SMOOTH",
"141 336 OFFCURVE",
"161 351 OFFCURVE",
"171 383 CURVE",
"187 382 LINE",
"190 341 LINE",
"234 341 LINE",
"234 594 LINE SMOOTH",
"234 664 OFFCURVE",
"206 697 OFFCURVE",
"147 697 CURVE SMOOTH",
"84 697 OFFCURVE",
"52 662 OFFCURVE",
"52 594 CURVE SMOOTH",
"52 583 LINE",
"102 583 LINE",
"102 598 LINE SMOOTH",
"102 632 OFFCURVE",
"115 649 OFFCURVE",
"144 649 CURVE SMOOTH",
"168 649 OFFCURVE",
"180 634 OFFCURVE",
"180 604 CURVE SMOOTH",
"180 550 LINE",
"80 548 OFFCURVE",
"38 513 OFFCURVE",
"38 433 CURVE SMOOTH"
);
},
{
closed = 1;
nodes = (
"38 279 LINE",
"38 226 LINE",
"234 226 LINE",
"234 279 LINE"
);
},
{
closed = 1;
nodes = (
"92 444 LINE SMOOTH",
"92 490 OFFCURVE",
"122 514 OFFCURVE",
"180 514 CURVE",
"180 428 LINE",
"180 427 LINE",
"178 399 OFFCURVE",
"163 384 OFFCURVE",
"136 384 CURVE SMOOTH",
"107 384 OFFCURVE",
"92 401 OFFCURVE",
"92 435 CURVE SMOOTH"
);
}
);
width = 278;
}
);
note = ordfeminine;
unicode = 00AA;
},
{
glyphname = guillemotleft;
lastChange = "2017-06-10 14:08:23 +0000";
layers = (
{
layerId = "68C61D79-A6B0-463A-BFCB-C5A54C9143A5";
paths = (
{
closed = 1;
nodes = (
"84 600 LINE",
"24 351 LINE",
"84 86 LINE",
"167 86 LINE",
"108 351 LINE",
"167 600 LINE"
);
},
{
closed = 1;
nodes = (
"246 600 LINE",
"186 351 LINE",
"246 86 LINE",
"329 86 LINE",
"270 351 LINE",
"329 600 LINE"
);
}
);
width = 355;
}
);
note = guillemotleft;
unicode = 00AB;
},
{
glyphname = logicalnot;
lastChange = "2017-06-10 14:08:23 +0000";
layers = (
{
layerId = "68C61D79-A6B0-463A-BFCB-C5A54C9143A5";
paths = (
{
closed = 1;
nodes = (
"33 381 LINE",
"33 319 LINE",
"301 319 LINE",
"301 182 LINE",
"363 182 LINE",
"363 381 LINE"
);
}
);
width = 396;
}
);
note = logicalnot;
unicode = 00AC;
},
{
glyphname = uni00AD;
lastChange = "2017-06-10 14:08:23 +0000";
layers = (
{
layerId = "68C61D79-A6B0-463A-BFCB-C5A54C9143A5";
paths = (
{
closed = 1;
nodes = (
"43 308 LINE",
"227 308 LINE",
"227 392 LINE",
"43 392 LINE"
);
}
);
width = 270;
}
);
leftKerningGroup = hyphen;
note = uni00AD;
unicode = 00AD;
},
{
glyphname = registered;
lastChange = "2017-06-10 14:08:23 +0000";
layers = (
{
layerId = "68C61D79-A6B0-463A-BFCB-C5A54C9143A5";
paths = (
{
closed = 1;
nodes = (
"28 148 OFFCURVE",
"172 0 OFFCURVE",
"368 0 CURVE SMOOTH",
"564 0 OFFCURVE",
"708 148 OFFCURVE",
"708 350 CURVE SMOOTH",
"708 552 OFFCURVE",
"564 700 OFFCURVE",
"368 700 CURVE SMOOTH",
"172 700 OFFCURVE",
"28 552 OFFCURVE",
"28 350 CURVE SMOOTH"
);
},
{
closed = 1;
nodes = (
"84 520 OFFCURVE",
"205 646 OFFCURVE",
"368 646 CURVE SMOOTH",
"531 646 OFFCURVE",
"652 520 OFFCURVE",
"652 350 CURVE SMOOTH",
"652 180 OFFCURVE",
"531 54 OFFCURVE",
"368 54 CURVE SMOOTH",
"205 54 OFFCURVE",
"84 180 OFFCURVE",
"84 350 CURVE SMOOTH"
);
},
{
closed = 1;
nodes = (
"485 144 LINE",
"480 160 OFFCURVE",
"479 176 OFFCURVE",
"479 195 CURVE SMOOTH",
"479 241 LINE SMOOTH",
"479 306 OFFCURVE",
"457 335 OFFCURVE",
"406 343 CURVE",
"457 354 OFFCURVE",
"479 383 OFFCURVE",
"479 443 CURVE SMOOTH",
"479 452 LINE SMOOTH",
"479 524 OFFCURVE",
"447 556 OFFCURVE",
"374 556 CURVE SMOOTH",
"266 556 LINE",
"266 144 LINE",
"326 144 LINE",
"326 312 LINE",
"360 312 LINE SMOOTH",
"401 312 OFFCURVE",
"419 291 OFFCURVE",
"419 242 CURVE SMOOTH",
"419 196 LINE SMOOTH",
"419 165 OFFCURVE",
"420 155 OFFCURVE",
"424 144 CURVE"
);
},
{
closed = 1;
nodes = (
"370 502 LINE SMOOTH",
"403 502 OFFCURVE",
"419 483 OFFCURVE",
"419 443 CURVE SMOOTH",
"419 425 LINE SMOOTH",
"419 385 OFFCURVE",
"401 366 OFFCURVE",
"365 366 CURVE SMOOTH",
"326 366 LINE",
"326 502 LINE"
);
}
);
width = 736;
}
);
note = registered;
unicode = 00AE;
},
{
glyphname = macron;
lastChange = "2017-06-10 14:08:23 +0000";
layers = (
{
layerId = "68C61D79-A6B0-463A-BFCB-C5A54C9143A5";
paths = (
{
closed = 1;
nodes = (
"18 811 LINE",
"18 749 LINE",
"232 749 LINE",
"232 811 LINE"
);
}
);
width = 250;
}
);
note = macron;
unicode = 00AF;
},
{
glyphname = degree;
lastChange = "2017-06-10 14:08:23 +0000";
layers = (
{
layerId = "68C61D79-A6B0-463A-BFCB-C5A54C9143A5";
paths = (
{
closed = 1;
nodes = (
"23 558 OFFCURVE",
"63 518 OFFCURVE",
"114 518 CURVE SMOOTH",
"165 518 OFFCURVE",
"205 558 OFFCURVE",
"205 609 CURVE SMOOTH",
"205 660 OFFCURVE",
"165 700 OFFCURVE",
"114 700 CURVE SMOOTH",
"63 700 OFFCURVE",
"23 660 OFFCURVE",
"23 609 CURVE SMOOTH"
);
},
{
closed = 1;
nodes = (
"57 640 OFFCURVE",
"83 666 OFFCURVE",
"114 666 CURVE SMOOTH",
"145 666 OFFCURVE",
"171 640 OFFCURVE",
"171 609 CURVE SMOOTH",
"171 578 OFFCURVE",
"145 552 OFFCURVE",
"114 552 CURVE SMOOTH",
"83 552 OFFCURVE",
"57 578 OFFCURVE",
"57 609 CURVE SMOOTH"
);
}
);
width = 228;
}
);
note = degree;
unicode = 00B0;
},
{
glyphname = plusminus;
lastChange = "2017-06-10 14:08:23 +0000";
layers = (
{
layerId = "68C61D79-A6B0-463A-BFCB-C5A54C9143A5";
paths = (
{
closed = 1;
nodes = (
"229 244 LINE",
"229 340 LINE",
"353 340 LINE",
"353 402 LINE",
"229 402 LINE",
"229 516 LINE",
"167 516 LINE",
"167 402 LINE",
"43 402 LINE",
"43 340 LINE",
"167 340 LINE",
"167 244 LINE",
"43 244 LINE",
"43 182 LINE",
"353 182 LINE",
"353 244 LINE"
);
}
);
width = 396;
}
);
note = plusminus;
unicode = 00B1;
},
{
glyphname = twosuperior;
lastChange = "2017-06-10 14:08:23 +0000";
layers = (
{
layerId = "68C61D79-A6B0-463A-BFCB-C5A54C9143A5";
paths = (
{
closed = 1;
nodes = (
"188 553 OFFCURVE",
"50 529 OFFCURVE",
"50 405 CURVE SMOOTH",
"50 359 LINE",
"236 359 LINE",
"236 406 LINE",
"106 406 LINE",
"81 495 OFFCURVE",
"242 546 OFFCURVE",
"242 690 CURVE SMOOTH",
"242 758 OFFCURVE",
"209 793 OFFCURVE",
"146 793 CURVE SMOOTH",
"83 793 OFFCURVE",
"50 758 OFFCURVE",
"50 690 CURVE SMOOTH",
"50 655 LINE",
"100 655 LINE",
"100 694 LINE SMOOTH",
"100 728 OFFCURVE",
"115 746 OFFCURVE",
"144 746 CURVE SMOOTH",
"174 746 OFFCURVE",
"188 727 OFFCURVE",
"188 688 CURVE SMOOTH"
);
}
);
width = 280;
}
);
note = twosuperior;
unicode = 00B2;
},
{
glyphname = threesuperior;
lastChange = "2017-06-10 14:08:23 +0000";
layers = (
{
layerId = "68C61D79-A6B0-463A-BFCB-C5A54C9143A5";
paths = (
{
closed = 1;
nodes = (
"182 460 LINE SMOOTH",
"182 420 OFFCURVE",
"168 401 OFFCURVE",
"138 401 CURVE SMOOTH",
"110 401 OFFCURVE",
"94 420 OFFCURVE",
"94 453 CURVE SMOOTH",
"94 486 LINE",
"44 486 LINE",
"44 458 LINE SMOOTH",
"44 389 OFFCURVE",
"76 354 OFFCURVE",
"140 354 CURVE SMOOTH",
"204 354 OFFCURVE",
"236 389 OFFCURVE",
"236 458 CURVE SMOOTH",
"236 493 LINE SMOOTH",
"236 551 OFFCURVE",
"213 580 OFFCURVE",
"163 586 CURVE",
"214 594 OFFCURVE",
"236 619 OFFCURVE",
"236 677 CURVE SMOOTH",
"236 688 LINE SMOOTH",
"236 757 OFFCURVE",
"204 792 OFFCURVE",
"140 792 CURVE SMOOTH",
"76 792 OFFCURVE",
"44 757 OFFCURVE",
"44 688 CURVE SMOOTH",
"44 673 LINE",
"94 673 LINE",
"94 693 LINE SMOOTH",
"94 726 OFFCURVE",
"110 745 OFFCURVE",
"138 745 CURVE SMOOTH",
"168 745 OFFCURVE",
"182 726 OFFCURVE",
"182 686 CURVE SMOOTH",
"182 661 LINE SMOOTH",
"182 624 OFFCURVE",
"165 605 OFFCURVE",
"132 605 CURVE SMOOTH",
"113 605 LINE",
"113 558 LINE",
"129 558 LINE SMOOTH",
"166 558 OFFCURVE",
"182 539 OFFCURVE",
"182 494 CURVE SMOOTH"
);
}
);
width = 280;
}
);
note = threesuperior;
unicode = 00B3;
},
{
glyphname = acute;
lastChange = "2017-06-10 14:08:23 +0000";
layers = (
{
layerId = "68C61D79-A6B0-463A-BFCB-C5A54C9143A5";
paths = (
{
closed = 1;
nodes = (
"99 840 LINE",
"41 745 LINE",
"97 745 LINE",
"185 840 LINE"
);
}
);
width = 250;
}
);
note = acute;
unicode = 00B4;
},
{
glyphname = uni00B5;
lastChange = "2017-06-10 14:08:23 +0000";
layers = (
{
layerId = "68C61D79-A6B0-463A-BFCB-C5A54C9143A5";
paths = (
{
closed = 1;
nodes = (
"133 492 LINE",
"39 492 LINE",
"39 -85 LINE",
"133 -85 LINE",
"133 3 LINE",
"143 2 OFFCURVE",
"153 0 OFFCURVE",
"165 0 CURVE SMOOTH",
"207 0 OFFCURVE",
"239 19 OFFCURVE",
"258 56 CURVE",
"273 52 LINE",
"273 8 LINE",
"357 8 LINE",
"357 492 LINE",
"263 492 LINE",
"263 161 LINE SMOOTH",
"263 110 OFFCURVE",
"241 84 OFFCURVE",
"198 84 CURVE SMOOTH",
"155 84 OFFCURVE",
"133 110 OFFCURVE",
"133 161 CURVE SMOOTH"
);
}
);
width = 396;
}
);
note = uni00B5;
unicode = 00B5;
},
{
glyphname = paragraph;
lastChange = "2017-06-10 14:08:23 +0000";
layers = (
{
layerId = "68C61D79-A6B0-463A-BFCB-C5A54C9143A5";
paths = (
{
closed = 1;
nodes = (
"348 692 LINE",
"178 692 LINE SMOOTH",
"74 692 OFFCURVE",
"22 637 OFFCURVE",
"22 527 CURVE SMOOTH",
"22 436 LINE SMOOTH",
"22 331 OFFCURVE",
"72 269 OFFCURVE",
"152 273 CURVE",
"150 -57 LINE",
"214 -57 LINE",
"214 628 LINE",
"284 628 LINE",
"284 -57 LINE",
"348 -57 LINE"
);
}
);
width = 396;
}
);
note = paragraph;
unicode = 00B6;
},
{
glyphname = periodcentered;
lastChange = "2017-06-10 14:08:23 +0000";
layers = (
{
layerId = "68C61D79-A6B0-463A-BFCB-C5A54C9143A5";
paths = (
{
closed = 1;
nodes = (
"48 395 LINE",
"48 305 LINE",
"138 305 LINE",
"138 395 LINE"
);
}
);
width = 186;
}
);
note = periodcentered;
unicode = 00B7;
},
{
glyphname = cedilla;
lastChange = "2017-06-10 14:08:23 +0000";
layers = (
{
layerId = "68C61D79-A6B0-463A-BFCB-C5A54C9143A5";
paths = (
{
closed = 1;
nodes = (
"34 -89 LINE SMOOTH",
"34 -124 OFFCURVE",
"61 -139 OFFCURVE",
"122 -139 CURVE SMOOTH",
"192 -139 OFFCURVE",
"215 -126 OFFCURVE",
"215 -86 CURVE SMOOTH",
"215 -57 OFFCURVE",
"195 -46 OFFCURVE",
"141 -47 CURVE",
"141 6 LINE",
"109 6 LINE",
"109 -49 LINE",
"111 -49 LINE SMOOTH",
"140 -49 OFFCURVE",
"155 -60 OFFCURVE",
"155 -83 CURVE SMOOTH",
"155 -104 OFFCURVE",
"144 -115 OFFCURVE",
"122 -115 CURVE SMOOTH",
"104 -115 OFFCURVE",
"92 -104 OFFCURVE",
"92 -87 CURVE",
"34 -87 LINE"
);
}
);
width = 250;
}
);
note = cedilla;
unicode = 00B8;
},
{
glyphname = onesuperior;
lastChange = "2017-06-10 14:08:23 +0000";
layers = (
{
layerId = "68C61D79-A6B0-463A-BFCB-C5A54C9143A5";
paths = (
{
closed = 1;
nodes = (
"33 698 LINE",
"87 698 LINE",
"87 359 LINE",
"141 359 LINE",
"141 787 LINE",
"108 787 LINE",
"97 760 OFFCURVE",
"82 734 OFFCURVE",
"33 731 CURVE"
);
}
);
width = 200;
}
);
note = onesuperior;
unicode = 00B9;
},
{
glyphname = ordmasculine;
lastChange = "2017-06-10 14:08:23 +0000";
layers = (
{
layerId = "68C61D79-A6B0-463A-BFCB-C5A54C9143A5";
paths = (
{
closed = 1;
nodes = (
"96 598 LINE SMOOTH",
"96 632 OFFCURVE",
"110 649 OFFCURVE",
"140 649 CURVE SMOOTH",
"169 649 OFFCURVE",
"184 632 OFFCURVE",
"184 598 CURVE SMOOTH",
"184 435 LINE SMOOTH",
"184 401 OFFCURVE",
"169 384 OFFCURVE",
"140 384 CURVE SMOOTH",
"110 384 OFFCURVE",
"96 401 OFFCURVE",
"96 435 CURVE SMOOTH"
);
},
{
closed = 1;
nodes = (
"42 439 LINE SMOOTH",
"42 372 OFFCURVE",
"76 336 OFFCURVE",
"140 336 CURVE SMOOTH",
"204 336 OFFCURVE",
"238 372 OFFCURVE",
"238 439 CURVE SMOOTH",
"238 594 LINE SMOOTH",
"238 661 OFFCURVE",
"204 697 OFFCURVE",
"140 697 CURVE SMOOTH",
"76 697 OFFCURVE",
"42 661 OFFCURVE",
"42 594 CURVE SMOOTH"
);
},
{
closed = 1;
nodes = (
"42 279 LINE",
"42 226 LINE",
"238 226 LINE",
"238 279 LINE"
);
}
);
width = 280;
}
);
note = ordmasculine;
unicode = 00BA;
},
{
glyphname = guillemotright;
lastChange = "2017-06-10 14:08:23 +0000";
layers = (
{
layerId = "68C61D79-A6B0-463A-BFCB-C5A54C9143A5";
paths = (
{
closed = 1;
nodes = (
"188 600 LINE",
"247 351 LINE",
"188 86 LINE",
"271 86 LINE",
"331 351 LINE",
"271 600 LINE"
);
},
{
closed = 1;
nodes = (
"26 600 LINE",
"85 351 LINE",
"26 86 LINE",
"109 86 LINE",
"169 351 LINE",
"109 600 LINE"
);
}
);
width = 355;
}
);
note = guillemotright;
unicode = 00BB;
},
{
glyphname = onequarter;
lastChange = "2017-06-10 14:08:23 +0000";
layers = (
{
layerId = "68C61D79-A6B0-463A-BFCB-C5A54C9143A5";
paths = (
{
closed = 1;
nodes = (
"73 603 LINE",
"127 603 LINE",
"127 264 LINE",
"181 264 LINE",
"181 692 LINE",
"148 692 LINE",
"137 665 OFFCURVE",
"122 639 OFFCURVE",
"73 636 CURVE"
);
},
{
closed = 1;
nodes = (
"172 8 LINE",
"220 8 LINE",
"489 692 LINE",
"441 692 LINE"
);
},
{
closed = 1;
nodes = (
"379 88 LINE",
"513 88 LINE",
"513 8 LINE",
"566 8 LINE",
"566 88 LINE",
"599 88 LINE",
"599 136 LINE",
"566 136 LINE",
"566 436 LINE",
"503 436 LINE",
"379 142 LINE"
);
},
{
closed = 1;
nodes = (
"422 136 LINE",
"513 347 LINE",
"513 136 LINE"
);
}
);
width = 627;
}
);
note = onequarter;
unicode = 00BC;
},
{
glyphname = onehalf;
lastChange = "2017-06-10 14:08:23 +0000";
layers = (
{
layerId = "68C61D79-A6B0-463A-BFCB-C5A54C9143A5";
paths = (
{
closed = 1;
nodes = (
"73 603 LINE",
"127 603 LINE",
"127 264 LINE",
"181 264 LINE",
"181 692 LINE",
"148 692 LINE",
"137 665 OFFCURVE",
"122 639 OFFCURVE",
"73 636 CURVE"
);
},
{
closed = 1;
nodes = (
"142 8 LINE",
"190 8 LINE",
"459 692 LINE",
"411 692 LINE"
);
},
{
closed = 1;
nodes = (
"535 202 OFFCURVE",
"397 178 OFFCURVE",
"397 54 CURVE SMOOTH",
"397 8 LINE",
"583 8 LINE",
"583 55 LINE",
"453 55 LINE",
"428 144 OFFCURVE",
"589 195 OFFCURVE",
"589 339 CURVE SMOOTH",
"589 407 OFFCURVE",
"556 442 OFFCURVE",
"493 442 CURVE SMOOTH",
"430 442 OFFCURVE",
"397 407 OFFCURVE",
"397 339 CURVE SMOOTH",
"397 304 LINE",
"447 304 LINE",
"447 343 LINE SMOOTH",
"447 377 OFFCURVE",
"462 395 OFFCURVE",
"491 395 CURVE SMOOTH",
"521 395 OFFCURVE",
"535 376 OFFCURVE",
"535 337 CURVE SMOOTH"
);
}
);
width = 627;
}
);
note = onehalf;
unicode = 00BD;
},
{
glyphname = threequarters;
lastChange = "2017-06-10 14:08:23 +0000";
layers = (
{
layerId = "68C61D79-A6B0-463A-BFCB-C5A54C9143A5";
paths = (
{
closed = 1;
nodes = (
"182 365 LINE SMOOTH",
"182 325 OFFCURVE",
"168 306 OFFCURVE",
"138 306 CURVE SMOOTH",
"110 306 OFFCURVE",
"94 325 OFFCURVE",
"94 358 CURVE SMOOTH",
"94 391 LINE",
"44 391 LINE",
"44 363 LINE SMOOTH",
"44 294 OFFCURVE",
"76 259 OFFCURVE",
"140 259 CURVE SMOOTH",
"204 259 OFFCURVE",
"236 294 OFFCURVE",
"236 363 CURVE SMOOTH",
"236 398 LINE SMOOTH",
"236 456 OFFCURVE",
"213 485 OFFCURVE",
"163 491 CURVE",
"214 499 OFFCURVE",
"236 524 OFFCURVE",
"236 582 CURVE SMOOTH",
"236 593 LINE SMOOTH",
"236 662 OFFCURVE",
"204 697 OFFCURVE",
"140 697 CURVE SMOOTH",
"76 697 OFFCURVE",
"44 662 OFFCURVE",
"44 593 CURVE SMOOTH",
"44 578 LINE",
"94 578 LINE",
"94 598 LINE SMOOTH",
"94 631 OFFCURVE",
"110 650 OFFCURVE",
"138 650 CURVE SMOOTH",
"168 650 OFFCURVE",
"182 631 OFFCURVE",
"182 591 CURVE SMOOTH",
"182 566 LINE SMOOTH",
"182 529 OFFCURVE",
"165 510 OFFCURVE",
"132 510 CURVE SMOOTH",
"113 510 LINE",
"113 463 LINE",
"129 463 LINE SMOOTH",
"166 463 OFFCURVE",
"182 444 OFFCURVE",
"182 399 CURVE SMOOTH"
);
},
{
closed = 1;
nodes = (
"182 8 LINE",
"230 8 LINE",
"499 692 LINE",
"451 692 LINE"
);
},
{
closed = 1;
nodes = (
"379 88 LINE",
"513 88 LINE",
"513 8 LINE",
"566 8 LINE",
"566 88 LINE",
"599 88 LINE",
"599 136 LINE",
"566 136 LINE",
"566 436 LINE",
"503 436 LINE",
"379 142 LINE"
);
},
{
closed = 1;
nodes = (
"422 136 LINE",
"513 347 LINE",
"513 136 LINE"
);
}
);
width = 627;
}
);
note = threequarters;
unicode = 00BE;
},
{
glyphname = questiondown;
lastChange = "2017-06-10 14:08:23 +0000";
layers = (
{
layerId = "68C61D79-A6B0-463A-BFCB-C5A54C9143A5";
paths = (
{
closed = 1;
nodes = (
"152 537 LINE",
"153 528 OFFCURVE",
"154 518 OFFCURVE",
"154 506 CURVE SMOOTH",
"154 373 OFFCURVE",
"24 344 OFFCURVE",
"24 168 CURVE SMOOTH",
"24 58 OFFCURVE",
"77 0 OFFCURVE",
"178 0 CURVE SMOOTH",
"279 0 OFFCURVE",
"332 58 OFFCURVE",
"332 168 CURVE SMOOTH",
"332 229 LINE",
"244 229 LINE",
"244 161 LINE SMOOTH",
"244 110 OFFCURVE",
"223 84 OFFCURVE",
"181 84 CURVE SMOOTH",
"139 84 OFFCURVE",
"118 110 OFFCURVE",
"118 161 CURVE SMOOTH",
"118 342 OFFCURVE",
"238 355 OFFCURVE",
"238 502 CURVE SMOOTH",
"238 516 OFFCURVE",
"237 527 OFFCURVE",
"234 537 CURVE"
);
},
{
closed = 1;
nodes = (
"237 602 LINE",
"237 692 LINE",
"147 692 LINE",
"147 602 LINE"
);
}
);
width = 360;
}
);
note = questiondown;
unicode = 00BF;
},
{
glyphname = Agrave;
lastChange = "2017-06-10 14:08:23 +0000";
layers = (
{
layerId = "68C61D79-A6B0-463A-BFCB-C5A54C9143A5";
paths = (
{
closed = 1;
nodes = (
"277 692 LINE",
"130 692 LINE",
"20 8 LINE",
"105 8 LINE",
"124 135 LINE",
"273 135 LINE",
"292 8 LINE",
"387 8 LINE"
);
},
{
closed = 1;
nodes = (
"198 630 LINE",
"260 214 LINE",
"136 214 LINE"
);
},
{
closed = 1;
nodes = (
"101 840 LINE",
"189 745 LINE",
"250 745 LINE",
"192 840 LINE"
);
}
);
width = 407;
}
);
leftKerningGroup = A;
note = Agrave;
unicode = 00C0;
},
{
glyphname = Aacute;
lastChange = "2017-06-10 14:08:23 +0000";
layers = (
{
layerId = "68C61D79-A6B0-463A-BFCB-C5A54C9143A5";
paths = (
{
closed = 1;
nodes = (
"277 692 LINE",
"130 692 LINE",
"20 8 LINE",
"105 8 LINE",
"124 135 LINE",
"273 135 LINE",
"292 8 LINE",
"387 8 LINE"
);
},
{
closed = 1;
nodes = (
"198 630 LINE",
"260 214 LINE",
"136 214 LINE"
);
},
{
closed = 1;
nodes = (
"217 840 LINE",
"159 745 LINE",
"215 745 LINE",
"303 840 LINE"
);
}
);
width = 407;
}
);
leftKerningGroup = A;
note = Aacute;
unicode = 00C1;
},
{
glyphname = Acircumflex;
lastChange = "2017-06-10 14:08:23 +0000";
layers = (
{
layerId = "68C61D79-A6B0-463A-BFCB-C5A54C9143A5";
paths = (
{
closed = 1;
nodes = (
"277 692 LINE",
"130 692 LINE",
"20 8 LINE",
"105 8 LINE",
"124 135 LINE",
"273 135 LINE",
"292 8 LINE",
"387 8 LINE"
);
},
{
closed = 1;
nodes = (
"198 630 LINE",
"260 214 LINE",
"136 214 LINE"
);
},
{
closed = 1;
nodes = (
"155 745 LINE",
"203 805 LINE",
"252 745 LINE",
"325 745 LINE",
"249 840 LINE",
"158 840 LINE",
"82 745 LINE"
);
}
);
width = 407;
}
);
leftKerningGroup = A;
note = Acircumflex;
unicode = 00C2;
},
{
glyphname = Atilde;
lastChange = "2017-06-10 14:08:23 +0000";
layers = (
{
layerId = "68C61D79-A6B0-463A-BFCB-C5A54C9143A5";
paths = (
{
closed = 1;
nodes = (
"277 692 LINE",
"130 692 LINE",
"20 8 LINE",
"105 8 LINE",
"124 135 LINE",
"273 135 LINE",
"292 8 LINE",
"387 8 LINE"
);
},
{
closed = 1;
nodes = (
"198 630 LINE",
"260 214 LINE",
"136 214 LINE"
);
},
{
closed = 1;
nodes = (
"210 805 OFFCURVE",
"192 830 OFFCURVE",
"153 830 CURVE SMOOTH",
"118 830 OFFCURVE",
"94 812 OFFCURVE",
"78 773 CURVE",
"118 745 LINE",
"129 763 OFFCURVE",
"142 770 OFFCURVE",
"164 770 CURVE SMOOTH",
"197 770 OFFCURVE",
"215 745 OFFCURVE",
"254 745 CURVE SMOOTH",
"289 745 OFFCURVE",
"313 763 OFFCURVE",
"329 802 CURVE",
"289 830 LINE",
"278 812 OFFCURVE",
"265 805 OFFCURVE",
"243 805 CURVE SMOOTH"
);
}
);
width = 407;
}
);
leftKerningGroup = A;
note = Atilde;
unicode = 00C3;
},
{
glyphname = Adieresis;
lastChange = "2017-06-10 14:08:23 +0000";
layers = (
{
layerId = "68C61D79-A6B0-463A-BFCB-C5A54C9143A5";
paths = (
{
closed = 1;
nodes = (
"277 692 LINE",
"130 692 LINE",
"20 8 LINE",
"105 8 LINE",
"124 135 LINE",
"273 135 LINE",
"292 8 LINE",
"387 8 LINE"
);
},
{
closed = 1;
nodes = (
"198 630 LINE",
"260 214 LINE",
"136 214 LINE"
);
},
{
closed = 1;
nodes = (
"87 825 LINE",
"87 745 LINE",
"167 745 LINE",
"167 825 LINE"
);
},
{
closed = 1;
nodes = (
"239 825 LINE",
"239 745 LINE",
"319 745 LINE",
"319 825 LINE"
);
}
);
width = 407;
}
);
leftKerningGroup = A;
note = Adieresis;
unicode = 00C4;
},
{
glyphname = Aring;
lastChange = "2017-06-10 14:08:23 +0000";
layers = (
{
layerId = "68C61D79-A6B0-463A-BFCB-C5A54C9143A5";
paths = (
{
closed = 1;
nodes = (
"277 692 LINE",
"130 692 LINE",
"20 8 LINE",
"105 8 LINE",
"124 135 LINE",
"273 135 LINE",
"292 8 LINE",
"387 8 LINE"
);
},
{
closed = 1;
nodes = (
"198 630 LINE",
"260 214 LINE",
"136 214 LINE"
);
},
{
closed = 1;
nodes = (
"131 773 OFFCURVE",
"162 742 OFFCURVE",
"203 742 CURVE SMOOTH",
"244 742 OFFCURVE",
"275 773 OFFCURVE",
"275 814 CURVE SMOOTH",
"275 855 OFFCURVE",
"244 886 OFFCURVE",
"203 886 CURVE SMOOTH",
"162 886 OFFCURVE",
"131 855 OFFCURVE",
"131 814 CURVE SMOOTH"
);
},
{
closed = 1;
nodes = (
"165 835 OFFCURVE",
"182 852 OFFCURVE",
"203 852 CURVE SMOOTH",
"224 852 OFFCURVE",
"241 835 OFFCURVE",
"241 814 CURVE SMOOTH",
"241 793 OFFCURVE",
"224 776 OFFCURVE",
"203 776 CURVE SMOOTH",
"182 776 OFFCURVE",
"165 793 OFFCURVE",
"165 814 CURVE SMOOTH"
);
}
);
width = 407;
}
);
leftKerningGroup = A;
note = Aring;
unicode = 00C5;
},
{
glyphname = AE;
lastChange = "2017-06-10 14:08:23 +0000";
layers = (
{
layerId = "68C61D79-A6B0-463A-BFCB-C5A54C9143A5";
paths = (
{
closed = 1;
nodes = (
"260 8 LINE",
"544 8 LINE",
"544 92 LINE",
"354 92 LINE",
"354 313 LINE",
"505 313 LINE",
"505 397 LINE",
"354 397 LINE",
"354 608 LINE",
"544 608 LINE",
"544 692 LINE",
"197 692 LINE",
"14 8 LINE",
"103 8 LINE",
"135 135 LINE",
"260 135 LINE"
);
},
{
closed = 1;
nodes = (
"156 214 LINE",
"260 623 LINE",
"260 214 LINE"
);
}
);
width = 580;
}
);
leftKerningGroup = AE;
note = AE;
unicode = 00C6;
},
{
glyphname = Ccedilla;
lastChange = "2017-06-10 14:08:23 +0000";
layers = (
{
layerId = "68C61D79-A6B0-463A-BFCB-C5A54C9143A5";
paths = (
{
closed = 1;
nodes = (
"263 253 LINE",
"263 161 LINE SMOOTH",
"263 111 OFFCURVE",
"241 85 OFFCURVE",
"198 85 CURVE SMOOTH",
"155 85 OFFCURVE",
"133 111 OFFCURVE",
"133 161 CURVE SMOOTH",
"133 539 LINE SMOOTH",
"133 590 OFFCURVE",
"155 616 OFFCURVE",
"198 616 CURVE SMOOTH",
"241 616 OFFCURVE",
"263 590 OFFCURVE",
"263 539 CURVE SMOOTH",
"263 472 LINE",
"351 472 LINE",
"351 532 LINE SMOOTH",
"351 642 OFFCURVE",
"297 700 OFFCURVE",
"195 700 CURVE SMOOTH",
"93 700 OFFCURVE",
"39 642 OFFCURVE",
"39 532 CURVE SMOOTH",
"39 168 LINE SMOOTH",
"39 65 OFFCURVE",
"87 7 OFFCURVE",
"177 1 CURVE",
"177 -49 LINE",
"179 -49 LINE SMOOTH",
"208 -49 OFFCURVE",
"223 -60 OFFCURVE",
"223 -83 CURVE SMOOTH",
"223 -104 OFFCURVE",
"212 -115 OFFCURVE",
"190 -115 CURVE SMOOTH",
"172 -115 OFFCURVE",
"160 -104 OFFCURVE",
"160 -87 CURVE",
"102 -87 LINE",
"102 -89 LINE SMOOTH",
"102 -124 OFFCURVE",
"129 -139 OFFCURVE",
"190 -139 CURVE SMOOTH",
"260 -139 OFFCURVE",
"283 -126 OFFCURVE",
"283 -86 CURVE SMOOTH",
"283 -57 OFFCURVE",
"263 -46 OFFCURVE",
"209 -47 CURVE",
"209 0 LINE",
"301 5 OFFCURVE",
"351 64 OFFCURVE",
"351 168 CURVE SMOOTH",
"351 253 LINE"
);
}
);
width = 386;
}
);
leftKerningGroup = C;
note = Ccedilla;
rightKerningGroup = C;
unicode = 00C7;
},
{
glyphname = Egrave;
lastChange = "2017-06-10 14:08:23 +0000";
layers = (
{
layerId = "68C61D79-A6B0-463A-BFCB-C5A54C9143A5";
paths = (
{
closed = 1;
nodes = (
"142 608 LINE",
"332 608 LINE",
"332 692 LINE",
"48 692 LINE",
"48 8 LINE",
"332 8 LINE",
"332 92 LINE",
"142 92 LINE",
"142 313 LINE",
"293 313 LINE",
"293 397 LINE",
"142 397 LINE"
);
},
{
closed = 1;
nodes = (
"86 840 LINE",
"174 745 LINE",
"235 745 LINE",
"177 840 LINE"
);
}
);
width = 368;
}
);
note = Egrave;
unicode = 00C8;
},
{
glyphname = Eacute;
lastChange = "2017-06-10 14:08:23 +0000";
layers = (
{
layerId = "68C61D79-A6B0-463A-BFCB-C5A54C9143A5";
paths = (
{
closed = 1;
nodes = (
"142 608 LINE",
"332 608 LINE",
"332 692 LINE",
"48 692 LINE",
"48 8 LINE",
"332 8 LINE",
"332 92 LINE",
"142 92 LINE",
"142 313 LINE",
"293 313 LINE",
"293 397 LINE",
"142 397 LINE"
);
},
{
closed = 1;
nodes = (
"203 840 LINE",
"145 745 LINE",
"201 745 LINE",
"289 840 LINE"
);
}
);
width = 368;
}
);
note = Eacute;
unicode = 00C9;
},
{
glyphname = Ecircumflex;
lastChange = "2017-06-10 14:08:23 +0000";
layers = (
{
layerId = "68C61D79-A6B0-463A-BFCB-C5A54C9143A5";
paths = (
{
closed = 1;
nodes = (
"142 608 LINE",
"332 608 LINE",
"332 692 LINE",
"48 692 LINE",
"48 8 LINE",
"332 8 LINE",
"332 92 LINE",
"142 92 LINE",
"142 313 LINE",
"293 313 LINE",
"293 397 LINE",
"142 397 LINE"
);
},
{
closed = 1;
nodes = (
"140 745 LINE",
"188 805 LINE",
"237 745 LINE",
"310 745 LINE",
"234 840 LINE",
"143 840 LINE",
"67 745 LINE"
);
}
);
width = 368;
}
);
note = Ecircumflex;
unicode = 00CA;
},
{
glyphname = Edieresis;
lastChange = "2017-06-10 14:08:23 +0000";
layers = (
{
layerId = "68C61D79-A6B0-463A-BFCB-C5A54C9143A5";
paths = (
{
closed = 1;
nodes = (
"142 608 LINE",
"332 608 LINE",
"332 692 LINE",
"48 692 LINE",
"48 8 LINE",
"332 8 LINE",
"332 92 LINE",
"142 92 LINE",
"142 313 LINE",
"293 313 LINE",
"293 397 LINE",
"142 397 LINE"
);
},
{
closed = 1;
nodes = (
"73 825 LINE",
"73 745 LINE",
"153 745 LINE",
"153 825 LINE"
);
},
{
closed = 1;
nodes = (
"225 825 LINE",
"225 745 LINE",
"305 745 LINE",
"305 825 LINE"
);
}
);
width = 368;
}
);
note = Edieresis;
unicode = 00CB;
},
{
glyphname = Igrave;
lastChange = "2017-06-10 14:08:23 +0000";
layers = (
{
layerId = "68C61D79-A6B0-463A-BFCB-C5A54C9143A5";
paths = (
{
closed = 1;
nodes = (
"48 8 LINE",
"142 8 LINE",
"142 692 LINE",
"48 692 LINE"
);
},
{
closed = 1;
nodes = (
"-7 840 LINE",
"81 745 LINE",
"142 745 LINE",
"84 840 LINE"
);
}
);
width = 190;
}
);
note = Igrave;
unicode = 00CC;
},
{
glyphname = Iacute;
lastChange = "2017-06-10 14:08:23 +0000";
layers = (
{
layerId = "68C61D79-A6B0-463A-BFCB-C5A54C9143A5";
paths = (
{
closed = 1;
nodes = (
"48 8 LINE",
"142 8 LINE",
"142 692 LINE",
"48 692 LINE"
);
},
{
closed = 1;
nodes = (
"109 840 LINE",
"51 745 LINE",
"107 745 LINE",
"195 840 LINE"
);
}
);
width = 190;
}
);
note = Iacute;
unicode = 00CD;
},
{
glyphname = Icircumflex;
lastChange = "2017-06-10 14:08:23 +0000";
layers = (
{
layerId = "68C61D79-A6B0-463A-BFCB-C5A54C9143A5";
paths = (
{
closed = 1;
nodes = (
"48 8 LINE",
"142 8 LINE",
"142 692 LINE",
"48 692 LINE"
);
},
{
closed = 1;
nodes = (
"47 745 LINE",
"95 805 LINE",
"144 745 LINE",
"217 745 LINE",
"141 840 LINE",
"50 840 LINE",
"-26 745 LINE"
);
}
);
width = 190;
}
);
note = Icircumflex;
unicode = 00CE;
},
{
glyphname = Idieresis;
lastChange = "2017-06-10 14:08:23 +0000";
layers = (
{
layerId = "68C61D79-A6B0-463A-BFCB-C5A54C9143A5";
paths = (
{
closed = 1;
nodes = (
"48 8 LINE",
"142 8 LINE",
"142 692 LINE",
"48 692 LINE"
);
},
{
closed = 1;
nodes = (
"-21 825 LINE",
"-21 745 LINE",
"59 745 LINE",
"59 825 LINE"
);
},
{
closed = 1;
nodes = (
"131 825 LINE",
"131 745 LINE",
"211 745 LINE",
"211 825 LINE"
);
}
);
width = 190;
}
);
note = Idieresis;
unicode = 00CF;
},
{
glyphname = Eth;
lastChange = "2017-06-10 14:08:23 +0000";
layers = (
{
layerId = "68C61D79-A6B0-463A-BFCB-C5A54C9143A5";
paths = (
{
closed = 1;
nodes = (
"48 8 LINE",
"214 8 LINE SMOOTH",
"318 8 OFFCURVE",
"370 63 OFFCURVE",
"370 173 CURVE SMOOTH",
"370 527 LINE SMOOTH",
"370 637 OFFCURVE",
"318 692 OFFCURVE",
"214 692 CURVE SMOOTH",
"48 692 LINE",
"48 387 LINE",
"12 387 LINE",
"12 313 LINE",
"48 313 LINE"
);
},
{
closed = 1;
nodes = (
"212 608 LINE SMOOTH",
"255 608 OFFCURVE",
"276 583 OFFCURVE",
"276 532 CURVE SMOOTH",
"276 168 LINE SMOOTH",
"276 117 OFFCURVE",
"255 92 OFFCURVE",
"212 92 CURVE SMOOTH",
"142 92 LINE",
"142 313 LINE",
"210 313 LINE",
"210 387 LINE",
"142 387 LINE",
"142 608 LINE"
);
}
);
width = 408;
}
);
note = Eth;
rightKerningGroup = D;
unicode = 00D0;
},
{
glyphname = Ntilde;
lastChange = "2017-06-10 14:08:23 +0000";
layers = (
{
layerId = "68C61D79-A6B0-463A-BFCB-C5A54C9143A5";
paths = (
{
closed = 1;
nodes = (
"281 8 LINE",
"380 8 LINE",
"380 692 LINE",
"298 692 LINE",
"298 221 LINE",
"171 692 LINE",
"47 692 LINE",
"47 8 LINE",
"130 8 LINE",
"130 567 LINE"
);
},
{
closed = 1;
nodes = (
"220 805 OFFCURVE",
"202 830 OFFCURVE",
"163 830 CURVE SMOOTH",
"128 830 OFFCURVE",
"104 812 OFFCURVE",
"88 773 CURVE",
"128 745 LINE",
"139 763 OFFCURVE",
"152 770 OFFCURVE",
"174 770 CURVE SMOOTH",
"207 770 OFFCURVE",
"225 745 OFFCURVE",
"264 745 CURVE SMOOTH",
"299 745 OFFCURVE",
"323 763 OFFCURVE",
"339 802 CURVE",
"299 830 LINE",
"288 812 OFFCURVE",
"275 805 OFFCURVE",
"253 805 CURVE SMOOTH"
);
}
);
width = 427;
}
);
note = Ntilde;
unicode = 00D1;
},
{
glyphname = Ograve;
lastChange = "2017-06-10 14:08:23 +0000";
layers = (
{
layerId = "68C61D79-A6B0-463A-BFCB-C5A54C9143A5";
paths = (
{
closed = 1;
nodes = (
"133 539 LINE SMOOTH",
"133 590 OFFCURVE",
"155 616 OFFCURVE",
"198 616 CURVE SMOOTH",
"241 616 OFFCURVE",
"263 590 OFFCURVE",
"263 539 CURVE SMOOTH",
"263 161 LINE SMOOTH",
"263 110 OFFCURVE",
"241 84 OFFCURVE",
"198 84 CURVE SMOOTH",
"155 84 OFFCURVE",
"133 110 OFFCURVE",
"133 161 CURVE SMOOTH"
);
},
{
closed = 1;
nodes = (
"39 168 LINE SMOOTH",
"39 59 OFFCURVE",
"95 0 OFFCURVE",
"198 0 CURVE SMOOTH",
"301 0 OFFCURVE",
"357 59 OFFCURVE",
"357 168 CURVE SMOOTH",
"357 532 LINE SMOOTH",
"357 641 OFFCURVE",
"301 700 OFFCURVE",
"198 700 CURVE SMOOTH",
"95 700 OFFCURVE",
"39 641 OFFCURVE",
"39 532 CURVE SMOOTH"
);
},
{
closed = 1;
nodes = (
"95 840 LINE",
"183 745 LINE",
"244 745 LINE",
"186 840 LINE"
);
}
);
width = 396;
}
);
leftKerningGroup = O;
note = Ograve;
rightKerningGroup = O;
unicode = 00D2;
},
{
glyphname = Oacute;
lastChange = "2017-06-10 14:08:23 +0000";
layers = (
{
layerId = "68C61D79-A6B0-463A-BFCB-C5A54C9143A5";
paths = (
{
closed = 1;
nodes = (
"133 539 LINE SMOOTH",
"133 590 OFFCURVE",
"155 616 OFFCURVE",
"198 616 CURVE SMOOTH",
"241 616 OFFCURVE",
"263 590 OFFCURVE",
"263 539 CURVE SMOOTH",
"263 161 LINE SMOOTH",
"263 110 OFFCURVE",
"241 84 OFFCURVE",
"198 84 CURVE SMOOTH",
"155 84 OFFCURVE",
"133 110 OFFCURVE",
"133 161 CURVE SMOOTH"
);
},
{
closed = 1;
nodes = (
"39 168 LINE SMOOTH",
"39 59 OFFCURVE",
"95 0 OFFCURVE",
"198 0 CURVE SMOOTH",
"301 0 OFFCURVE",
"357 59 OFFCURVE",
"357 168 CURVE SMOOTH",
"357 532 LINE SMOOTH",
"357 641 OFFCURVE",
"301 700 OFFCURVE",
"198 700 CURVE SMOOTH",
"95 700 OFFCURVE",
"39 641 OFFCURVE",
"39 532 CURVE SMOOTH"
);
},
{
closed = 1;
nodes = (
"212 840 LINE",
"154 745 LINE",
"210 745 LINE",
"298 840 LINE"
);
}
);
width = 396;
}
);
leftKerningGroup = O;
note = Oacute;
rightKerningGroup = O;
unicode = 00D3;
},
{
glyphname = Ocircumflex;
lastChange = "2017-06-10 14:08:23 +0000";
layers = (
{
layerId = "68C61D79-A6B0-463A-BFCB-C5A54C9143A5";
paths = (
{
closed = 1;
nodes = (
"133 539 LINE SMOOTH",
"133 590 OFFCURVE",
"155 616 OFFCURVE",
"198 616 CURVE SMOOTH",
"241 616 OFFCURVE",
"263 590 OFFCURVE",
"263 539 CURVE SMOOTH",
"263 161 LINE SMOOTH",
"263 110 OFFCURVE",
"241 84 OFFCURVE",
"198 84 CURVE SMOOTH",
"155 84 OFFCURVE",
"133 110 OFFCURVE",
"133 161 CURVE SMOOTH"
);
},
{
closed = 1;
nodes = (
"39 168 LINE SMOOTH",
"39 59 OFFCURVE",
"95 0 OFFCURVE",
"198 0 CURVE SMOOTH",
"301 0 OFFCURVE",
"357 59 OFFCURVE",
"357 168 CURVE SMOOTH",
"357 532 LINE SMOOTH",
"357 641 OFFCURVE",
"301 700 OFFCURVE",
"198 700 CURVE SMOOTH",
"95 700 OFFCURVE",
"39 641 OFFCURVE",
"39 532 CURVE SMOOTH"
);
},
{
closed = 1;
nodes = (
"149 745 LINE",
"197 805 LINE",
"246 745 LINE",
"319 745 LINE",
"243 840 LINE",
"152 840 LINE",
"76 745 LINE"
);
}
);
width = 396;
}
);
leftKerningGroup = O;
note = Ocircumflex;
rightKerningGroup = O;
unicode = 00D4;
},
{
glyphname = Otilde;
lastChange = "2017-06-10 14:08:23 +0000";
layers = (
{
layerId = "68C61D79-A6B0-463A-BFCB-C5A54C9143A5";
paths = (
{
closed = 1;
nodes = (
"133 539 LINE SMOOTH",
"133 590 OFFCURVE",
"155 616 OFFCURVE",
"198 616 CURVE SMOOTH",
"241 616 OFFCURVE",
"263 590 OFFCURVE",
"263 539 CURVE SMOOTH",
"263 161 LINE SMOOTH",
"263 110 OFFCURVE",
"241 84 OFFCURVE",
"198 84 CURVE SMOOTH",
"155 84 OFFCURVE",
"133 110 OFFCURVE",
"133 161 CURVE SMOOTH"
);
},
{
closed = 1;
nodes = (
"39 168 LINE SMOOTH",
"39 59 OFFCURVE",
"95 0 OFFCURVE",
"198 0 CURVE SMOOTH",
"301 0 OFFCURVE",
"357 59 OFFCURVE",
"357 168 CURVE SMOOTH",
"357 532 LINE SMOOTH",
"357 641 OFFCURVE",
"301 700 OFFCURVE",
"198 700 CURVE SMOOTH",
"95 700 OFFCURVE",
"39 641 OFFCURVE",
"39 532 CURVE SMOOTH"
);
},
{
closed = 1;
nodes = (
"205 805 OFFCURVE",
"187 830 OFFCURVE",
"148 830 CURVE SMOOTH",
"113 830 OFFCURVE",
"89 812 OFFCURVE",
"73 773 CURVE",
"113 745 LINE",
"124 763 OFFCURVE",
"137 770 OFFCURVE",
"159 770 CURVE SMOOTH",
"192 770 OFFCURVE",
"210 745 OFFCURVE",
"249 745 CURVE SMOOTH",
"284 745 OFFCURVE",
"308 763 OFFCURVE",
"324 802 CURVE",
"284 830 LINE",
"273 812 OFFCURVE",
"260 805 OFFCURVE",
"238 805 CURVE SMOOTH"
);
}
);
width = 396;
}
);
leftKerningGroup = O;
note = Otilde;
rightKerningGroup = O;
unicode = 00D5;
},
{
glyphname = Odieresis;
lastChange = "2017-06-10 14:08:23 +0000";
layers = (
{
layerId = "68C61D79-A6B0-463A-BFCB-C5A54C9143A5";
paths = (
{
closed = 1;
nodes = (
"133 539 LINE SMOOTH",
"133 590 OFFCURVE",
"155 616 OFFCURVE",
"198 616 CURVE SMOOTH",
"241 616 OFFCURVE",
"263 590 OFFCURVE",
"263 539 CURVE SMOOTH",
"263 161 LINE SMOOTH",
"263 110 OFFCURVE",
"241 84 OFFCURVE",
"198 84 CURVE SMOOTH",
"155 84 OFFCURVE",
"133 110 OFFCURVE",
"133 161 CURVE SMOOTH"
);
},
{
closed = 1;
nodes = (
"39 168 LINE SMOOTH",
"39 59 OFFCURVE",
"95 0 OFFCURVE",
"198 0 CURVE SMOOTH",
"301 0 OFFCURVE",
"357 59 OFFCURVE",
"357 168 CURVE SMOOTH",
"357 532 LINE SMOOTH",
"357 641 OFFCURVE",
"301 700 OFFCURVE",
"198 700 CURVE SMOOTH",
"95 700 OFFCURVE",
"39 641 OFFCURVE",
"39 532 CURVE SMOOTH"
);
},
{
closed = 1;
nodes = (
"82 825 LINE",
"82 745 LINE",
"162 745 LINE",
"162 825 LINE"
);
},
{
closed = 1;
nodes = (
"234 825 LINE",
"234 745 LINE",
"314 745 LINE",
"314 825 LINE"
);
}
);
width = 396;
}
);
leftKerningGroup = O;
note = Odieresis;
rightKerningGroup = O;
unicode = 00D6;
},
{
glyphname = multiply;
lastChange = "2017-06-10 14:08:23 +0000";
layers = (
{
layerId = "68C61D79-A6B0-463A-BFCB-C5A54C9143A5";
paths = (
{
closed = 1;
nodes = (
"92 497 LINE",
"50 455 LINE",
"155 350 LINE",
"49 244 LINE",
"91 202 LINE",
"198 308 LINE",
"304 202 LINE",
"346 244 LINE",
"240 350 LINE",
"346 456 LINE",
"304 498 LINE",
"198 392 LINE"
);
}
);
width = 396;
}
);
note = multiply;
unicode = 00D7;
},
{
glyphname = Oslash;
lastChange = "2017-06-10 14:08:23 +0000";
layers = (
{
layerId = "68C61D79-A6B0-463A-BFCB-C5A54C9143A5";
paths = (
{
closed = 1;
nodes = (
"51 -19 LINE",
"73 -27 LINE",
"94 30 LINE",
"119 10 OFFCURVE",
"153 0 OFFCURVE",
"198 0 CURVE SMOOTH",
"301 0 OFFCURVE",
"357 59 OFFCURVE",
"357 168 CURVE SMOOTH",
"357 532 LINE SMOOTH",
"357 584 OFFCURVE",
"344 624 OFFCURVE",
"320 651 CURVE",
"345 719 LINE",
"323 727 LINE",
"302 669 LINE",
"276 689 OFFCURVE",
"241 700 OFFCURVE",
"198 700 CURVE SMOOTH",
"95 700 OFFCURVE",
"39 641 OFFCURVE",
"39 532 CURVE SMOOTH",
"39 168 LINE SMOOTH",
"39 117 OFFCURVE",
"51 76 OFFCURVE",
"75 47 CURVE"
);
},
{
closed = 1;
nodes = (
"133 539 LINE SMOOTH",
"133 590 OFFCURVE",
"155 616 OFFCURVE",
"198 616 CURVE SMOOTH",
"234 616 OFFCURVE",
"257 596 OFFCURVE",
"261 559 CURVE",
"133 205 LINE"
);
},
{
closed = 1;
nodes = (
"161 84 OFFCURVE",
"140 103 OFFCURVE",
"134 141 CURVE",
"263 494 LINE",
"263 161 LINE SMOOTH",
"263 110 OFFCURVE",
"241 84 OFFCURVE",
"198 84 CURVE SMOOTH"
);
}
);
width = 396;
}
);
leftKerningGroup = O;
note = Oslash;
rightKerningGroup = O;
unicode = 00D8;
},
{
glyphname = Ugrave;
lastChange = "2017-06-10 14:08:23 +0000";
layers = (
{
layerId = "68C61D79-A6B0-463A-BFCB-C5A54C9143A5";
paths = (
{
closed = 1;
nodes = (
"43 692 LINE",
"43 167 LINE SMOOTH",
"43 57 OFFCURVE",
"97 -1 OFFCURVE",
"199 -1 CURVE SMOOTH",
"301 -1 OFFCURVE",
"355 57 OFFCURVE",
"355 167 CURVE SMOOTH",
"355 692 LINE",
"267 692 LINE",
"267 160 LINE SMOOTH",
"267 110 OFFCURVE",
"245 84 OFFCURVE",
"202 84 CURVE SMOOTH",
"159 84 OFFCURVE",
"137 110 OFFCURVE",
"137 160 CURVE SMOOTH",
"137 692 LINE"
);
},
{
closed = 1;
nodes = (
"97 840 LINE",
"185 745 LINE",
"246 745 LINE",
"188 840 LINE"
);
}
);
width = 398;
}
);
leftKerningGroup = U;
note = Ugrave;
rightKerningGroup = U;
unicode = 00D9;
},
{
glyphname = Uacute;
lastChange = "2017-06-10 14:08:23 +0000";
layers = (
{
layerId = "68C61D79-A6B0-463A-BFCB-C5A54C9143A5";
paths = (
{
closed = 1;
nodes = (
"43 692 LINE",
"43 167 LINE SMOOTH",
"43 57 OFFCURVE",
"97 -1 OFFCURVE",
"199 -1 CURVE SMOOTH",
"301 -1 OFFCURVE",
"355 57 OFFCURVE",
"355 167 CURVE SMOOTH",
"355 692 LINE",
"267 692 LINE",
"267 160 LINE SMOOTH",
"267 110 OFFCURVE",
"245 84 OFFCURVE",
"202 84 CURVE SMOOTH",
"159 84 OFFCURVE",
"137 110 OFFCURVE",
"137 160 CURVE SMOOTH",
"137 692 LINE"
);
},
{
closed = 1;
nodes = (
"214 840 LINE",
"156 745 LINE",
"212 745 LINE",
"300 840 LINE"
);
}
);
width = 398;
}
);
leftKerningGroup = U;
note = Uacute;
rightKerningGroup = U;
unicode = 00DA;
},
{
glyphname = Ucircumflex;
lastChange = "2017-06-10 14:08:23 +0000";
layers = (
{
layerId = "68C61D79-A6B0-463A-BFCB-C5A54C9143A5";
paths = (
{
closed = 1;
nodes = (
"43 692 LINE",
"43 167 LINE SMOOTH",
"43 57 OFFCURVE",
"97 -1 OFFCURVE",
"199 -1 CURVE SMOOTH",
"301 -1 OFFCURVE",
"355 57 OFFCURVE",
"355 167 CURVE SMOOTH",
"355 692 LINE",
"267 692 LINE",
"267 160 LINE SMOOTH",
"267 110 OFFCURVE",
"245 84 OFFCURVE",
"202 84 CURVE SMOOTH",
"159 84 OFFCURVE",
"137 110 OFFCURVE",
"137 160 CURVE SMOOTH",
"137 692 LINE"
);
},
{
closed = 1;
nodes = (
"152 745 LINE",
"200 805 LINE",
"249 745 LINE",
"322 745 LINE",
"246 840 LINE",
"155 840 LINE",
"79 745 LINE"
);
}
);
width = 398;
}
);
leftKerningGroup = U;
note = Ucircumflex;
rightKerningGroup = U;
unicode = 00DB;
},
{
glyphname = Udieresis;
lastChange = "2017-06-10 14:08:23 +0000";
layers = (
{
layerId = "68C61D79-A6B0-463A-BFCB-C5A54C9143A5";
paths = (
{
closed = 1;
nodes = (
"43 692 LINE",
"43 167 LINE SMOOTH",
"43 57 OFFCURVE",
"97 -1 OFFCURVE",
"199 -1 CURVE SMOOTH",
"301 -1 OFFCURVE",
"355 57 OFFCURVE",
"355 167 CURVE SMOOTH",
"355 692 LINE",
"267 692 LINE",
"267 160 LINE SMOOTH",
"267 110 OFFCURVE",
"245 84 OFFCURVE",
"202 84 CURVE SMOOTH",
"159 84 OFFCURVE",
"137 110 OFFCURVE",
"137 160 CURVE SMOOTH",
"137 692 LINE"
);
},
{
closed = 1;
nodes = (
"85 825 LINE",
"85 745 LINE",
"165 745 LINE",
"165 825 LINE"
);
},
{
closed = 1;
nodes = (
"237 825 LINE",
"237 745 LINE",
"317 745 LINE",
"317 825 LINE"
);
}
);
width = 398;
}
);
leftKerningGroup = U;
note = Udieresis;
rightKerningGroup = U;
unicode = 00DC;
},
{
glyphname = Yacute;
lastChange = "2017-06-10 14:08:23 +0000";
layers = (
{
layerId = "68C61D79-A6B0-463A-BFCB-C5A54C9143A5";
paths = (
{
closed = 1;
nodes = (
"151 8 LINE",
"245 8 LINE",
"245 233 LINE",
"381 692 LINE",
"293 692 LINE",
"203 350 LINE",
"113 692 LINE",
"15 692 LINE",
"151 233 LINE"
);
},
{
closed = 1;
nodes = (
"216 840 LINE",
"158 745 LINE",
"214 745 LINE",
"302 840 LINE"
);
}
);
width = 396;
}
);
leftKerningGroup = Y;
note = Yacute;
rightKerningGroup = Y;
unicode = 00DD;
},
{
glyphname = Thorn;
lastChange = "2017-06-10 14:08:23 +0000";
layers = (
{
layerId = "68C61D79-A6B0-463A-BFCB-C5A54C9143A5";
paths = (
{
closed = 1;
nodes = (
"48 8 LINE",
"142 8 LINE",
"142 191 LINE",
"202 191 LINE SMOOTH",
"306 191 OFFCURVE",
"358 246 OFFCURVE",
"358 356 CURVE SMOOTH",
"358 447 LINE SMOOTH",
"358 557 OFFCURVE",
"306 612 OFFCURVE",
"202 612 CURVE SMOOTH",
"142 612 LINE",
"142 692 LINE",
"48 692 LINE"
);
},
{
closed = 1;
nodes = (
"202 528 LINE SMOOTH",
"245 528 OFFCURVE",
"264 505 OFFCURVE",
"264 454 CURVE SMOOTH",
"264 349 LINE SMOOTH",
"264 298 OFFCURVE",
"245 275 OFFCURVE",
"202 275 CURVE SMOOTH",
"142 275 LINE",
"142 528 LINE"
);
}
);
width = 377;
}
);
note = Thorn;
unicode = 00DE;
},
{
glyphname = germandbls;
lastChange = "2017-06-10 14:08:23 +0000";
layers = (
{
layerId = "68C61D79-A6B0-463A-BFCB-C5A54C9143A5";
paths = (
{
closed = 1;
nodes = (
"34 338 OFFCURVE",
"249 312 OFFCURVE",
"249 161 CURVE SMOOTH",
"249 111 OFFCURVE",
"227 85 OFFCURVE",
"184 85 CURVE SMOOTH",
"141 85 OFFCURVE",
"119 111 OFFCURVE",
"119 161 CURVE SMOOTH",
"119 203 LINE",
"31 203 LINE",
"31 168 LINE SMOOTH",
"31 58 OFFCURVE",
"85 0 OFFCURVE",
"187 0 CURVE SMOOTH",
"289 0 OFFCURVE",
"343 58 OFFCURVE",
"343 168 CURVE SMOOTH",
"343 362 OFFCURVE",
"128 388 OFFCURVE",
"128 539 CURVE SMOOTH",
"128 590 OFFCURVE",
"149 616 OFFCURVE",
"191 616 CURVE SMOOTH",
"233 616 OFFCURVE",
"254 590 OFFCURVE",
"254 539 CURVE SMOOTH",
"254 518 LINE",
"342 518 LINE",
"342 532 LINE SMOOTH",
"342 642 OFFCURVE",
"289 700 OFFCURVE",
"188 700 CURVE SMOOTH",
"87 700 OFFCURVE",
"34 642 OFFCURVE",
"34 532 CURVE SMOOTH"
);
},
{
closed = 1;
nodes = (
"408 338 OFFCURVE",
"623 312 OFFCURVE",
"623 161 CURVE SMOOTH",
"623 111 OFFCURVE",
"601 85 OFFCURVE",
"558 85 CURVE SMOOTH",
"515 85 OFFCURVE",
"493 111 OFFCURVE",
"493 161 CURVE SMOOTH",
"493 203 LINE",
"405 203 LINE",
"405 168 LINE SMOOTH",
"405 58 OFFCURVE",
"459 0 OFFCURVE",
"561 0 CURVE SMOOTH",
"663 0 OFFCURVE",
"717 58 OFFCURVE",
"717 168 CURVE SMOOTH",
"717 362 OFFCURVE",
"502 388 OFFCURVE",
"502 539 CURVE SMOOTH",
"502 590 OFFCURVE",
"523 616 OFFCURVE",
"565 616 CURVE SMOOTH",
"607 616 OFFCURVE",
"628 590 OFFCURVE",
"628 539 CURVE SMOOTH",
"628 518 LINE",
"716 518 LINE",
"716 532 LINE SMOOTH",
"716 642 OFFCURVE",
"663 700 OFFCURVE",
"562 700 CURVE SMOOTH",
"461 700 OFFCURVE",
"408 642 OFFCURVE",
"408 532 CURVE SMOOTH"
);
}
);
width = 748;
}
);
leftKerningGroup = s;
note = germandbls;
rightKerningGroup = s;
unicode = 00DF;
},
{
glyphname = agrave;
lastChange = "2017-06-10 14:08:23 +0000";
layers = (
{
layerId = "68C61D79-A6B0-463A-BFCB-C5A54C9143A5";
paths = (
{
closed = 1;
nodes = (
"277 692 LINE",
"130 692 LINE",
"20 8 LINE",
"105 8 LINE",
"124 135 LINE",
"273 135 LINE",
"292 8 LINE",
"387 8 LINE"
);
},
{
closed = 1;
nodes = (
"198 630 LINE",
"260 214 LINE",
"136 214 LINE"
);
},
{
closed = 1;
nodes = (
"101 840 LINE",
"189 745 LINE",
"250 745 LINE",
"192 840 LINE"
);
}
);
width = 407;
}
);
leftKerningGroup = a;
note = agrave;
rightKerningGroup = a;
unicode = 00E0;
},
{
glyphname = aacute;
lastChange = "2017-06-10 14:08:23 +0000";
layers = (
{
layerId = "68C61D79-A6B0-463A-BFCB-C5A54C9143A5";
paths = (
{
closed = 1;
nodes = (
"277 692 LINE",
"130 692 LINE",
"20 8 LINE",
"105 8 LINE",
"124 135 LINE",
"273 135 LINE",
"292 8 LINE",
"387 8 LINE"
);
},
{
closed = 1;
nodes = (
"198 630 LINE",
"260 214 LINE",
"136 214 LINE"
);
},
{
closed = 1;
nodes = (
"217 840 LINE",
"159 745 LINE",
"215 745 LINE",
"303 840 LINE"
);
}
);
width = 407;
}
);
leftKerningGroup = a;
note = aacute;
rightKerningGroup = a;
unicode = 00E1;
},
{
glyphname = acircumflex;
lastChange = "2017-06-10 14:08:23 +0000";
layers = (
{
layerId = "68C61D79-A6B0-463A-BFCB-C5A54C9143A5";
paths = (
{
closed = 1;
nodes = (
"277 692 LINE",
"130 692 LINE",
"20 8 LINE",
"105 8 LINE",
"124 135 LINE",
"273 135 LINE",
"292 8 LINE",
"387 8 LINE"
);
},
{
closed = 1;
nodes = (
"198 630 LINE",
"260 214 LINE",
"136 214 LINE"
);
},
{
closed = 1;
nodes = (
"155 745 LINE",
"203 805 LINE",
"252 745 LINE",
"325 745 LINE",
"249 840 LINE",
"158 840 LINE",
"82 745 LINE"
);
}
);
width = 407;
}
);
leftKerningGroup = a;
note = acircumflex;
rightKerningGroup = a;
unicode = 00E2;
},
{
glyphname = atilde;
lastChange = "2017-06-10 14:08:23 +0000";
layers = (
{
layerId = "68C61D79-A6B0-463A-BFCB-C5A54C9143A5";
paths = (
{
closed = 1;
nodes = (
"277 692 LINE",
"130 692 LINE",
"20 8 LINE",
"105 8 LINE",
"124 135 LINE",
"273 135 LINE",
"292 8 LINE",
"387 8 LINE"
);
},
{
closed = 1;
nodes = (
"198 630 LINE",
"260 214 LINE",
"136 214 LINE"
);
},
{
closed = 1;
nodes = (
"210 805 OFFCURVE",
"192 830 OFFCURVE",
"153 830 CURVE SMOOTH",
"118 830 OFFCURVE",
"94 812 OFFCURVE",
"78 773 CURVE",
"118 745 LINE",
"129 763 OFFCURVE",
"142 770 OFFCURVE",
"164 770 CURVE SMOOTH",
"197 770 OFFCURVE",
"215 745 OFFCURVE",
"254 745 CURVE SMOOTH",
"289 745 OFFCURVE",
"313 763 OFFCURVE",
"329 802 CURVE",
"289 830 LINE",
"278 812 OFFCURVE",
"265 805 OFFCURVE",
"243 805 CURVE SMOOTH"
);
}
);
width = 407;
}
);
leftKerningGroup = a;
note = atilde;
rightKerningGroup = a;
unicode = 00E3;
},
{
glyphname = adieresis;
lastChange = "2017-06-10 14:08:23 +0000";
layers = (
{
layerId = "68C61D79-A6B0-463A-BFCB-C5A54C9143A5";
paths = (
{
closed = 1;
nodes = (
"277 692 LINE",
"130 692 LINE",
"20 8 LINE",
"105 8 LINE",
"124 135 LINE",
"273 135 LINE",
"292 8 LINE",
"387 8 LINE"
);
},
{
closed = 1;
nodes = (
"198 630 LINE",
"260 214 LINE",
"136 214 LINE"
);
},
{
closed = 1;
nodes = (
"87 825 LINE",
"87 745 LINE",
"167 745 LINE",
"167 825 LINE"
);
},
{
closed = 1;
nodes = (
"239 825 LINE",
"239 745 LINE",
"319 745 LINE",
"319 825 LINE"
);
}
);
width = 407;
}
);
leftKerningGroup = a;
note = adieresis;
rightKerningGroup = a;
unicode = 00E4;
},
{
glyphname = aring;
lastChange = "2017-06-10 14:08:23 +0000";
layers = (
{
layerId = "68C61D79-A6B0-463A-BFCB-C5A54C9143A5";
paths = (
{
closed = 1;
nodes = (
"277 692 LINE",
"130 692 LINE",
"20 8 LINE",
"105 8 LINE",
"124 135 LINE",
"273 135 LINE",
"292 8 LINE",
"387 8 LINE"
);
},
{
closed = 1;
nodes = (
"198 630 LINE",
"260 214 LINE",
"136 214 LINE"
);
},
{
closed = 1;
nodes = (
"131 773 OFFCURVE",
"162 742 OFFCURVE",
"203 742 CURVE SMOOTH",
"244 742 OFFCURVE",
"275 773 OFFCURVE",
"275 814 CURVE SMOOTH",
"275 855 OFFCURVE",
"244 886 OFFCURVE",
"203 886 CURVE SMOOTH",
"162 886 OFFCURVE",
"131 855 OFFCURVE",
"131 814 CURVE SMOOTH"
);
},
{
closed = 1;
nodes = (
"165 835 OFFCURVE",
"182 852 OFFCURVE",
"203 852 CURVE SMOOTH",
"224 852 OFFCURVE",
"241 835 OFFCURVE",
"241 814 CURVE SMOOTH",
"241 793 OFFCURVE",
"224 776 OFFCURVE",
"203 776 CURVE SMOOTH",
"182 776 OFFCURVE",
"165 793 OFFCURVE",
"165 814 CURVE SMOOTH"
);
}
);
width = 407;
}
);
leftKerningGroup = a;
note = aring;
rightKerningGroup = a;
unicode = 00E5;
},
{
glyphname = ae;
lastChange = "2017-06-10 14:08:23 +0000";
layers = (
{
layerId = "68C61D79-A6B0-463A-BFCB-C5A54C9143A5";
paths = (
{
closed = 1;
nodes = (
"354 608 LINE",
"544 608 LINE",
"544 692 LINE",
"197 692 LINE",
"14 8 LINE",
"103 8 LINE",
"135 135 LINE",
"260 135 LINE",
"260 8 LINE",
"544 8 LINE",
"544 92 LINE",
"354 92 LINE",
"354 313 LINE",
"505 313 LINE",
"505 397 LINE",
"354 397 LINE"
);
},
{
closed = 1;
nodes = (
"156 214 LINE",
"260 623 LINE",
"260 214 LINE"
);
}
);
width = 580;
}
);
leftKerningGroup = ae;
note = ae;
unicode = 00E6;
},
{
glyphname = ccedilla;
lastChange = "2017-06-10 14:08:23 +0000";
layers = (
{
layerId = "68C61D79-A6B0-463A-BFCB-C5A54C9143A5";
paths = (
{
closed = 1;
nodes = (
"263 253 LINE",
"263 161 LINE SMOOTH",
"263 111 OFFCURVE",
"241 85 OFFCURVE",
"198 85 CURVE SMOOTH",
"155 85 OFFCURVE",
"133 111 OFFCURVE",
"133 161 CURVE SMOOTH",
"133 539 LINE SMOOTH",
"133 590 OFFCURVE",
"155 616 OFFCURVE",
"198 616 CURVE SMOOTH",
"241 616 OFFCURVE",
"263 590 OFFCURVE",
"263 539 CURVE SMOOTH",
"263 472 LINE",
"351 472 LINE",
"351 532 LINE SMOOTH",
"351 642 OFFCURVE",
"297 700 OFFCURVE",
"195 700 CURVE SMOOTH",
"93 700 OFFCURVE",
"39 642 OFFCURVE",
"39 532 CURVE SMOOTH",
"39 168 LINE SMOOTH",
"39 65 OFFCURVE",
"87 7 OFFCURVE",
"177 1 CURVE",
"177 -49 LINE",
"179 -49 LINE SMOOTH",
"208 -49 OFFCURVE",
"223 -60 OFFCURVE",
"223 -83 CURVE SMOOTH",
"223 -104 OFFCURVE",
"212 -115 OFFCURVE",
"190 -115 CURVE SMOOTH",
"172 -115 OFFCURVE",
"160 -104 OFFCURVE",
"160 -87 CURVE",
"102 -87 LINE",
"102 -89 LINE SMOOTH",
"102 -124 OFFCURVE",
"129 -139 OFFCURVE",
"190 -139 CURVE SMOOTH",
"260 -139 OFFCURVE",
"283 -126 OFFCURVE",
"283 -86 CURVE SMOOTH",
"283 -57 OFFCURVE",
"263 -46 OFFCURVE",
"209 -47 CURVE",
"209 0 LINE",
"301 5 OFFCURVE",
"351 64 OFFCURVE",
"351 168 CURVE SMOOTH",
"351 253 LINE"
);
}
);
width = 386;
}
);
leftKerningGroup = c;
note = ccedilla;
rightKerningGroup = c;
unicode = 00E7;
},
{
glyphname = egrave;
lastChange = "2017-06-10 14:08:23 +0000";
layers = (
{
layerId = "68C61D79-A6B0-463A-BFCB-C5A54C9143A5";
paths = (
{
closed = 1;
nodes = (
"142 608 LINE",
"332 608 LINE",
"332 692 LINE",
"48 692 LINE",
"48 8 LINE",
"332 8 LINE",
"332 92 LINE",
"142 92 LINE",
"142 313 LINE",
"293 313 LINE",
"293 397 LINE",
"142 397 LINE"
);
},
{
closed = 1;
nodes = (
"86 840 LINE",
"174 745 LINE",
"235 745 LINE",
"177 840 LINE"
);
}
);
width = 368;
}
);
note = egrave;
unicode = 00E8;
},
{
glyphname = eacute;
lastChange = "2017-06-10 14:08:23 +0000";
layers = (
{
layerId = "68C61D79-A6B0-463A-BFCB-C5A54C9143A5";
paths = (
{
closed = 1;
nodes = (
"142 608 LINE",
"332 608 LINE",
"332 692 LINE",
"48 692 LINE",
"48 8 LINE",
"332 8 LINE",
"332 92 LINE",
"142 92 LINE",
"142 313 LINE",
"293 313 LINE",
"293 397 LINE",
"142 397 LINE"
);
},
{
closed = 1;
nodes = (
"203 840 LINE",
"145 745 LINE",
"201 745 LINE",
"289 840 LINE"
);
}
);
width = 368;
}
);
note = eacute;
unicode = 00E9;
},
{
glyphname = ecircumflex;
lastChange = "2017-06-10 14:08:23 +0000";
layers = (
{
layerId = "68C61D79-A6B0-463A-BFCB-C5A54C9143A5";
paths = (
{
closed = 1;
nodes = (
"142 608 LINE",
"332 608 LINE",
"332 692 LINE",
"48 692 LINE",
"48 8 LINE",
"332 8 LINE",
"332 92 LINE",
"142 92 LINE",
"142 313 LINE",
"293 313 LINE",
"293 397 LINE",
"142 397 LINE"
);
},
{
closed = 1;
nodes = (
"140 745 LINE",
"188 805 LINE",
"237 745 LINE",
"310 745 LINE",
"234 840 LINE",
"143 840 LINE",
"67 745 LINE"
);
}
);
width = 368;
}
);
note = ecircumflex;
unicode = 00EA;
},
{
glyphname = edieresis;
lastChange = "2017-06-10 14:08:23 +0000";
layers = (
{
layerId = "68C61D79-A6B0-463A-BFCB-C5A54C9143A5";
paths = (
{
closed = 1;
nodes = (
"142 608 LINE",
"332 608 LINE",
"332 692 LINE",
"48 692 LINE",
"48 8 LINE",
"332 8 LINE",
"332 92 LINE",
"142 92 LINE",
"142 313 LINE",
"293 313 LINE",
"293 397 LINE",
"142 397 LINE"
);
},
{
closed = 1;
nodes = (
"73 825 LINE",
"73 745 LINE",
"153 745 LINE",
"153 825 LINE"
);
},
{
closed = 1;
nodes = (
"225 825 LINE",
"225 745 LINE",
"305 745 LINE",
"305 825 LINE"
);
}
);
width = 368;
}
);
note = edieresis;
unicode = 00EB;
},
{
glyphname = igrave;
lastChange = "2017-06-10 14:08:23 +0000";
layers = (
{
layerId = "68C61D79-A6B0-463A-BFCB-C5A54C9143A5";
paths = (
{
closed = 1;
nodes = (
"48 8 LINE",
"142 8 LINE",
"142 692 LINE",
"48 692 LINE"
);
},
{
closed = 1;
nodes = (
"-7 840 LINE",
"81 745 LINE",
"142 745 LINE",
"84 840 LINE"
);
}
);
width = 190;
}
);
note = igrave;
unicode = 00EC;
},
{
glyphname = iacute;
lastChange = "2017-06-10 14:08:23 +0000";
layers = (
{
layerId = "68C61D79-A6B0-463A-BFCB-C5A54C9143A5";
paths = (
{
closed = 1;
nodes = (
"48 8 LINE",
"142 8 LINE",
"142 692 LINE",
"48 692 LINE"
);
},
{
closed = 1;
nodes = (
"109 840 LINE",
"51 745 LINE",
"107 745 LINE",
"195 840 LINE"
);
}
);
width = 190;
}
);
note = iacute;
unicode = 00ED;
},
{
glyphname = icircumflex;
lastChange = "2017-06-10 14:08:23 +0000";
layers = (
{
layerId = "68C61D79-A6B0-463A-BFCB-C5A54C9143A5";
paths = (
{
closed = 1;
nodes = (
"48 8 LINE",
"142 8 LINE",
"142 692 LINE",
"48 692 LINE"
);
},
{
closed = 1;
nodes = (
"47 745 LINE",
"95 805 LINE",
"144 745 LINE",
"217 745 LINE",
"141 840 LINE",
"50 840 LINE",
"-26 745 LINE"
);
}
);
width = 190;
}
);
note = icircumflex;
unicode = 00EE;
},
{
glyphname = idieresis;
lastChange = "2017-06-10 14:08:23 +0000";
layers = (
{
layerId = "68C61D79-A6B0-463A-BFCB-C5A54C9143A5";
paths = (
{
closed = 1;
nodes = (
"48 8 LINE",
"142 8 LINE",
"142 692 LINE",
"48 692 LINE"
);
},
{
closed = 1;
nodes = (
"-21 825 LINE",
"-21 745 LINE",
"59 745 LINE",
"59 825 LINE"
);
},
{
closed = 1;
nodes = (
"131 825 LINE",
"131 745 LINE",
"211 745 LINE",
"211 825 LINE"
);
}
);
width = 190;
}
);
note = idieresis;
unicode = 00EF;
},
{
glyphname = eth;
lastChange = "2017-06-10 14:08:23 +0000";
layers = (
{
layerId = "68C61D79-A6B0-463A-BFCB-C5A54C9143A5";
paths = (
{
closed = 1;
nodes = (
"48 8 LINE",
"214 8 LINE SMOOTH",
"318 8 OFFCURVE",
"370 63 OFFCURVE",
"370 173 CURVE SMOOTH",
"370 527 LINE SMOOTH",
"370 637 OFFCURVE",
"318 692 OFFCURVE",
"214 692 CURVE SMOOTH",
"48 692 LINE",
"48 387 LINE",
"12 387 LINE",
"12 313 LINE",
"48 313 LINE"
);
},
{
closed = 1;
nodes = (
"212 608 LINE SMOOTH",
"255 608 OFFCURVE",
"276 583 OFFCURVE",
"276 532 CURVE SMOOTH",
"276 168 LINE SMOOTH",
"276 117 OFFCURVE",
"255 92 OFFCURVE",
"212 92 CURVE SMOOTH",
"142 92 LINE",
"142 313 LINE",
"210 313 LINE",
"210 387 LINE",
"142 387 LINE",
"142 608 LINE"
);
}
);
width = 408;
}
);
note = eth;
rightKerningGroup = d;
unicode = 00F0;
},
{
glyphname = ntilde;
lastChange = "2017-06-10 14:08:23 +0000";
layers = (
{
layerId = "68C61D79-A6B0-463A-BFCB-C5A54C9143A5";
paths = (
{
closed = 1;
nodes = (
"281 8 LINE",
"380 8 LINE",
"380 692 LINE",
"298 692 LINE",
"298 221 LINE",
"171 692 LINE",
"47 692 LINE",
"47 8 LINE",
"130 8 LINE",
"130 567 LINE"
);
},
{
closed = 1;
nodes = (
"220 805 OFFCURVE",
"202 830 OFFCURVE",
"163 830 CURVE SMOOTH",
"128 830 OFFCURVE",
"104 812 OFFCURVE",
"88 773 CURVE",
"128 745 LINE",
"139 763 OFFCURVE",
"152 770 OFFCURVE",
"174 770 CURVE SMOOTH",
"207 770 OFFCURVE",
"225 745 OFFCURVE",
"264 745 CURVE SMOOTH",
"299 745 OFFCURVE",
"323 763 OFFCURVE",
"339 802 CURVE",
"299 830 LINE",
"288 812 OFFCURVE",
"275 805 OFFCURVE",
"253 805 CURVE SMOOTH"
);
}
);
width = 427;
}
);
note = ntilde;
unicode = 00F1;
},
{
glyphname = ograve;
lastChange = "2017-06-10 14:08:23 +0000";
layers = (
{
layerId = "68C61D79-A6B0-463A-BFCB-C5A54C9143A5";
paths = (
{
closed = 1;
nodes = (
"133 539 LINE SMOOTH",
"133 590 OFFCURVE",
"155 616 OFFCURVE",
"198 616 CURVE SMOOTH",
"241 616 OFFCURVE",
"263 590 OFFCURVE",
"263 539 CURVE SMOOTH",
"263 161 LINE SMOOTH",
"263 110 OFFCURVE",
"241 84 OFFCURVE",
"198 84 CURVE SMOOTH",
"155 84 OFFCURVE",
"133 110 OFFCURVE",
"133 161 CURVE SMOOTH"
);
},
{
closed = 1;
nodes = (
"39 168 LINE SMOOTH",
"39 59 OFFCURVE",
"95 0 OFFCURVE",
"198 0 CURVE SMOOTH",
"301 0 OFFCURVE",
"357 59 OFFCURVE",
"357 168 CURVE SMOOTH",
"357 532 LINE SMOOTH",
"357 641 OFFCURVE",
"301 700 OFFCURVE",
"198 700 CURVE SMOOTH",
"95 700 OFFCURVE",
"39 641 OFFCURVE",
"39 532 CURVE SMOOTH"
);
},
{
closed = 1;
nodes = (
"95 840 LINE",
"183 745 LINE",
"244 745 LINE",
"186 840 LINE"
);
}
);
width = 396;
}
);
leftKerningGroup = o;
note = ograve;
rightKerningGroup = o;
unicode = 00F2;
},
{
glyphname = oacute;
lastChange = "2017-06-10 14:08:23 +0000";
layers = (
{
layerId = "68C61D79-A6B0-463A-BFCB-C5A54C9143A5";
paths = (
{
closed = 1;
nodes = (
"133 539 LINE SMOOTH",
"133 590 OFFCURVE",
"155 616 OFFCURVE",
"198 616 CURVE SMOOTH",
"241 616 OFFCURVE",
"263 590 OFFCURVE",
"263 539 CURVE SMOOTH",
"263 161 LINE SMOOTH",
"263 110 OFFCURVE",
"241 84 OFFCURVE",
"198 84 CURVE SMOOTH",
"155 84 OFFCURVE",
"133 110 OFFCURVE",
"133 161 CURVE SMOOTH"
);
},
{
closed = 1;
nodes = (
"39 168 LINE SMOOTH",
"39 59 OFFCURVE",
"95 0 OFFCURVE",
"198 0 CURVE SMOOTH",
"301 0 OFFCURVE",
"357 59 OFFCURVE",
"357 168 CURVE SMOOTH",
"357 532 LINE SMOOTH",
"357 641 OFFCURVE",
"301 700 OFFCURVE",
"198 700 CURVE SMOOTH",
"95 700 OFFCURVE",
"39 641 OFFCURVE",
"39 532 CURVE SMOOTH"
);
},
{
closed = 1;
nodes = (
"212 840 LINE",
"154 745 LINE",
"210 745 LINE",
"298 840 LINE"
);
}
);
width = 396;
}
);
leftKerningGroup = o;
note = oacute;
rightKerningGroup = o;
unicode = 00F3;
},
{
glyphname = ocircumflex;
lastChange = "2017-06-10 14:08:23 +0000";
layers = (
{
layerId = "68C61D79-A6B0-463A-BFCB-C5A54C9143A5";
paths = (
{
closed = 1;
nodes = (
"133 539 LINE SMOOTH",
"133 590 OFFCURVE",
"155 616 OFFCURVE",
"198 616 CURVE SMOOTH",
"241 616 OFFCURVE",
"263 590 OFFCURVE",
"263 539 CURVE SMOOTH",
"263 161 LINE SMOOTH",
"263 110 OFFCURVE",
"241 84 OFFCURVE",
"198 84 CURVE SMOOTH",
"155 84 OFFCURVE",
"133 110 OFFCURVE",
"133 161 CURVE SMOOTH"
);
},
{
closed = 1;
nodes = (
"39 168 LINE SMOOTH",
"39 59 OFFCURVE",
"95 0 OFFCURVE",
"198 0 CURVE SMOOTH",
"301 0 OFFCURVE",
"357 59 OFFCURVE",
"357 168 CURVE SMOOTH",
"357 532 LINE SMOOTH",
"357 641 OFFCURVE",
"301 700 OFFCURVE",
"198 700 CURVE SMOOTH",
"95 700 OFFCURVE",
"39 641 OFFCURVE",
"39 532 CURVE SMOOTH"
);
},
{
closed = 1;
nodes = (
"149 745 LINE",
"197 805 LINE",
"246 745 LINE",
"319 745 LINE",
"243 840 LINE",
"152 840 LINE",
"76 745 LINE"
);
}
);
width = 396;
}
);
leftKerningGroup = o;
note = ocircumflex;
rightKerningGroup = o;
unicode = 00F4;
},
{
glyphname = otilde;
lastChange = "2017-06-10 14:08:23 +0000";
layers = (
{
layerId = "68C61D79-A6B0-463A-BFCB-C5A54C9143A5";
paths = (
{
closed = 1;
nodes = (
"133 539 LINE SMOOTH",
"133 590 OFFCURVE",
"155 616 OFFCURVE",
"198 616 CURVE SMOOTH",
"241 616 OFFCURVE",
"263 590 OFFCURVE",
"263 539 CURVE SMOOTH",
"263 161 LINE SMOOTH",
"263 110 OFFCURVE",
"241 84 OFFCURVE",
"198 84 CURVE SMOOTH",
"155 84 OFFCURVE",
"133 110 OFFCURVE",
"133 161 CURVE SMOOTH"
);
},
{
closed = 1;
nodes = (
"39 168 LINE SMOOTH",
"39 59 OFFCURVE",
"95 0 OFFCURVE",
"198 0 CURVE SMOOTH",
"301 0 OFFCURVE",
"357 59 OFFCURVE",
"357 168 CURVE SMOOTH",
"357 532 LINE SMOOTH",
"357 641 OFFCURVE",
"301 700 OFFCURVE",
"198 700 CURVE SMOOTH",
"95 700 OFFCURVE",
"39 641 OFFCURVE",
"39 532 CURVE SMOOTH"
);
},
{
closed = 1;
nodes = (
"205 805 OFFCURVE",
"187 830 OFFCURVE",
"148 830 CURVE SMOOTH",
"113 830 OFFCURVE",
"89 812 OFFCURVE",
"73 773 CURVE",
"113 745 LINE",
"124 763 OFFCURVE",
"137 770 OFFCURVE",
"159 770 CURVE SMOOTH",
"192 770 OFFCURVE",
"210 745 OFFCURVE",
"249 745 CURVE SMOOTH",
"284 745 OFFCURVE",
"308 763 OFFCURVE",
"324 802 CURVE",
"284 830 LINE",
"273 812 OFFCURVE",
"260 805 OFFCURVE",
"238 805 CURVE SMOOTH"
);
}
);
width = 396;
}
);
leftKerningGroup = o;
note = otilde;
rightKerningGroup = o;
unicode = 00F5;
},
{
glyphname = odieresis;
lastChange = "2017-06-10 14:08:23 +0000";
layers = (
{
layerId = "68C61D79-A6B0-463A-BFCB-C5A54C9143A5";
paths = (
{
closed = 1;
nodes = (
"133 539 LINE SMOOTH",
"133 590 OFFCURVE",
"155 616 OFFCURVE",
"198 616 CURVE SMOOTH",
"241 616 OFFCURVE",
"263 590 OFFCURVE",
"263 539 CURVE SMOOTH",
"263 161 LINE SMOOTH",
"263 110 OFFCURVE",
"241 84 OFFCURVE",
"198 84 CURVE SMOOTH",
"155 84 OFFCURVE",
"133 110 OFFCURVE",
"133 161 CURVE SMOOTH"
);
},
{
closed = 1;
nodes = (
"39 168 LINE SMOOTH",
"39 59 OFFCURVE",
"95 0 OFFCURVE",
"198 0 CURVE SMOOTH",
"301 0 OFFCURVE",
"357 59 OFFCURVE",
"357 168 CURVE SMOOTH",
"357 532 LINE SMOOTH",
"357 641 OFFCURVE",
"301 700 OFFCURVE",
"198 700 CURVE SMOOTH",
"95 700 OFFCURVE",
"39 641 OFFCURVE",
"39 532 CURVE SMOOTH"
);
},
{
closed = 1;
nodes = (
"82 825 LINE",
"82 745 LINE",
"162 745 LINE",
"162 825 LINE"
);
},
{
closed = 1;
nodes = (
"234 825 LINE",
"234 745 LINE",
"314 745 LINE",
"314 825 LINE"
);
}
);
width = 396;
}
);
leftKerningGroup = o;
note = odieresis;
rightKerningGroup = o;
unicode = 00F6;
},
{
glyphname = divide;
lastChange = "2017-06-10 14:08:23 +0000";
layers = (
{
layerId = "68C61D79-A6B0-463A-BFCB-C5A54C9143A5";
paths = (
{
closed = 1;
nodes = (
"153 242 LINE",
"153 152 LINE",
"243 152 LINE",
"243 242 LINE"
);
},
{
closed = 1;
nodes = (
"153 547 LINE",
"153 457 LINE",
"243 457 LINE",
"243 547 LINE"
);
},
{
closed = 1;
nodes = (
"33 381 LINE",
"33 319 LINE",
"363 319 LINE",
"363 381 LINE"
);
}
);
width = 396;
}
);
note = divide;
unicode = 00F7;
},
{
glyphname = oslash;
lastChange = "2017-06-10 14:08:23 +0000";
layers = (
{
layerId = "68C61D79-A6B0-463A-BFCB-C5A54C9143A5";
paths = (
{
closed = 1;
nodes = (
"39 168 LINE SMOOTH",
"39 117 OFFCURVE",
"51 76 OFFCURVE",
"75 47 CURVE",
"51 -19 LINE",
"73 -27 LINE",
"94 30 LINE",
"119 10 OFFCURVE",
"153 0 OFFCURVE",
"198 0 CURVE SMOOTH",
"301 0 OFFCURVE",
"357 59 OFFCURVE",
"357 168 CURVE SMOOTH",
"357 532 LINE SMOOTH",
"357 584 OFFCURVE",
"344 624 OFFCURVE",
"320 651 CURVE",
"345 719 LINE",
"323 727 LINE",
"302 669 LINE",
"276 689 OFFCURVE",
"241 700 OFFCURVE",
"198 700 CURVE SMOOTH",
"95 700 OFFCURVE",
"39 641 OFFCURVE",
"39 532 CURVE SMOOTH"
);
},
{
closed = 1;
nodes = (
"133 539 LINE SMOOTH",
"133 590 OFFCURVE",
"155 616 OFFCURVE",
"198 616 CURVE SMOOTH",
"234 616 OFFCURVE",
"257 596 OFFCURVE",
"261 559 CURVE",
"133 205 LINE"
);
},
{
closed = 1;
nodes = (
"161 84 OFFCURVE",
"140 103 OFFCURVE",
"134 141 CURVE",
"263 494 LINE",
"263 161 LINE SMOOTH",
"263 110 OFFCURVE",
"241 84 OFFCURVE",
"198 84 CURVE SMOOTH"
);
}
);
width = 396;
}
);
leftKerningGroup = o;
note = oslash;
rightKerningGroup = o;
unicode = 00F8;
},
{
glyphname = ugrave;
lastChange = "2017-06-10 14:08:23 +0000";
layers = (
{
layerId = "68C61D79-A6B0-463A-BFCB-C5A54C9143A5";
paths = (
{
closed = 1;
nodes = (
"43 692 LINE",
"43 167 LINE SMOOTH",
"43 57 OFFCURVE",
"97 -1 OFFCURVE",
"199 -1 CURVE SMOOTH",
"301 -1 OFFCURVE",
"355 57 OFFCURVE",
"355 167 CURVE SMOOTH",
"355 692 LINE",
"267 692 LINE",
"267 160 LINE SMOOTH",
"267 110 OFFCURVE",
"245 84 OFFCURVE",
"202 84 CURVE SMOOTH",
"159 84 OFFCURVE",
"137 110 OFFCURVE",
"137 160 CURVE SMOOTH",
"137 692 LINE"
);
},
{
closed = 1;
nodes = (
"97 840 LINE",
"185 745 LINE",
"246 745 LINE",
"188 840 LINE"
);
}
);
width = 398;
}
);
leftKerningGroup = u;
note = ugrave;
rightKerningGroup = u;
unicode = 00F9;
},
{
glyphname = uacute;
lastChange = "2017-06-10 14:08:23 +0000";
layers = (
{
layerId = "68C61D79-A6B0-463A-BFCB-C5A54C9143A5";
paths = (
{
closed = 1;
nodes = (
"43 692 LINE",
"43 167 LINE SMOOTH",
"43 57 OFFCURVE",
"97 -1 OFFCURVE",
"199 -1 CURVE SMOOTH",
"301 -1 OFFCURVE",
"355 57 OFFCURVE",
"355 167 CURVE SMOOTH",
"355 692 LINE",
"267 692 LINE",
"267 160 LINE SMOOTH",
"267 110 OFFCURVE",
"245 84 OFFCURVE",
"202 84 CURVE SMOOTH",
"159 84 OFFCURVE",
"137 110 OFFCURVE",
"137 160 CURVE SMOOTH",
"137 692 LINE"
);
},
{
closed = 1;
nodes = (
"214 840 LINE",
"156 745 LINE",
"212 745 LINE",
"300 840 LINE"
);
}
);
width = 398;
}
);
leftKerningGroup = u;
note = uacute;
rightKerningGroup = u;
unicode = 00FA;
},
{
glyphname = ucircumflex;
lastChange = "2017-06-10 14:08:23 +0000";
layers = (
{
layerId = "68C61D79-A6B0-463A-BFCB-C5A54C9143A5";
paths = (
{
closed = 1;
nodes = (
"43 692 LINE",
"43 167 LINE SMOOTH",
"43 57 OFFCURVE",
"97 -1 OFFCURVE",
"199 -1 CURVE SMOOTH",
"301 -1 OFFCURVE",
"355 57 OFFCURVE",
"355 167 CURVE SMOOTH",
"355 692 LINE",
"267 692 LINE",
"267 160 LINE SMOOTH",
"267 110 OFFCURVE",
"245 84 OFFCURVE",
"202 84 CURVE SMOOTH",
"159 84 OFFCURVE",
"137 110 OFFCURVE",
"137 160 CURVE SMOOTH",
"137 692 LINE"
);
},
{
closed = 1;
nodes = (
"152 745 LINE",
"200 805 LINE",
"249 745 LINE",
"322 745 LINE",
"246 840 LINE",
"155 840 LINE",
"79 745 LINE"
);
}
);
width = 398;
}
);
leftKerningGroup = u;
note = ucircumflex;
rightKerningGroup = u;
unicode = 00FB;
},
{
glyphname = udieresis;
lastChange = "2017-06-10 14:08:23 +0000";
layers = (
{
layerId = "68C61D79-A6B0-463A-BFCB-C5A54C9143A5";
paths = (
{
closed = 1;
nodes = (
"43 692 LINE",
"43 167 LINE SMOOTH",
"43 57 OFFCURVE",
"97 -1 OFFCURVE",
"199 -1 CURVE SMOOTH",
"301 -1 OFFCURVE",
"355 57 OFFCURVE",
"355 167 CURVE SMOOTH",
"355 692 LINE",
"267 692 LINE",
"267 160 LINE SMOOTH",
"267 110 OFFCURVE",
"245 84 OFFCURVE",
"202 84 CURVE SMOOTH",
"159 84 OFFCURVE",
"137 110 OFFCURVE",
"137 160 CURVE SMOOTH",
"137 692 LINE"
);
},
{
closed = 1;
nodes = (
"85 825 LINE",
"85 745 LINE",
"165 745 LINE",
"165 825 LINE"
);
},
{
closed = 1;
nodes = (
"237 825 LINE",
"237 745 LINE",
"317 745 LINE",
"317 825 LINE"
);
}
);
width = 398;
}
);
leftKerningGroup = u;
note = udieresis;
rightKerningGroup = u;
unicode = 00FC;
},
{
glyphname = yacute;
lastChange = "2017-06-10 14:08:23 +0000";
layers = (
{
layerId = "68C61D79-A6B0-463A-BFCB-C5A54C9143A5";
paths = (
{
closed = 1;
nodes = (
"151 8 LINE",
"245 8 LINE",
"245 233 LINE",
"381 692 LINE",
"293 692 LINE",
"203 350 LINE",
"113 692 LINE",
"15 692 LINE",
"151 233 LINE"
);
},
{
closed = 1;
nodes = (
"216 840 LINE",
"158 745 LINE",
"214 745 LINE",
"302 840 LINE"
);
}
);
width = 396;
}
);
leftKerningGroup = y;
note = yacute;
rightKerningGroup = y;
unicode = 00FD;
},
{
glyphname = thorn;
lastChange = "2017-06-10 14:08:23 +0000";
layers = (
{
layerId = "68C61D79-A6B0-463A-BFCB-C5A54C9143A5";
paths = (
{
closed = 1;
nodes = (
"48 8 LINE",
"142 8 LINE",
"142 191 LINE",
"202 191 LINE SMOOTH",
"306 191 OFFCURVE",
"358 246 OFFCURVE",
"358 356 CURVE SMOOTH",
"358 447 LINE SMOOTH",
"358 557 OFFCURVE",
"306 612 OFFCURVE",
"202 612 CURVE SMOOTH",
"142 612 LINE",
"142 692 LINE",
"48 692 LINE"
);
},
{
closed = 1;
nodes = (
"202 528 LINE SMOOTH",
"245 528 OFFCURVE",
"264 505 OFFCURVE",
"264 454 CURVE SMOOTH",
"264 349 LINE SMOOTH",
"264 298 OFFCURVE",
"245 275 OFFCURVE",
"202 275 CURVE SMOOTH",
"142 275 LINE",
"142 528 LINE"
);
}
);
width = 377;
}
);
note = thorn;
unicode = 00FE;
},
{
glyphname = ydieresis;
lastChange = "2017-06-10 14:08:23 +0000";
layers = (
{
layerId = "68C61D79-A6B0-463A-BFCB-C5A54C9143A5";
paths = (
{
closed = 1;
nodes = (
"151 8 LINE",
"245 8 LINE",
"245 233 LINE",
"381 692 LINE",
"293 692 LINE",
"203 350 LINE",
"113 692 LINE",
"15 692 LINE",
"151 233 LINE"
);
},
{
closed = 1;
nodes = (
"86 825 LINE",
"86 745 LINE",
"166 745 LINE",
"166 825 LINE"
);
},
{
closed = 1;
nodes = (
"238 825 LINE",
"238 745 LINE",
"318 745 LINE",
"318 825 LINE"
);
}
);
width = 396;
}
);
leftKerningGroup = y;
note = ydieresis;
rightKerningGroup = y;
unicode = 00FF;
},
{
glyphname = Amacron;
lastChange = "2017-06-10 14:08:23 +0000";
layers = (
{
layerId = "68C61D79-A6B0-463A-BFCB-C5A54C9143A5";
paths = (
{
closed = 1;
nodes = (
"277 692 LINE",
"130 692 LINE",
"20 8 LINE",
"105 8 LINE",
"124 135 LINE",
"273 135 LINE",
"292 8 LINE",
"387 8 LINE"
);
},
{
closed = 1;
nodes = (
"198 630 LINE",
"260 214 LINE",
"136 214 LINE"
);
},
{
closed = 1;
nodes = (
"96 811 LINE",
"96 749 LINE",
"310 749 LINE",
"310 811 LINE"
);
}
);
width = 407;
}
);
leftKerningGroup = A;
note = Amacron;
unicode = 0100;
},
{
glyphname = amacron;
lastChange = "2017-06-10 14:08:23 +0000";
layers = (
{
layerId = "68C61D79-A6B0-463A-BFCB-C5A54C9143A5";
paths = (
{
closed = 1;
nodes = (
"277 692 LINE",
"130 692 LINE",
"20 8 LINE",
"105 8 LINE",
"124 135 LINE",
"273 135 LINE",
"292 8 LINE",
"387 8 LINE"
);
},
{
closed = 1;
nodes = (
"198 630 LINE",
"260 214 LINE",
"136 214 LINE"
);
},
{
closed = 1;
nodes = (
"96 811 LINE",
"96 749 LINE",
"310 749 LINE",
"310 811 LINE"
);
}
);
width = 407;
}
);
leftKerningGroup = a;
note = amacron;
rightKerningGroup = a;
unicode = 0101;
},
{
glyphname = Abreve;
lastChange = "2017-06-10 14:08:23 +0000";
layers = (
{
layerId = "68C61D79-A6B0-463A-BFCB-C5A54C9143A5";
paths = (
{
closed = 1;
nodes = (
"277 692 LINE",
"130 692 LINE",
"20 8 LINE",
"105 8 LINE",
"124 135 LINE",
"273 135 LINE",
"292 8 LINE",
"387 8 LINE"
);
},
{
closed = 1;
nodes = (
"198 630 LINE",
"260 214 LINE",
"136 214 LINE"
);
},
{
closed = 1;
nodes = (
"253 807 OFFCURVE",
"236 793 OFFCURVE",
"202 793 CURVE SMOOTH",
"169 793 OFFCURVE",
"153 807 OFFCURVE",
"149 840 CURVE",
"99 840 LINE",
"103 775 OFFCURVE",
"138 741 OFFCURVE",
"202 741 CURVE SMOOTH",
"267 741 OFFCURVE",
"304 776 OFFCURVE",
"307 840 CURVE",
"257 840 LINE"
);
}
);
width = 407;
}
);
leftKerningGroup = A;
note = Abreve;
unicode = 0102;
},
{
glyphname = abreve;
lastChange = "2017-06-10 14:08:23 +0000";
layers = (
{
layerId = "68C61D79-A6B0-463A-BFCB-C5A54C9143A5";
paths = (
{
closed = 1;
nodes = (
"277 692 LINE",
"130 692 LINE",
"20 8 LINE",
"105 8 LINE",
"124 135 LINE",
"273 135 LINE",
"292 8 LINE",
"387 8 LINE"
);
},
{
closed = 1;
nodes = (
"198 630 LINE",
"260 214 LINE",
"136 214 LINE"
);
},
{
closed = 1;
nodes = (
"253 807 OFFCURVE",
"236 793 OFFCURVE",
"202 793 CURVE SMOOTH",
"169 793 OFFCURVE",
"153 807 OFFCURVE",
"149 840 CURVE",
"99 840 LINE",
"103 775 OFFCURVE",
"138 741 OFFCURVE",
"202 741 CURVE SMOOTH",
"267 741 OFFCURVE",
"304 776 OFFCURVE",
"307 840 CURVE",
"257 840 LINE"
);
}
);
width = 407;
}
);
leftKerningGroup = a;
note = abreve;
rightKerningGroup = a;
unicode = 0103;
},
{
glyphname = Aogonek;
lastChange = "2017-06-10 14:08:23 +0000";
layers = (
{
layerId = "68C61D79-A6B0-463A-BFCB-C5A54C9143A5";
paths = (
{
closed = 1;
nodes = (
"277 692 LINE",
"130 692 LINE",
"20 8 LINE",
"105 8 LINE",
"124 135 LINE",
"273 135 LINE",
"297 -16 LINE",
"265 -35 OFFCURVE",
"249 -59 OFFCURVE",
"249 -85 CURVE SMOOTH",
"249 -120 OFFCURVE",
"277 -139 OFFCURVE",
"328 -139 CURVE SMOOTH",
"355 -139 OFFCURVE",
"370 -137 OFFCURVE",
"388 -130 CURVE",
"388 -91 LINE",
"382 -93 OFFCURVE",
"374 -94 OFFCURVE",
"360 -94 CURVE SMOOTH",
"335 -94 OFFCURVE",
"317 -79 OFFCURVE",
"317 -58 CURVE SMOOTH",
"317 -34 OFFCURVE",
"330 -10 OFFCURVE",
"352 8 CURVE",
"387 8 LINE"
);
},
{
closed = 1;
nodes = (
"198 630 LINE",
"260 214 LINE",
"136 214 LINE"
);
}
);
width = 407;
}
);
leftKerningGroup = A;
note = Aogonek;
unicode = 0104;
},
{
glyphname = aogonek;
lastChange = "2017-06-10 14:08:23 +0000";
layers = (
{
layerId = "68C61D79-A6B0-463A-BFCB-C5A54C9143A5";
paths = (
{
closed = 1;
nodes = (
"277 692 LINE",
"130 692 LINE",
"20 8 LINE",
"105 8 LINE",
"124 135 LINE",
"273 135 LINE",
"297 -16 LINE",
"265 -35 OFFCURVE",
"249 -59 OFFCURVE",
"249 -85 CURVE SMOOTH",
"249 -120 OFFCURVE",
"277 -139 OFFCURVE",
"328 -139 CURVE SMOOTH",
"355 -139 OFFCURVE",
"370 -137 OFFCURVE",
"388 -130 CURVE",
"388 -91 LINE",
"382 -93 OFFCURVE",
"374 -94 OFFCURVE",
"360 -94 CURVE SMOOTH",
"335 -94 OFFCURVE",
"317 -79 OFFCURVE",
"317 -58 CURVE SMOOTH",
"317 -34 OFFCURVE",
"330 -10 OFFCURVE",
"352 8 CURVE",
"387 8 LINE"
);
},
{
closed = 1;
nodes = (
"198 630 LINE",
"260 214 LINE",
"136 214 LINE"
);
}
);
width = 407;
}
);
leftKerningGroup = a;
note = aogonek;
rightKerningGroup = a;
unicode = 0105;
},
{
glyphname = Cacute;
lastChange = "2017-06-10 14:08:23 +0000";
layers = (
{
layerId = "68C61D79-A6B0-463A-BFCB-C5A54C9143A5";
paths = (
{
closed = 1;
nodes = (
"263 253 LINE",
"263 161 LINE SMOOTH",
"263 111 OFFCURVE",
"241 85 OFFCURVE",
"198 85 CURVE SMOOTH",
"155 85 OFFCURVE",
"133 111 OFFCURVE",
"133 161 CURVE SMOOTH",
"133 539 LINE SMOOTH",
"133 590 OFFCURVE",
"155 616 OFFCURVE",
"198 616 CURVE SMOOTH",
"241 616 OFFCURVE",
"263 590 OFFCURVE",
"263 539 CURVE SMOOTH",
"263 472 LINE",
"351 472 LINE",
"351 532 LINE SMOOTH",
"351 642 OFFCURVE",
"297 700 OFFCURVE",
"195 700 CURVE SMOOTH",
"93 700 OFFCURVE",
"39 642 OFFCURVE",
"39 532 CURVE SMOOTH",
"39 168 LINE SMOOTH",
"39 58 OFFCURVE",
"93 0 OFFCURVE",
"195 0 CURVE SMOOTH",
"297 0 OFFCURVE",
"351 58 OFFCURVE",
"351 168 CURVE SMOOTH",
"351 253 LINE"
);
},
{
closed = 1;
nodes = (
"209 840 LINE",
"151 745 LINE",
"207 745 LINE",
"295 840 LINE"
);
}
);
width = 386;
}
);
leftKerningGroup = C;
note = Cacute;
rightKerningGroup = C;
unicode = 0106;
},
{
glyphname = cacute;
lastChange = "2017-06-10 14:08:23 +0000";
layers = (
{
layerId = "68C61D79-A6B0-463A-BFCB-C5A54C9143A5";
paths = (
{
closed = 1;
nodes = (
"263 253 LINE",
"263 161 LINE SMOOTH",
"263 111 OFFCURVE",
"241 85 OFFCURVE",
"198 85 CURVE SMOOTH",
"155 85 OFFCURVE",
"133 111 OFFCURVE",
"133 161 CURVE SMOOTH",
"133 539 LINE SMOOTH",
"133 590 OFFCURVE",
"155 616 OFFCURVE",
"198 616 CURVE SMOOTH",
"241 616 OFFCURVE",
"263 590 OFFCURVE",
"263 539 CURVE SMOOTH",
"263 472 LINE",
"351 472 LINE",
"351 532 LINE SMOOTH",
"351 642 OFFCURVE",
"297 700 OFFCURVE",
"195 700 CURVE SMOOTH",
"93 700 OFFCURVE",
"39 642 OFFCURVE",
"39 532 CURVE SMOOTH",
"39 168 LINE SMOOTH",
"39 58 OFFCURVE",
"93 0 OFFCURVE",
"195 0 CURVE SMOOTH",
"297 0 OFFCURVE",
"351 58 OFFCURVE",
"351 168 CURVE SMOOTH",
"351 253 LINE"
);
},
{
closed = 1;
nodes = (
"209 840 LINE",
"151 745 LINE",
"207 745 LINE",
"295 840 LINE"
);
}
);
width = 386;
}
);
leftKerningGroup = c;
note = cacute;
rightKerningGroup = c;
unicode = 0107;
},
{
glyphname = Ccircumflex;
lastChange = "2017-06-10 14:08:23 +0000";
layers = (
{
layerId = "68C61D79-A6B0-463A-BFCB-C5A54C9143A5";
paths = (
{
closed = 1;
nodes = (
"263 253 LINE",
"263 161 LINE SMOOTH",
"263 111 OFFCURVE",
"241 85 OFFCURVE",
"198 85 CURVE SMOOTH",
"155 85 OFFCURVE",
"133 111 OFFCURVE",
"133 161 CURVE SMOOTH",
"133 539 LINE SMOOTH",
"133 590 OFFCURVE",
"155 616 OFFCURVE",
"198 616 CURVE SMOOTH",
"241 616 OFFCURVE",
"263 590 OFFCURVE",
"263 539 CURVE SMOOTH",
"263 472 LINE",
"351 472 LINE",
"351 532 LINE SMOOTH",
"351 642 OFFCURVE",
"297 700 OFFCURVE",
"195 700 CURVE SMOOTH",
"93 700 OFFCURVE",
"39 642 OFFCURVE",
"39 532 CURVE SMOOTH",
"39 168 LINE SMOOTH",
"39 58 OFFCURVE",
"93 0 OFFCURVE",
"195 0 CURVE SMOOTH",
"297 0 OFFCURVE",
"351 58 OFFCURVE",
"351 168 CURVE SMOOTH",
"351 253 LINE"
);
},
{
closed = 1;
nodes = (
"146 745 LINE",
"194 805 LINE",
"243 745 LINE",
"316 745 LINE",
"240 840 LINE",
"149 840 LINE",
"73 745 LINE"
);
}
);
width = 386;
}
);
leftKerningGroup = C;
note = Ccircumflex;
rightKerningGroup = C;
unicode = 0108;
},
{
glyphname = ccircumflex;
lastChange = "2017-06-10 14:08:23 +0000";
layers = (
{
layerId = "68C61D79-A6B0-463A-BFCB-C5A54C9143A5";
paths = (
{
closed = 1;
nodes = (
"263 253 LINE",
"263 161 LINE SMOOTH",
"263 111 OFFCURVE",
"241 85 OFFCURVE",
"198 85 CURVE SMOOTH",
"155 85 OFFCURVE",
"133 111 OFFCURVE",
"133 161 CURVE SMOOTH",
"133 539 LINE SMOOTH",
"133 590 OFFCURVE",
"155 616 OFFCURVE",
"198 616 CURVE SMOOTH",
"241 616 OFFCURVE",
"263 590 OFFCURVE",
"263 539 CURVE SMOOTH",
"263 472 LINE",
"351 472 LINE",
"351 532 LINE SMOOTH",
"351 642 OFFCURVE",
"297 700 OFFCURVE",
"195 700 CURVE SMOOTH",
"93 700 OFFCURVE",
"39 642 OFFCURVE",
"39 532 CURVE SMOOTH",
"39 168 LINE SMOOTH",
"39 58 OFFCURVE",
"93 0 OFFCURVE",
"195 0 CURVE SMOOTH",
"297 0 OFFCURVE",
"351 58 OFFCURVE",
"351 168 CURVE SMOOTH",
"351 253 LINE"
);
},
{
closed = 1;
nodes = (
"146 745 LINE",
"194 805 LINE",
"243 745 LINE",
"316 745 LINE",
"240 840 LINE",
"149 840 LINE",
"73 745 LINE"
);
}
);
width = 386;
}
);
leftKerningGroup = c;
note = ccircumflex;
rightKerningGroup = c;
unicode = 0109;
},
{
glyphname = Cdotaccent;
lastChange = "2017-06-10 14:08:23 +0000";
layers = (
{
layerId = "68C61D79-A6B0-463A-BFCB-C5A54C9143A5";
paths = (
{
closed = 1;
nodes = (
"263 253 LINE",
"263 161 LINE SMOOTH",
"263 111 OFFCURVE",
"241 85 OFFCURVE",
"198 85 CURVE SMOOTH",
"155 85 OFFCURVE",
"133 111 OFFCURVE",
"133 161 CURVE SMOOTH",
"133 539 LINE SMOOTH",
"133 590 OFFCURVE",
"155 616 OFFCURVE",
"198 616 CURVE SMOOTH",
"241 616 OFFCURVE",
"263 590 OFFCURVE",
"263 539 CURVE SMOOTH",
"263 472 LINE",
"351 472 LINE",
"351 532 LINE SMOOTH",
"351 642 OFFCURVE",
"297 700 OFFCURVE",
"195 700 CURVE SMOOTH",
"93 700 OFFCURVE",
"39 642 OFFCURVE",
"39 532 CURVE SMOOTH",
"39 168 LINE SMOOTH",
"39 58 OFFCURVE",
"93 0 OFFCURVE",
"195 0 CURVE SMOOTH",
"297 0 OFFCURVE",
"351 58 OFFCURVE",
"351 168 CURVE SMOOTH",
"351 253 LINE"
);
},
{
closed = 1;
nodes = (
"155 825 LINE",
"155 745 LINE",
"235 745 LINE",
"235 825 LINE"
);
}
);
width = 386;
}
);
leftKerningGroup = C;
note = Cdotaccent;
rightKerningGroup = C;
unicode = 010A;
},
{
glyphname = cdotaccent;
lastChange = "2017-06-10 14:08:23 +0000";
layers = (
{
layerId = "68C61D79-A6B0-463A-BFCB-C5A54C9143A5";
paths = (
{
closed = 1;
nodes = (
"263 253 LINE",
"263 161 LINE SMOOTH",
"263 111 OFFCURVE",
"241 85 OFFCURVE",
"198 85 CURVE SMOOTH",
"155 85 OFFCURVE",
"133 111 OFFCURVE",
"133 161 CURVE SMOOTH",
"133 539 LINE SMOOTH",
"133 590 OFFCURVE",
"155 616 OFFCURVE",
"198 616 CURVE SMOOTH",
"241 616 OFFCURVE",
"263 590 OFFCURVE",
"263 539 CURVE SMOOTH",
"263 472 LINE",
"351 472 LINE",
"351 532 LINE SMOOTH",
"351 642 OFFCURVE",
"297 700 OFFCURVE",
"195 700 CURVE SMOOTH",
"93 700 OFFCURVE",
"39 642 OFFCURVE",
"39 532 CURVE SMOOTH",
"39 168 LINE SMOOTH",
"39 58 OFFCURVE",
"93 0 OFFCURVE",
"195 0 CURVE SMOOTH",
"297 0 OFFCURVE",
"351 58 OFFCURVE",
"351 168 CURVE SMOOTH",
"351 253 LINE"
);
},
{
closed = 1;
nodes = (
"155 825 LINE",
"155 745 LINE",
"235 745 LINE",
"235 825 LINE"
);
}
);
width = 386;
}
);
leftKerningGroup = c;
note = cdotaccent;
rightKerningGroup = c;
unicode = 010B;
},
{
glyphname = Ccaron;
lastChange = "2017-06-10 14:08:23 +0000";
layers = (
{
layerId = "68C61D79-A6B0-463A-BFCB-C5A54C9143A5";
paths = (
{
closed = 1;
nodes = (
"263 253 LINE",
"263 161 LINE SMOOTH",
"263 111 OFFCURVE",
"241 85 OFFCURVE",
"198 85 CURVE SMOOTH",
"155 85 OFFCURVE",
"133 111 OFFCURVE",
"133 161 CURVE SMOOTH",
"133 539 LINE SMOOTH",
"133 590 OFFCURVE",
"155 616 OFFCURVE",
"198 616 CURVE SMOOTH",
"241 616 OFFCURVE",
"263 590 OFFCURVE",
"263 539 CURVE SMOOTH",
"263 472 LINE",
"351 472 LINE",
"351 532 LINE SMOOTH",
"351 642 OFFCURVE",
"297 700 OFFCURVE",
"195 700 CURVE SMOOTH",
"93 700 OFFCURVE",
"39 642 OFFCURVE",
"39 532 CURVE SMOOTH",
"39 168 LINE SMOOTH",
"39 58 OFFCURVE",
"93 0 OFFCURVE",
"195 0 CURVE SMOOTH",
"297 0 OFFCURVE",
"351 58 OFFCURVE",
"351 168 CURVE SMOOTH",
"351 253 LINE"
);
},
{
closed = 1;
nodes = (
"73 840 LINE",
"149 745 LINE",
"240 745 LINE",
"316 840 LINE",
"243 840 LINE",
"194 779 LINE",
"146 840 LINE"
);
}
);
width = 386;
}
);
leftKerningGroup = C;
note = Ccaron;
rightKerningGroup = C;
unicode = 010C;
},
{
glyphname = ccaron;
lastChange = "2017-06-10 14:08:23 +0000";
layers = (
{
layerId = "68C61D79-A6B0-463A-BFCB-C5A54C9143A5";
paths = (
{
closed = 1;
nodes = (
"263 253 LINE",
"263 161 LINE SMOOTH",
"263 111 OFFCURVE",
"241 85 OFFCURVE",
"198 85 CURVE SMOOTH",
"155 85 OFFCURVE",
"133 111 OFFCURVE",
"133 161 CURVE SMOOTH",
"133 539 LINE SMOOTH",
"133 590 OFFCURVE",
"155 616 OFFCURVE",
"198 616 CURVE SMOOTH",
"241 616 OFFCURVE",
"263 590 OFFCURVE",
"263 539 CURVE SMOOTH",
"263 472 LINE",
"351 472 LINE",
"351 532 LINE SMOOTH",
"351 642 OFFCURVE",
"297 700 OFFCURVE",
"195 700 CURVE SMOOTH",
"93 700 OFFCURVE",
"39 642 OFFCURVE",
"39 532 CURVE SMOOTH",
"39 168 LINE SMOOTH",
"39 58 OFFCURVE",
"93 0 OFFCURVE",
"195 0 CURVE SMOOTH",
"297 0 OFFCURVE",
"351 58 OFFCURVE",
"351 168 CURVE SMOOTH",
"351 253 LINE"
);
},
{
closed = 1;
nodes = (
"73 840 LINE",
"149 745 LINE",
"240 745 LINE",
"316 840 LINE",
"243 840 LINE",
"194 779 LINE",
"146 840 LINE"
);
}
);
width = 386;
}
);
leftKerningGroup = c;
note = ccaron;
rightKerningGroup = c;
unicode = 010D;
},
{
glyphname = Dcaron;
lastChange = "2017-06-10 14:08:23 +0000";
layers = (
{
layerId = "68C61D79-A6B0-463A-BFCB-C5A54C9143A5";
paths = (
{
closed = 1;
nodes = (
"48 8 LINE",
"214 8 LINE SMOOTH",
"318 8 OFFCURVE",
"370 63 OFFCURVE",
"370 173 CURVE SMOOTH",
"370 527 LINE SMOOTH",
"370 637 OFFCURVE",
"318 692 OFFCURVE",
"214 692 CURVE SMOOTH",
"48 692 LINE"
);
},
{
closed = 1;
nodes = (
"212 608 LINE SMOOTH",
"255 608 OFFCURVE",
"276 583 OFFCURVE",
"276 532 CURVE SMOOTH",
"276 168 LINE SMOOTH",
"276 117 OFFCURVE",
"255 92 OFFCURVE",
"212 92 CURVE SMOOTH",
"142 92 LINE",
"142 608 LINE"
);
},
{
closed = 1;
nodes = (
"73 840 LINE",
"149 745 LINE",
"240 745 LINE",
"316 840 LINE",
"243 840 LINE",
"194 779 LINE",
"146 840 LINE"
);
}
);
width = 408;
}
);
note = Dcaron;
rightKerningGroup = D;
unicode = 010E;
},
{
glyphname = dcaron;
lastChange = "2017-06-10 14:08:23 +0000";
layers = (
{
layerId = "68C61D79-A6B0-463A-BFCB-C5A54C9143A5";
paths = (
{
closed = 1;
nodes = (
"48 8 LINE",
"214 8 LINE SMOOTH",
"318 8 OFFCURVE",
"370 63 OFFCURVE",
"370 173 CURVE SMOOTH",
"370 527 LINE SMOOTH",
"370 637 OFFCURVE",
"318 692 OFFCURVE",
"214 692 CURVE SMOOTH",
"48 692 LINE"
);
},
{
closed = 1;
nodes = (
"212 608 LINE SMOOTH",
"255 608 OFFCURVE",
"276 583 OFFCURVE",
"276 532 CURVE SMOOTH",
"276 168 LINE SMOOTH",
"276 117 OFFCURVE",
"255 92 OFFCURVE",
"212 92 CURVE SMOOTH",
"142 92 LINE",
"142 608 LINE"
);
},
{
closed = 1;
nodes = (
"73 840 LINE",
"149 745 LINE",
"240 745 LINE",
"316 840 LINE",
"243 840 LINE",
"194 779 LINE",
"146 840 LINE"
);
}
);
width = 408;
}
);
note = dcaron;
rightKerningGroup = d;
unicode = 010F;
},
{
glyphname = Dcroat;
lastChange = "2017-06-10 14:08:23 +0000";
layers = (
{
layerId = "68C61D79-A6B0-463A-BFCB-C5A54C9143A5";
paths = (
{
closed = 1;
nodes = (
"48 8 LINE",
"214 8 LINE SMOOTH",
"318 8 OFFCURVE",
"370 63 OFFCURVE",
"370 173 CURVE SMOOTH",
"370 527 LINE SMOOTH",
"370 637 OFFCURVE",
"318 692 OFFCURVE",
"214 692 CURVE SMOOTH",
"48 692 LINE",
"48 387 LINE",
"12 387 LINE",
"12 313 LINE",
"48 313 LINE"
);
},
{
closed = 1;
nodes = (
"212 608 LINE SMOOTH",
"255 608 OFFCURVE",
"276 583 OFFCURVE",
"276 532 CURVE SMOOTH",
"276 168 LINE SMOOTH",
"276 117 OFFCURVE",
"255 92 OFFCURVE",
"212 92 CURVE SMOOTH",
"142 92 LINE",
"142 313 LINE",
"210 313 LINE",
"210 387 LINE",
"142 387 LINE",
"142 608 LINE"
);
}
);
width = 408;
}
);
note = Dcroat;
rightKerningGroup = D;
unicode = 0110;
},
{
glyphname = dcroat;
lastChange = "2017-06-10 14:08:23 +0000";
layers = (
{
layerId = "68C61D79-A6B0-463A-BFCB-C5A54C9143A5";
paths = (
{
closed = 1;
nodes = (
"48 8 LINE",
"214 8 LINE SMOOTH",
"318 8 OFFCURVE",
"370 63 OFFCURVE",
"370 173 CURVE SMOOTH",
"370 527 LINE SMOOTH",
"370 637 OFFCURVE",
"318 692 OFFCURVE",
"214 692 CURVE SMOOTH",
"48 692 LINE",
"48 387 LINE",
"12 387 LINE",
"12 313 LINE",
"48 313 LINE"
);
},
{
closed = 1;
nodes = (
"212 608 LINE SMOOTH",
"255 608 OFFCURVE",
"276 583 OFFCURVE",
"276 532 CURVE SMOOTH",
"276 168 LINE SMOOTH",
"276 117 OFFCURVE",
"255 92 OFFCURVE",
"212 92 CURVE SMOOTH",
"142 92 LINE",
"142 313 LINE",
"210 313 LINE",
"210 387 LINE",
"142 387 LINE",
"142 608 LINE"
);
}
);
width = 408;
}
);
note = dcroat;
rightKerningGroup = d;
unicode = 0111;
},
{
glyphname = Emacron;
lastChange = "2017-06-10 14:08:23 +0000";
layers = (
{
layerId = "68C61D79-A6B0-463A-BFCB-C5A54C9143A5";
paths = (
{
closed = 1;
nodes = (
"142 608 LINE",
"332 608 LINE",
"332 692 LINE",
"48 692 LINE",
"48 8 LINE",
"332 8 LINE",
"332 92 LINE",
"142 92 LINE",
"142 313 LINE",
"293 313 LINE",
"293 397 LINE",
"142 397 LINE"
);
},
{
closed = 1;
nodes = (
"81 811 LINE",
"81 749 LINE",
"295 749 LINE",
"295 811 LINE"
);
}
);
width = 368;
}
);
note = Emacron;
unicode = 0112;
},
{
glyphname = emacron;
lastChange = "2017-06-10 14:08:23 +0000";
layers = (
{
layerId = "68C61D79-A6B0-463A-BFCB-C5A54C9143A5";
paths = (
{
closed = 1;
nodes = (
"142 608 LINE",
"332 608 LINE",
"332 692 LINE",
"48 692 LINE",
"48 8 LINE",
"332 8 LINE",
"332 92 LINE",
"142 92 LINE",
"142 313 LINE",
"293 313 LINE",
"293 397 LINE",
"142 397 LINE"
);
},
{
closed = 1;
nodes = (
"81 811 LINE",
"81 749 LINE",
"295 749 LINE",
"295 811 LINE"
);
}
);
width = 368;
}
);
note = emacron;
unicode = 0113;
},
{
glyphname = Ebreve;
lastChange = "2017-06-10 14:08:23 +0000";
layers = (
{
layerId = "68C61D79-A6B0-463A-BFCB-C5A54C9143A5";
paths = (
{
closed = 1;
nodes = (
"142 608 LINE",
"332 608 LINE",
"332 692 LINE",
"48 692 LINE",
"48 8 LINE",
"332 8 LINE",
"332 92 LINE",
"142 92 LINE",
"142 313 LINE",
"293 313 LINE",
"293 397 LINE",
"142 397 LINE"
);
},
{
closed = 1;
nodes = (
"238 807 OFFCURVE",
"221 793 OFFCURVE",
"187 793 CURVE SMOOTH",
"154 793 OFFCURVE",
"138 807 OFFCURVE",
"134 840 CURVE",
"84 840 LINE",
"88 775 OFFCURVE",
"123 741 OFFCURVE",
"187 741 CURVE SMOOTH",
"252 741 OFFCURVE",
"289 776 OFFCURVE",
"292 840 CURVE",
"242 840 LINE"
);
}
);
width = 368;
}
);
note = Ebreve;
unicode = 0114;
},
{
glyphname = ebreve;
lastChange = "2017-06-10 14:08:23 +0000";
layers = (
{
layerId = "68C61D79-A6B0-463A-BFCB-C5A54C9143A5";
paths = (
{
closed = 1;
nodes = (
"142 608 LINE",
"332 608 LINE",
"332 692 LINE",
"48 692 LINE",
"48 8 LINE",
"332 8 LINE",
"332 92 LINE",
"142 92 LINE",
"142 313 LINE",
"293 313 LINE",
"293 397 LINE",
"142 397 LINE"
);
},
{
closed = 1;
nodes = (
"238 807 OFFCURVE",
"221 793 OFFCURVE",
"187 793 CURVE SMOOTH",
"154 793 OFFCURVE",
"138 807 OFFCURVE",
"134 840 CURVE",
"84 840 LINE",
"88 775 OFFCURVE",
"123 741 OFFCURVE",
"187 741 CURVE SMOOTH",
"252 741 OFFCURVE",
"289 776 OFFCURVE",
"292 840 CURVE",
"242 840 LINE"
);
}
);
width = 368;
}
);
note = ebreve;
unicode = 0115;
},
{
glyphname = Edotaccent;
lastChange = "2017-06-10 14:08:23 +0000";
layers = (
{
layerId = "68C61D79-A6B0-463A-BFCB-C5A54C9143A5";
paths = (
{
closed = 1;
nodes = (
"142 608 LINE",
"332 608 LINE",
"332 692 LINE",
"48 692 LINE",
"48 8 LINE",
"332 8 LINE",
"332 92 LINE",
"142 92 LINE",
"142 313 LINE",
"293 313 LINE",
"293 397 LINE",
"142 397 LINE"
);
},
{
closed = 1;
nodes = (
"148 825 LINE",
"148 745 LINE",
"228 745 LINE",
"228 825 LINE"
);
}
);
width = 368;
}
);
note = Edotaccent;
unicode = 0116;
},
{
glyphname = edotaccent;
lastChange = "2017-06-10 14:08:23 +0000";
layers = (
{
layerId = "68C61D79-A6B0-463A-BFCB-C5A54C9143A5";
paths = (
{
closed = 1;
nodes = (
"142 608 LINE",
"332 608 LINE",
"332 692 LINE",
"48 692 LINE",
"48 8 LINE",
"332 8 LINE",
"332 92 LINE",
"142 92 LINE",
"142 313 LINE",
"293 313 LINE",
"293 397 LINE",
"142 397 LINE"
);
},
{
closed = 1;
nodes = (
"148 825 LINE",
"148 745 LINE",
"228 745 LINE",
"228 825 LINE"
);
}
);
width = 368;
}
);
note = edotaccent;
unicode = 0117;
},
{
glyphname = Eogonek;
lastChange = "2017-06-10 14:08:23 +0000";
layers = (
{
layerId = "68C61D79-A6B0-463A-BFCB-C5A54C9143A5";
paths = (
{
closed = 1;
nodes = (
"142 608 LINE",
"332 608 LINE",
"332 692 LINE",
"48 692 LINE",
"48 8 LINE",
"292 8 LINE",
"227 -14 OFFCURVE",
"193 -47 OFFCURVE",
"193 -85 CURVE SMOOTH",
"193 -120 OFFCURVE",
"221 -139 OFFCURVE",
"272 -139 CURVE SMOOTH",
"299 -139 OFFCURVE",
"314 -137 OFFCURVE",
"332 -130 CURVE",
"332 -91 LINE",
"326 -93 OFFCURVE",
"318 -94 OFFCURVE",
"304 -94 CURVE SMOOTH",
"279 -94 OFFCURVE",
"261 -79 OFFCURVE",
"261 -58 CURVE SMOOTH",
"261 -34 OFFCURVE",
"274 -10 OFFCURVE",
"296 8 CURVE",
"332 8 LINE",
"332 92 LINE",
"142 92 LINE",
"142 313 LINE",
"293 313 LINE",
"293 397 LINE",
"142 397 LINE"
);
}
);
width = 368;
}
);
note = Eogonek;
unicode = 0118;
},
{
glyphname = eogonek;
lastChange = "2017-06-10 14:08:23 +0000";
layers = (
{
layerId = "68C61D79-A6B0-463A-BFCB-C5A54C9143A5";
paths = (
{
closed = 1;
nodes = (
"142 608 LINE",
"332 608 LINE",
"332 692 LINE",
"48 692 LINE",
"48 8 LINE",
"292 8 LINE",
"227 -14 OFFCURVE",
"193 -47 OFFCURVE",
"193 -85 CURVE SMOOTH",
"193 -120 OFFCURVE",
"221 -139 OFFCURVE",
"272 -139 CURVE SMOOTH",
"299 -139 OFFCURVE",
"314 -137 OFFCURVE",
"332 -130 CURVE",
"332 -91 LINE",
"326 -93 OFFCURVE",
"318 -94 OFFCURVE",
"304 -94 CURVE SMOOTH",
"279 -94 OFFCURVE",
"261 -79 OFFCURVE",
"261 -58 CURVE SMOOTH",
"261 -34 OFFCURVE",
"274 -10 OFFCURVE",
"296 8 CURVE",
"332 8 LINE",
"332 92 LINE",
"142 92 LINE",
"142 313 LINE",
"293 313 LINE",
"293 397 LINE",
"142 397 LINE"
);
}
);
width = 368;
}
);
note = eogonek;
unicode = 0119;
},
{
glyphname = Ecaron;
lastChange = "2017-06-10 14:08:23 +0000";
layers = (
{
layerId = "68C61D79-A6B0-463A-BFCB-C5A54C9143A5";
paths = (
{
closed = 1;
nodes = (
"142 608 LINE",
"332 608 LINE",
"332 692 LINE",
"48 692 LINE",
"48 8 LINE",
"332 8 LINE",
"332 92 LINE",
"142 92 LINE",
"142 313 LINE",
"293 313 LINE",
"293 397 LINE",
"142 397 LINE"
);
},
{
closed = 1;
nodes = (
"66 840 LINE",
"142 745 LINE",
"233 745 LINE",
"309 840 LINE",
"236 840 LINE",
"187 779 LINE",
"139 840 LINE"
);
}
);
width = 368;
}
);
note = Ecaron;
unicode = 011A;
},
{
glyphname = ecaron;
lastChange = "2017-06-10 14:08:23 +0000";
layers = (
{
layerId = "68C61D79-A6B0-463A-BFCB-C5A54C9143A5";
paths = (
{
closed = 1;
nodes = (
"142 608 LINE",
"332 608 LINE",
"332 692 LINE",
"48 692 LINE",
"48 8 LINE",
"332 8 LINE",
"332 92 LINE",
"142 92 LINE",
"142 313 LINE",
"293 313 LINE",
"293 397 LINE",
"142 397 LINE"
);
},
{
closed = 1;
nodes = (
"66 840 LINE",
"142 745 LINE",
"233 745 LINE",
"309 840 LINE",
"236 840 LINE",
"187 779 LINE",
"139 840 LINE"
);
}
);
width = 368;
}
);
note = ecaron;
unicode = 011B;
},
{
glyphname = Gcircumflex;
lastChange = "2017-06-10 14:08:23 +0000";
layers = (
{
layerId = "68C61D79-A6B0-463A-BFCB-C5A54C9143A5";
paths = (
{
closed = 1;
nodes = (
"213 298 LINE",
"263 298 LINE",
"263 161 LINE SMOOTH",
"263 111 OFFCURVE",
"241 85 OFFCURVE",
"198 85 CURVE SMOOTH",
"155 85 OFFCURVE",
"133 111 OFFCURVE",
"133 161 CURVE SMOOTH",
"133 539 LINE SMOOTH",
"133 590 OFFCURVE",
"155 616 OFFCURVE",
"198 616 CURVE SMOOTH",
"241 616 OFFCURVE",
"263 590 OFFCURVE",
"263 539 CURVE SMOOTH",
"263 472 LINE",
"351 472 LINE",
"351 532 LINE SMOOTH",
"351 642 OFFCURVE",
"297 700 OFFCURVE",
"195 700 CURVE SMOOTH",
"93 700 OFFCURVE",
"39 642 OFFCURVE",
"39 532 CURVE SMOOTH",
"39 168 LINE SMOOTH",
"39 58 OFFCURVE",
"93 0 OFFCURVE",
"195 0 CURVE SMOOTH",
"297 0 OFFCURVE",
"351 58 OFFCURVE",
"351 168 CURVE SMOOTH",
"351 382 LINE",
"213 382 LINE"
);
},
{
closed = 1;
nodes = (
"146 745 LINE",
"194 805 LINE",
"243 745 LINE",
"316 745 LINE",
"240 840 LINE",
"149 840 LINE",
"73 745 LINE"
);
}
);
width = 390;
}
);
leftKerningGroup = G;
note = Gcircumflex;
rightKerningGroup = G;
unicode = 011C;
},
{
glyphname = gcircumflex;
lastChange = "2017-06-10 14:08:23 +0000";
layers = (
{
layerId = "68C61D79-A6B0-463A-BFCB-C5A54C9143A5";
paths = (
{
closed = 1;
nodes = (
"213 298 LINE",
"263 298 LINE",
"263 161 LINE SMOOTH",
"263 111 OFFCURVE",
"241 85 OFFCURVE",
"198 85 CURVE SMOOTH",
"155 85 OFFCURVE",
"133 111 OFFCURVE",
"133 161 CURVE SMOOTH",
"133 539 LINE SMOOTH",
"133 590 OFFCURVE",
"155 616 OFFCURVE",
"198 616 CURVE SMOOTH",
"241 616 OFFCURVE",
"263 590 OFFCURVE",
"263 539 CURVE SMOOTH",
"263 472 LINE",
"351 472 LINE",
"351 532 LINE SMOOTH",
"351 642 OFFCURVE",
"297 700 OFFCURVE",
"195 700 CURVE SMOOTH",
"93 700 OFFCURVE",
"39 642 OFFCURVE",
"39 532 CURVE SMOOTH",
"39 168 LINE SMOOTH",
"39 58 OFFCURVE",
"93 0 OFFCURVE",
"195 0 CURVE SMOOTH",
"297 0 OFFCURVE",
"351 58 OFFCURVE",
"351 168 CURVE SMOOTH",
"351 382 LINE",
"213 382 LINE"
);
},
{
closed = 1;
nodes = (
"146 745 LINE",
"194 805 LINE",
"243 745 LINE",
"316 745 LINE",
"240 840 LINE",
"149 840 LINE",
"73 745 LINE"
);
}
);
width = 390;
}
);
leftKerningGroup = g;
note = gcircumflex;
rightKerningGroup = g;
unicode = 011D;
},
{
glyphname = Gbreve;
lastChange = "2017-06-10 14:08:23 +0000";
layers = (
{
layerId = "68C61D79-A6B0-463A-BFCB-C5A54C9143A5";
paths = (
{
closed = 1;
nodes = (
"213 298 LINE",
"263 298 LINE",
"263 161 LINE SMOOTH",
"263 111 OFFCURVE",
"241 85 OFFCURVE",
"198 85 CURVE SMOOTH",
"155 85 OFFCURVE",
"133 111 OFFCURVE",
"133 161 CURVE SMOOTH",
"133 539 LINE SMOOTH",
"133 590 OFFCURVE",
"155 616 OFFCURVE",
"198 616 CURVE SMOOTH",
"241 616 OFFCURVE",
"263 590 OFFCURVE",
"263 539 CURVE SMOOTH",
"263 472 LINE",
"351 472 LINE",
"351 532 LINE SMOOTH",
"351 642 OFFCURVE",
"297 700 OFFCURVE",
"195 700 CURVE SMOOTH",
"93 700 OFFCURVE",
"39 642 OFFCURVE",
"39 532 CURVE SMOOTH",
"39 168 LINE SMOOTH",
"39 58 OFFCURVE",
"93 0 OFFCURVE",
"195 0 CURVE SMOOTH",
"297 0 OFFCURVE",
"351 58 OFFCURVE",
"351 168 CURVE SMOOTH",
"351 382 LINE",
"213 382 LINE"
);
},
{
closed = 1;
nodes = (
"244 807 OFFCURVE",
"227 793 OFFCURVE",
"193 793 CURVE SMOOTH",
"160 793 OFFCURVE",
"144 807 OFFCURVE",
"140 840 CURVE",
"90 840 LINE",
"94 775 OFFCURVE",
"129 741 OFFCURVE",
"193 741 CURVE SMOOTH",
"258 741 OFFCURVE",
"295 776 OFFCURVE",
"298 840 CURVE",
"248 840 LINE"
);
}
);
width = 390;
}
);
leftKerningGroup = G;
note = Gbreve;
rightKerningGroup = G;
unicode = 011E;
},
{
glyphname = gbreve;
lastChange = "2017-06-10 14:08:23 +0000";
layers = (
{
layerId = "68C61D79-A6B0-463A-BFCB-C5A54C9143A5";
paths = (
{
closed = 1;
nodes = (
"213 298 LINE",
"263 298 LINE",
"263 161 LINE SMOOTH",
"263 111 OFFCURVE",
"241 85 OFFCURVE",
"198 85 CURVE SMOOTH",
"155 85 OFFCURVE",
"133 111 OFFCURVE",
"133 161 CURVE SMOOTH",
"133 539 LINE SMOOTH",
"133 590 OFFCURVE",
"155 616 OFFCURVE",
"198 616 CURVE SMOOTH",
"241 616 OFFCURVE",
"263 590 OFFCURVE",
"263 539 CURVE SMOOTH",
"263 472 LINE",
"351 472 LINE",
"351 532 LINE SMOOTH",
"351 642 OFFCURVE",
"297 700 OFFCURVE",
"195 700 CURVE SMOOTH",
"93 700 OFFCURVE",
"39 642 OFFCURVE",
"39 532 CURVE SMOOTH",
"39 168 LINE SMOOTH",
"39 58 OFFCURVE",
"93 0 OFFCURVE",
"195 0 CURVE SMOOTH",
"297 0 OFFCURVE",
"351 58 OFFCURVE",
"351 168 CURVE SMOOTH",
"351 382 LINE",
"213 382 LINE"
);
},
{
closed = 1;
nodes = (
"244 807 OFFCURVE",
"227 793 OFFCURVE",
"193 793 CURVE SMOOTH",
"160 793 OFFCURVE",
"144 807 OFFCURVE",
"140 840 CURVE",
"90 840 LINE",
"94 775 OFFCURVE",
"129 741 OFFCURVE",
"193 741 CURVE SMOOTH",
"258 741 OFFCURVE",
"295 776 OFFCURVE",
"298 840 CURVE",
"248 840 LINE"
);
}
);
width = 390;
}
);
leftKerningGroup = g;
note = gbreve;
rightKerningGroup = g;
unicode = 011F;
},
{
glyphname = Gdotaccent;
lastChange = "2017-06-10 14:08:23 +0000";
layers = (
{
layerId = "68C61D79-A6B0-463A-BFCB-C5A54C9143A5";
paths = (
{
closed = 1;
nodes = (
"213 298 LINE",
"263 298 LINE",
"263 161 LINE SMOOTH",
"263 111 OFFCURVE",
"241 85 OFFCURVE",
"198 85 CURVE SMOOTH",
"155 85 OFFCURVE",
"133 111 OFFCURVE",
"133 161 CURVE SMOOTH",
"133 539 LINE SMOOTH",
"133 590 OFFCURVE",
"155 616 OFFCURVE",
"198 616 CURVE SMOOTH",
"241 616 OFFCURVE",
"263 590 OFFCURVE",
"263 539 CURVE SMOOTH",
"263 472 LINE",
"351 472 LINE",
"351 532 LINE SMOOTH",
"351 642 OFFCURVE",
"297 700 OFFCURVE",
"195 700 CURVE SMOOTH",
"93 700 OFFCURVE",
"39 642 OFFCURVE",
"39 532 CURVE SMOOTH",
"39 168 LINE SMOOTH",
"39 58 OFFCURVE",
"93 0 OFFCURVE",
"195 0 CURVE SMOOTH",
"297 0 OFFCURVE",
"351 58 OFFCURVE",
"351 168 CURVE SMOOTH",
"351 382 LINE",
"213 382 LINE"
);
},
{
closed = 1;
nodes = (
"154 825 LINE",
"154 745 LINE",
"234 745 LINE",
"234 825 LINE"
);
}
);
width = 390;
}
);
leftKerningGroup = G;
note = Gdotaccent;
rightKerningGroup = G;
unicode = 0120;
},
{
glyphname = gdotaccent;
lastChange = "2017-06-10 14:08:23 +0000";
layers = (
{
layerId = "68C61D79-A6B0-463A-BFCB-C5A54C9143A5";
paths = (
{
closed = 1;
nodes = (
"213 298 LINE",
"263 298 LINE",
"263 161 LINE SMOOTH",
"263 111 OFFCURVE",
"241 85 OFFCURVE",
"198 85 CURVE SMOOTH",
"155 85 OFFCURVE",
"133 111 OFFCURVE",
"133 161 CURVE SMOOTH",
"133 539 LINE SMOOTH",
"133 590 OFFCURVE",
"155 616 OFFCURVE",
"198 616 CURVE SMOOTH",
"241 616 OFFCURVE",
"263 590 OFFCURVE",
"263 539 CURVE SMOOTH",
"263 472 LINE",
"351 472 LINE",
"351 532 LINE SMOOTH",
"351 642 OFFCURVE",
"297 700 OFFCURVE",
"195 700 CURVE SMOOTH",
"93 700 OFFCURVE",
"39 642 OFFCURVE",
"39 532 CURVE SMOOTH",
"39 168 LINE SMOOTH",
"39 58 OFFCURVE",
"93 0 OFFCURVE",
"195 0 CURVE SMOOTH",
"297 0 OFFCURVE",
"351 58 OFFCURVE",
"351 168 CURVE SMOOTH",
"351 382 LINE",
"213 382 LINE"
);
},
{
closed = 1;
nodes = (
"154 825 LINE",
"154 745 LINE",
"234 745 LINE",
"234 825 LINE"
);
}
);
width = 390;
}
);
leftKerningGroup = g;
note = gdotaccent;
rightKerningGroup = g;
unicode = 0121;
},
{
glyphname = uni0122;
lastChange = "2017-06-10 14:08:23 +0000";
layers = (
{
layerId = "68C61D79-A6B0-463A-BFCB-C5A54C9143A5";
paths = (
{
closed = 1;
nodes = (
"213 298 LINE",
"263 298 LINE",
"263 161 LINE SMOOTH",
"263 111 OFFCURVE",
"241 85 OFFCURVE",
"198 85 CURVE SMOOTH",
"155 85 OFFCURVE",
"133 111 OFFCURVE",
"133 161 CURVE SMOOTH",
"133 539 LINE SMOOTH",
"133 590 OFFCURVE",
"155 616 OFFCURVE",
"198 616 CURVE SMOOTH",
"241 616 OFFCURVE",
"263 590 OFFCURVE",
"263 539 CURVE SMOOTH",
"263 472 LINE",
"351 472 LINE",
"351 532 LINE SMOOTH",
"351 642 OFFCURVE",
"297 700 OFFCURVE",
"195 700 CURVE SMOOTH",
"93 700 OFFCURVE",
"39 642 OFFCURVE",
"39 532 CURVE SMOOTH",
"39 168 LINE SMOOTH",
"39 58 OFFCURVE",
"93 0 OFFCURVE",
"195 0 CURVE SMOOTH",
"297 0 OFFCURVE",
"351 58 OFFCURVE",
"351 168 CURVE SMOOTH",
"351 382 LINE",
"213 382 LINE"
);
},
{
closed = 1;
nodes = (
"198 -117 LINE",
"172 -171 LINE",
"194 -171 LINE",
"233 -113 LINE",
"233 -41 LINE",
"157 -41 LINE",
"157 -117 LINE"
);
}
);
width = 390;
}
);
leftKerningGroup = G;
note = uni0122;
rightKerningGroup = G;
unicode = 0122;
},
{
glyphname = uni0123;
lastChange = "2017-06-10 14:08:23 +0000";
layers = (
{
layerId = "68C61D79-A6B0-463A-BFCB-C5A54C9143A5";
paths = (
{
closed = 1;
nodes = (
"213 298 LINE",
"263 298 LINE",
"263 161 LINE SMOOTH",
"263 111 OFFCURVE",
"241 85 OFFCURVE",
"198 85 CURVE SMOOTH",
"155 85 OFFCURVE",
"133 111 OFFCURVE",
"133 161 CURVE SMOOTH",
"133 539 LINE SMOOTH",
"133 590 OFFCURVE",
"155 616 OFFCURVE",
"198 616 CURVE SMOOTH",
"241 616 OFFCURVE",
"263 590 OFFCURVE",
"263 539 CURVE SMOOTH",
"263 472 LINE",
"351 472 LINE",
"351 532 LINE SMOOTH",
"351 642 OFFCURVE",
"297 700 OFFCURVE",
"195 700 CURVE SMOOTH",
"93 700 OFFCURVE",
"39 642 OFFCURVE",
"39 532 CURVE SMOOTH",
"39 168 LINE SMOOTH",
"39 58 OFFCURVE",
"93 0 OFFCURVE",
"195 0 CURVE SMOOTH",
"297 0 OFFCURVE",
"351 58 OFFCURVE",
"351 168 CURVE SMOOTH",
"351 382 LINE",
"213 382 LINE"
);
},
{
closed = 1;
nodes = (
"198 -117 LINE",
"172 -171 LINE",
"194 -171 LINE",
"233 -113 LINE",
"233 -41 LINE",
"157 -41 LINE",
"157 -117 LINE"
);
}
);
width = 390;
}
);
leftKerningGroup = g;
note = uni0123;
rightKerningGroup = g;
unicode = 0123;
},
{
glyphname = Hcircumflex;
lastChange = "2017-06-10 14:08:23 +0000";
layers = (
{
layerId = "68C61D79-A6B0-463A-BFCB-C5A54C9143A5";
paths = (
{
closed = 1;
nodes = (
"142 308 LINE",
"283 308 LINE",
"283 8 LINE",
"379 8 LINE",
"379 692 LINE",
"283 692 LINE",
"283 392 LINE",
"142 392 LINE",
"142 692 LINE",
"48 692 LINE",
"48 8 LINE",
"142 8 LINE"
);
},
{
closed = 1;
nodes = (
"165 745 LINE",
"213 805 LINE",
"262 745 LINE",
"335 745 LINE",
"259 840 LINE",
"168 840 LINE",
"92 745 LINE"
);
}
);
width = 427;
}
);
note = Hcircumflex;
unicode = 0124;
},
{
glyphname = hcircumflex;
lastChange = "2017-06-10 14:08:23 +0000";
layers = (
{
layerId = "68C61D79-A6B0-463A-BFCB-C5A54C9143A5";
paths = (
{
closed = 1;
nodes = (
"142 308 LINE",
"283 308 LINE",
"283 8 LINE",
"379 8 LINE",
"379 692 LINE",
"283 692 LINE",
"283 392 LINE",
"142 392 LINE",
"142 692 LINE",
"48 692 LINE",
"48 8 LINE",
"142 8 LINE"
);
},
{
closed = 1;
nodes = (
"165 745 LINE",
"213 805 LINE",
"262 745 LINE",
"335 745 LINE",
"259 840 LINE",
"168 840 LINE",
"92 745 LINE"
);
}
);
width = 427;
}
);
note = hcircumflex;
unicode = 0125;
},
{
glyphname = Hbar;
lastChange = "2017-06-10 14:08:23 +0000";
layers = (
{
layerId = "68C61D79-A6B0-463A-BFCB-C5A54C9143A5";
paths = (
{
closed = 1;
nodes = (
"147 308 LINE",
"288 308 LINE",
"288 8 LINE",
"384 8 LINE",
"384 510 LINE",
"419 510 LINE",
"419 576 LINE",
"384 576 LINE",
"384 692 LINE",
"288 692 LINE",
"288 576 LINE",
"147 576 LINE",
"147 692 LINE",
"53 692 LINE",
"53 576 LINE",
"18 576 LINE",
"18 510 LINE",
"53 510 LINE",
"53 8 LINE",
"147 8 LINE"
);
},
{
closed = 1;
nodes = (
"147 392 LINE",
"147 510 LINE",
"288 510 LINE",
"288 392 LINE"
);
}
);
width = 437;
}
);
note = Hbar;
unicode = 0126;
},
{
glyphname = hbar;
lastChange = "2017-06-10 14:08:23 +0000";
layers = (
{
layerId = "68C61D79-A6B0-463A-BFCB-C5A54C9143A5";
paths = (
{
closed = 1;
nodes = (
"147 308 LINE",
"288 308 LINE",
"288 8 LINE",
"384 8 LINE",
"384 510 LINE",
"419 510 LINE",
"419 576 LINE",
"384 576 LINE",
"384 692 LINE",
"288 692 LINE",
"288 576 LINE",
"147 576 LINE",
"147 692 LINE",
"53 692 LINE",
"53 576 LINE",
"18 576 LINE",
"18 510 LINE",
"53 510 LINE",
"53 8 LINE",
"147 8 LINE"
);
},
{
closed = 1;
nodes = (
"147 392 LINE",
"147 510 LINE",
"288 510 LINE",
"288 392 LINE"
);
}
);
width = 437;
}
);
note = hbar;
unicode = 0127;
},
{
glyphname = Itilde;
lastChange = "2017-06-10 14:08:23 +0000";
layers = (
{
layerId = "68C61D79-A6B0-463A-BFCB-C5A54C9143A5";
paths = (
{
closed = 1;
nodes = (
"48 8 LINE",
"142 8 LINE",
"142 692 LINE",
"48 692 LINE"
);
},
{
closed = 1;
nodes = (
"102 805 OFFCURVE",
"84 830 OFFCURVE",
"45 830 CURVE SMOOTH",
"10 830 OFFCURVE",
"-14 812 OFFCURVE",
"-30 773 CURVE",
"10 745 LINE",
"21 763 OFFCURVE",
"34 770 OFFCURVE",
"56 770 CURVE SMOOTH",
"89 770 OFFCURVE",
"107 745 OFFCURVE",
"146 745 CURVE SMOOTH",
"181 745 OFFCURVE",
"205 763 OFFCURVE",
"221 802 CURVE",
"181 830 LINE",
"170 812 OFFCURVE",
"157 805 OFFCURVE",
"135 805 CURVE SMOOTH"
);
}
);
width = 190;
}
);
note = Itilde;
unicode = 0128;
},
{
glyphname = itilde;
lastChange = "2017-06-10 14:08:23 +0000";
layers = (
{
layerId = "68C61D79-A6B0-463A-BFCB-C5A54C9143A5";
paths = (
{
closed = 1;
nodes = (
"48 8 LINE",
"142 8 LINE",
"142 692 LINE",
"48 692 LINE"
);
},
{
closed = 1;
nodes = (
"102 805 OFFCURVE",
"84 830 OFFCURVE",
"45 830 CURVE SMOOTH",
"10 830 OFFCURVE",
"-14 812 OFFCURVE",
"-30 773 CURVE",
"10 745 LINE",
"21 763 OFFCURVE",
"34 770 OFFCURVE",
"56 770 CURVE SMOOTH",
"89 770 OFFCURVE",
"107 745 OFFCURVE",
"146 745 CURVE SMOOTH",
"181 745 OFFCURVE",
"205 763 OFFCURVE",
"221 802 CURVE",
"181 830 LINE",
"170 812 OFFCURVE",
"157 805 OFFCURVE",
"135 805 CURVE SMOOTH"
);
}
);
width = 190;
}
);
note = itilde;
unicode = 0129;
},
{
glyphname = Imacron;
lastChange = "2017-06-10 14:08:23 +0000";
layers = (
{
layerId = "68C61D79-A6B0-463A-BFCB-C5A54C9143A5";
paths = (
{
closed = 1;
nodes = (
"48 8 LINE",
"142 8 LINE",
"142 692 LINE",
"48 692 LINE"
);
},
{
closed = 1;
nodes = (
"-12 811 LINE",
"-12 749 LINE",
"202 749 LINE",
"202 811 LINE"
);
}
);
width = 190;
}
);
note = Imacron;
unicode = 012A;
},
{
glyphname = imacron;
lastChange = "2017-06-10 14:08:23 +0000";
layers = (
{
layerId = "68C61D79-A6B0-463A-BFCB-C5A54C9143A5";
paths = (
{
closed = 1;
nodes = (
"48 8 LINE",
"142 8 LINE",
"142 692 LINE",
"48 692 LINE"
);
},
{
closed = 1;
nodes = (
"-12 811 LINE",
"-12 749 LINE",
"202 749 LINE",
"202 811 LINE"
);
}
);
width = 190;
}
);
note = imacron;
unicode = 012B;
},
{
glyphname = Ibreve;
lastChange = "2017-06-10 14:08:23 +0000";
layers = (
{
layerId = "68C61D79-A6B0-463A-BFCB-C5A54C9143A5";
paths = (
{
closed = 1;
nodes = (
"48 8 LINE",
"142 8 LINE",
"142 692 LINE",
"48 692 LINE"
);
},
{
closed = 1;
nodes = (
"145 807 OFFCURVE",
"128 793 OFFCURVE",
"94 793 CURVE SMOOTH",
"61 793 OFFCURVE",
"45 807 OFFCURVE",
"41 840 CURVE",
"-9 840 LINE",
"-5 775 OFFCURVE",
"30 741 OFFCURVE",
"94 741 CURVE SMOOTH",
"159 741 OFFCURVE",
"196 776 OFFCURVE",
"199 840 CURVE",
"149 840 LINE"
);
}
);
width = 190;
}
);
note = Ibreve;
unicode = 012C;
},
{
glyphname = ibreve;
lastChange = "2017-06-10 14:08:23 +0000";
layers = (
{
layerId = "68C61D79-A6B0-463A-BFCB-C5A54C9143A5";
paths = (
{
closed = 1;
nodes = (
"48 8 LINE",
"142 8 LINE",
"142 692 LINE",
"48 692 LINE"
);
},
{
closed = 1;
nodes = (
"145 807 OFFCURVE",
"128 793 OFFCURVE",
"94 793 CURVE SMOOTH",
"61 793 OFFCURVE",
"45 807 OFFCURVE",
"41 840 CURVE",
"-9 840 LINE",
"-5 775 OFFCURVE",
"30 741 OFFCURVE",
"94 741 CURVE SMOOTH",
"159 741 OFFCURVE",
"196 776 OFFCURVE",
"199 840 CURVE",
"149 840 LINE"
);
}
);
width = 190;
}
);
note = ibreve;
unicode = 012D;
},
{
glyphname = Iogonek;
lastChange = "2017-06-10 14:08:23 +0000";
layers = (
{
layerId = "68C61D79-A6B0-463A-BFCB-C5A54C9143A5";
paths = (
{
closed = 1;
nodes = (
"48 8 LINE",
"83 8 LINE",
"87 -7 LINE",
"46 -28 OFFCURVE",
"24 -55 OFFCURVE",
"24 -85 CURVE SMOOTH",
"24 -120 OFFCURVE",
"52 -139 OFFCURVE",
"103 -139 CURVE SMOOTH",
"130 -139 OFFCURVE",
"145 -137 OFFCURVE",
"163 -130 CURVE",
"163 -91 LINE",
"157 -93 OFFCURVE",
"149 -94 OFFCURVE",
"135 -94 CURVE SMOOTH",
"110 -94 OFFCURVE",
"92 -79 OFFCURVE",
"92 -58 CURVE SMOOTH",
"92 -34 OFFCURVE",
"105 -10 OFFCURVE",
"127 8 CURVE",
"142 8 LINE",
"142 692 LINE",
"48 692 LINE"
);
}
);
width = 190;
}
);
note = Iogonek;
unicode = 012E;
},
{
glyphname = iogonek;
lastChange = "2017-06-10 14:08:23 +0000";
layers = (
{
layerId = "68C61D79-A6B0-463A-BFCB-C5A54C9143A5";
paths = (
{
closed = 1;
nodes = (
"48 8 LINE",
"83 8 LINE",
"87 -7 LINE",
"46 -28 OFFCURVE",
"24 -55 OFFCURVE",
"24 -85 CURVE SMOOTH",
"24 -120 OFFCURVE",
"52 -139 OFFCURVE",
"103 -139 CURVE SMOOTH",
"130 -139 OFFCURVE",
"145 -137 OFFCURVE",
"163 -130 CURVE",
"163 -91 LINE",
"157 -93 OFFCURVE",
"149 -94 OFFCURVE",
"135 -94 CURVE SMOOTH",
"110 -94 OFFCURVE",
"92 -79 OFFCURVE",
"92 -58 CURVE SMOOTH",
"92 -34 OFFCURVE",
"105 -10 OFFCURVE",
"127 8 CURVE",
"142 8 LINE",
"142 692 LINE",
"48 692 LINE"
);
}
);
width = 190;
}
);
note = iogonek;
unicode = 012F;
},
{
glyphname = Idotaccent;
lastChange = "2017-06-10 14:08:23 +0000";
layers = (
{
layerId = "68C61D79-A6B0-463A-BFCB-C5A54C9143A5";
paths = (
{
closed = 1;
nodes = (
"48 8 LINE",
"142 8 LINE",
"142 692 LINE",
"48 692 LINE"
);
},
{
closed = 1;
nodes = (
"55 825 LINE",
"55 745 LINE",
"135 745 LINE",
"135 825 LINE"
);
}
);
width = 190;
}
);
note = Idotaccent;
unicode = 0130;
},
{
glyphname = dotlessi;
lastChange = "2017-06-10 14:08:23 +0000";
layers = (
{
layerId = "68C61D79-A6B0-463A-BFCB-C5A54C9143A5";
paths = (
{
closed = 1;
nodes = (
"48 8 LINE",
"142 8 LINE",
"142 692 LINE",
"48 692 LINE"
);
}
);
width = 190;
}
);
note = dotlessi;
unicode = 0131;
},
{
glyphname = IJ;
lastChange = "2017-06-10 14:08:23 +0000";
layers = (
{
layerId = "68C61D79-A6B0-463A-BFCB-C5A54C9143A5";
paths = (
{
closed = 1;
nodes = (
"48 8 LINE",
"142 8 LINE",
"142 692 LINE",
"48 692 LINE"
);
},
{
closed = 1;
nodes = (
"208 7 LINE",
"223 6 OFFCURVE",
"236 6 OFFCURVE",
"253 6 CURVE SMOOTH",
"355 6 OFFCURVE",
"403 62 OFFCURVE",
"403 174 CURVE SMOOTH",
"403 692 LINE",
"309 692 LINE",
"309 166 LINE SMOOTH",
"309 116 OFFCURVE",
"286 91 OFFCURVE",
"238 91 CURVE SMOOTH",
"229 91 OFFCURVE",
"218 91 OFFCURVE",
"208 91 CURVE"
);
}
);
width = 446;
}
);
leftKerningGroup = J;
note = IJ;
unicode = 0132;
},
{
glyphname = ij;
lastChange = "2017-06-10 14:08:23 +0000";
layers = (
{
layerId = "68C61D79-A6B0-463A-BFCB-C5A54C9143A5";
paths = (
{
closed = 1;
nodes = (
"48 8 LINE",
"142 8 LINE",
"142 692 LINE",
"48 692 LINE"
);
},
{
closed = 1;
nodes = (
"208 7 LINE",
"223 6 OFFCURVE",
"236 6 OFFCURVE",
"253 6 CURVE SMOOTH",
"355 6 OFFCURVE",
"403 62 OFFCURVE",
"403 174 CURVE SMOOTH",
"403 692 LINE",
"309 692 LINE",
"309 166 LINE SMOOTH",
"309 116 OFFCURVE",
"286 91 OFFCURVE",
"238 91 CURVE SMOOTH",
"229 91 OFFCURVE",
"218 91 OFFCURVE",
"208 91 CURVE"
);
}
);
width = 446;
}
);
leftKerningGroup = j;
note = ij;
unicode = 0133;
},
{
glyphname = Jcircumflex;
lastChange = "2017-06-10 14:08:23 +0000";
layers = (
{
layerId = "68C61D79-A6B0-463A-BFCB-C5A54C9143A5";
paths = (
{
closed = 1;
nodes = (
"18 7 LINE",
"33 6 OFFCURVE",
"46 6 OFFCURVE",
"63 6 CURVE SMOOTH",
"165 6 OFFCURVE",
"213 62 OFFCURVE",
"213 174 CURVE SMOOTH",
"213 692 LINE",
"119 692 LINE",
"119 166 LINE SMOOTH",
"119 116 OFFCURVE",
"96 91 OFFCURVE",
"48 91 CURVE SMOOTH",
"39 91 OFFCURVE",
"28 91 OFFCURVE",
"18 91 CURVE"
);
},
{
closed = 1;
nodes = (
"99 745 LINE",
"147 805 LINE",
"196 745 LINE",
"269 745 LINE",
"193 840 LINE",
"102 840 LINE",
"26 745 LINE"
);
}
);
width = 256;
}
);
leftKerningGroup = J;
note = Jcircumflex;
rightKerningGroup = J;
unicode = 0134;
},
{
glyphname = jcircumflex;
lastChange = "2017-06-10 14:08:23 +0000";
layers = (
{
layerId = "68C61D79-A6B0-463A-BFCB-C5A54C9143A5";
paths = (
{
closed = 1;
nodes = (
"18 7 LINE",
"33 6 OFFCURVE",
"46 6 OFFCURVE",
"63 6 CURVE SMOOTH",
"165 6 OFFCURVE",
"213 62 OFFCURVE",
"213 174 CURVE SMOOTH",
"213 692 LINE",
"119 692 LINE",
"119 166 LINE SMOOTH",
"119 116 OFFCURVE",
"96 91 OFFCURVE",
"48 91 CURVE SMOOTH",
"39 91 OFFCURVE",
"28 91 OFFCURVE",
"18 91 CURVE"
);
},
{
closed = 1;
nodes = (
"99 745 LINE",
"147 805 LINE",
"196 745 LINE",
"269 745 LINE",
"193 840 LINE",
"102 840 LINE",
"26 745 LINE"
);
}
);
width = 256;
}
);
leftKerningGroup = j;
note = jcircumflex;
rightKerningGroup = j;
unicode = 0135;
},
{
glyphname = uni0136;
lastChange = "2017-06-10 14:08:23 +0000";
layers = (
{
layerId = "68C61D79-A6B0-463A-BFCB-C5A54C9143A5";
paths = (
{
closed = 1;
nodes = (
"297 8 LINE",
"392 8 LINE",
"242 388 LINE",
"391 692 LINE",
"299 692 LINE",
"142 359 LINE",
"142 692 LINE",
"48 692 LINE",
"48 8 LINE",
"142 8 LINE",
"142 217 LINE",
"185 298 LINE"
);
},
{
closed = 1;
nodes = (
"218 -117 LINE",
"192 -171 LINE",
"214 -171 LINE",
"253 -113 LINE",
"253 -41 LINE",
"177 -41 LINE",
"177 -117 LINE"
);
}
);
width = 414;
}
);
note = uni0136;
rightKerningGroup = K;
unicode = 0136;
},
{
glyphname = uni0137;
lastChange = "2017-06-10 14:08:23 +0000";
layers = (
{
layerId = "68C61D79-A6B0-463A-BFCB-C5A54C9143A5";
paths = (
{
closed = 1;
nodes = (
"297 8 LINE",
"392 8 LINE",
"242 388 LINE",
"391 692 LINE",
"299 692 LINE",
"142 359 LINE",
"142 692 LINE",
"48 692 LINE",
"48 8 LINE",
"142 8 LINE",
"142 217 LINE",
"185 298 LINE"
);
},
{
closed = 1;
nodes = (
"218 -117 LINE",
"192 -171 LINE",
"214 -171 LINE",
"253 -113 LINE",
"253 -41 LINE",
"177 -41 LINE",
"177 -117 LINE"
);
}
);
width = 414;
}
);
note = uni0137;
rightKerningGroup = k;
unicode = 0137;
},
{
glyphname = kgreenlandic;
lastChange = "2017-06-10 14:08:23 +0000";
layers = (
{
layerId = "68C61D79-A6B0-463A-BFCB-C5A54C9143A5";
paths = (
{
closed = 1;
nodes = (
"297 8 LINE",
"392 8 LINE",
"242 388 LINE",
"391 692 LINE",
"299 692 LINE",
"142 359 LINE",
"142 692 LINE",
"48 692 LINE",
"48 8 LINE",
"142 8 LINE",
"142 217 LINE",
"185 298 LINE"
);
}
);
width = 414;
}
);
note = kgreenlandic;
rightKerningGroup = k;
unicode = 0138;
},
{
glyphname = Lacute;
lastChange = "2017-06-10 14:08:23 +0000";
layers = (
{
layerId = "68C61D79-A6B0-463A-BFCB-C5A54C9143A5";
paths = (
{
closed = 1;
nodes = (
"48 8 LINE",
"323 8 LINE",
"323 92 LINE",
"142 92 LINE",
"142 692 LINE",
"48 692 LINE"
);
},
{
closed = 1;
nodes = (
"144 840 LINE",
"86 745 LINE",
"142 745 LINE",
"230 840 LINE"
);
}
);
width = 339;
}
);
note = Lacute;
rightKerningGroup = L;
unicode = 0139;
},
{
glyphname = lacute;
lastChange = "2017-06-10 14:08:23 +0000";
layers = (
{
layerId = "68C61D79-A6B0-463A-BFCB-C5A54C9143A5";
paths = (
{
closed = 1;
nodes = (
"48 8 LINE",
"323 8 LINE",
"323 92 LINE",
"142 92 LINE",
"142 692 LINE",
"48 692 LINE"
);
},
{
closed = 1;
nodes = (
"144 840 LINE",
"86 745 LINE",
"142 745 LINE",
"230 840 LINE"
);
}
);
width = 339;
}
);
note = lacute;
rightKerningGroup = l;
unicode = 013A;
},
{
glyphname = uni013B;
lastChange = "2017-06-10 14:08:23 +0000";
layers = (
{
layerId = "68C61D79-A6B0-463A-BFCB-C5A54C9143A5";
paths = (
{
closed = 1;
nodes = (
"48 8 LINE",
"323 8 LINE",
"323 92 LINE",
"142 92 LINE",
"142 692 LINE",
"48 692 LINE"
);
},
{
closed = 1;
nodes = (
"189 -117 LINE",
"163 -171 LINE",
"185 -171 LINE",
"224 -113 LINE",
"224 -41 LINE",
"148 -41 LINE",
"148 -117 LINE"
);
}
);
width = 339;
}
);
note = uni013B;
rightKerningGroup = L;
unicode = 013B;
},
{
glyphname = uni013C;
lastChange = "2017-06-10 14:08:23 +0000";
layers = (
{
layerId = "68C61D79-A6B0-463A-BFCB-C5A54C9143A5";
paths = (
{
closed = 1;
nodes = (
"48 8 LINE",
"323 8 LINE",
"323 92 LINE",
"142 92 LINE",
"142 692 LINE",
"48 692 LINE"
);
},
{
closed = 1;
nodes = (
"189 -117 LINE",
"163 -171 LINE",
"185 -171 LINE",
"224 -113 LINE",
"224 -41 LINE",
"148 -41 LINE",
"148 -117 LINE"
);
}
);
width = 339;
}
);
note = uni013C;
rightKerningGroup = l;
unicode = 013C;
},
{
glyphname = Lcaron;
lastChange = "2017-06-10 14:08:23 +0000";
layers = (
{
layerId = "68C61D79-A6B0-463A-BFCB-C5A54C9143A5";
paths = (
{
closed = 1;
nodes = (
"48 8 LINE",
"323 8 LINE",
"323 92 LINE",
"142 92 LINE",
"142 692 LINE",
"48 692 LINE"
);
},
{
closed = 1;
nodes = (
"264 602 LINE",
"235 502 LINE",
"264 502 LINE",
"309 607 LINE",
"309 692 LINE",
"219 692 LINE",
"219 602 LINE"
);
}
);
width = 339;
}
);
note = Lcaron;
unicode = 013D;
},
{
glyphname = lcaron;
lastChange = "2017-06-10 14:08:23 +0000";
layers = (
{
layerId = "68C61D79-A6B0-463A-BFCB-C5A54C9143A5";
paths = (
{
closed = 1;
nodes = (
"48 8 LINE",
"323 8 LINE",
"323 92 LINE",
"142 92 LINE",
"142 692 LINE",
"48 692 LINE"
);
},
{
closed = 1;
nodes = (
"264 602 LINE",
"235 502 LINE",
"264 502 LINE",
"309 607 LINE",
"309 692 LINE",
"219 692 LINE",
"219 602 LINE"
);
}
);
width = 339;
}
);
note = lcaron;
unicode = 013E;
},
{
glyphname = Ldot;
lastChange = "2017-06-10 14:08:23 +0000";
layers = (
{
layerId = "68C61D79-A6B0-463A-BFCB-C5A54C9143A5";
paths = (
{
closed = 1;
nodes = (
"48 8 LINE",
"323 8 LINE",
"323 92 LINE",
"142 92 LINE",
"142 692 LINE",
"48 692 LINE"
);
},
{
closed = 1;
nodes = (
"218 395 LINE",
"218 305 LINE",
"308 305 LINE",
"308 395 LINE"
);
}
);
width = 339;
}
);
note = Ldot;
rightKerningGroup = L;
unicode = 013F;
},
{
glyphname = ldot;
lastChange = "2017-06-10 14:08:23 +0000";
layers = (
{
layerId = "68C61D79-A6B0-463A-BFCB-C5A54C9143A5";
paths = (
{
closed = 1;
nodes = (
"48 8 LINE",
"323 8 LINE",
"323 92 LINE",
"142 92 LINE",
"142 692 LINE",
"48 692 LINE"
);
},
{
closed = 1;
nodes = (
"218 395 LINE",
"218 305 LINE",
"308 305 LINE",
"308 395 LINE"
);
}
);
width = 339;
}
);
note = ldot;
rightKerningGroup = l;
unicode = 0140;
},
{
glyphname = Lslash;
lastChange = "2017-06-10 14:08:23 +0000";
layers = (
{
layerId = "68C61D79-A6B0-463A-BFCB-C5A54C9143A5";
paths = (
{
closed = 1;
nodes = (
"8 115 LINE",
"57 167 LINE",
"57 8 LINE",
"332 8 LINE",
"332 92 LINE",
"151 92 LINE",
"151 268 LINE",
"272 398 LINE",
"272 475 LINE",
"151 345 LINE",
"151 692 LINE",
"57 692 LINE",
"57 244 LINE",
"8 192 LINE"
);
}
);
width = 348;
}
);
note = Lslash;
rightKerningGroup = L;
unicode = 0141;
},
{
glyphname = lslash;
lastChange = "2017-06-10 14:08:23 +0000";
layers = (
{
layerId = "68C61D79-A6B0-463A-BFCB-C5A54C9143A5";
paths = (
{
closed = 1;
nodes = (
"8 115 LINE",
"57 167 LINE",
"57 8 LINE",
"332 8 LINE",
"332 92 LINE",
"151 92 LINE",
"151 268 LINE",
"272 398 LINE",
"272 475 LINE",
"151 345 LINE",
"151 692 LINE",
"57 692 LINE",
"57 244 LINE",
"8 192 LINE"
);
}
);
width = 348;
}
);
note = lslash;
rightKerningGroup = l;
unicode = 0142;
},
{
glyphname = Nacute;
lastChange = "2017-06-10 14:08:23 +0000";
layers = (
{
layerId = "68C61D79-A6B0-463A-BFCB-C5A54C9143A5";
paths = (
{
closed = 1;
nodes = (
"281 8 LINE",
"380 8 LINE",
"380 692 LINE",
"298 692 LINE",
"298 221 LINE",
"171 692 LINE",
"47 692 LINE",
"47 8 LINE",
"130 8 LINE",
"130 567 LINE"
);
},
{
closed = 1;
nodes = (
"227 840 LINE",
"169 745 LINE",
"225 745 LINE",
"313 840 LINE"
);
}
);
width = 427;
}
);
note = Nacute;
unicode = 0143;
},
{
glyphname = nacute;
lastChange = "2017-06-10 14:08:23 +0000";
layers = (
{
layerId = "68C61D79-A6B0-463A-BFCB-C5A54C9143A5";
paths = (
{
closed = 1;
nodes = (
"281 8 LINE",
"380 8 LINE",
"380 692 LINE",
"298 692 LINE",
"298 221 LINE",
"171 692 LINE",
"47 692 LINE",
"47 8 LINE",
"130 8 LINE",
"130 567 LINE"
);
},
{
closed = 1;
nodes = (
"227 840 LINE",
"169 745 LINE",
"225 745 LINE",
"313 840 LINE"
);
}
);
width = 427;
}
);
note = nacute;
unicode = 0144;
},
{
glyphname = uni0145;
lastChange = "2017-06-10 14:08:23 +0000";
layers = (
{
layerId = "68C61D79-A6B0-463A-BFCB-C5A54C9143A5";
paths = (
{
closed = 1;
nodes = (
"281 8 LINE",
"380 8 LINE",
"380 692 LINE",
"298 692 LINE",
"298 221 LINE",
"171 692 LINE",
"47 692 LINE",
"47 8 LINE",
"130 8 LINE",
"130 567 LINE"
);
},
{
closed = 1;
nodes = (
"216 -117 LINE",
"190 -171 LINE",
"212 -171 LINE",
"251 -113 LINE",
"251 -41 LINE",
"175 -41 LINE",
"175 -117 LINE"
);
}
);
width = 427;
}
);
note = uni0145;
unicode = 0145;
},
{
glyphname = uni0146;
lastChange = "2017-06-10 14:08:23 +0000";
layers = (
{
layerId = "68C61D79-A6B0-463A-BFCB-C5A54C9143A5";
paths = (
{
closed = 1;
nodes = (
"281 8 LINE",
"380 8 LINE",
"380 692 LINE",
"298 692 LINE",
"298 221 LINE",
"171 692 LINE",
"47 692 LINE",
"47 8 LINE",
"130 8 LINE",
"130 567 LINE"
);
},
{
closed = 1;
nodes = (
"216 -117 LINE",
"190 -171 LINE",
"212 -171 LINE",
"251 -113 LINE",
"251 -41 LINE",
"175 -41 LINE",
"175 -117 LINE"
);
}
);
width = 427;
}
);
note = uni0146;
unicode = 0146;
},
{
glyphname = Ncaron;
lastChange = "2017-06-10 14:08:23 +0000";
layers = (
{
layerId = "68C61D79-A6B0-463A-BFCB-C5A54C9143A5";
paths = (
{
closed = 1;
nodes = (
"281 8 LINE",
"380 8 LINE",
"380 692 LINE",
"298 692 LINE",
"298 221 LINE",
"171 692 LINE",
"47 692 LINE",
"47 8 LINE",
"130 8 LINE",
"130 567 LINE"
);
},
{
closed = 1;
nodes = (
"92 840 LINE",
"168 745 LINE",
"259 745 LINE",
"335 840 LINE",
"262 840 LINE",
"213 779 LINE",
"165 840 LINE"
);
}
);
width = 427;
}
);
note = Ncaron;
unicode = 0147;
},
{
glyphname = ncaron;
lastChange = "2017-06-10 14:08:23 +0000";
layers = (
{
layerId = "68C61D79-A6B0-463A-BFCB-C5A54C9143A5";
paths = (
{
closed = 1;
nodes = (
"281 8 LINE",
"380 8 LINE",
"380 692 LINE",
"298 692 LINE",
"298 221 LINE",
"171 692 LINE",
"47 692 LINE",
"47 8 LINE",
"130 8 LINE",
"130 567 LINE"
);
},
{
closed = 1;
nodes = (
"92 840 LINE",
"168 745 LINE",
"259 745 LINE",
"335 840 LINE",
"262 840 LINE",
"213 779 LINE",
"165 840 LINE"
);
}
);
width = 427;
}
);
note = ncaron;
unicode = 0148;
},
{
glyphname = napostrophe;
lastChange = "2017-06-10 14:08:23 +0000";
layers = (
{
layerId = "68C61D79-A6B0-463A-BFCB-C5A54C9143A5";
paths = (
{
closed = 1;
nodes = (
"397 8 LINE",
"496 8 LINE",
"496 692 LINE",
"414 692 LINE",
"414 221 LINE",
"287 692 LINE",
"163 692 LINE",
"163 8 LINE",
"246 8 LINE",
"246 567 LINE"
);
},
{
closed = 1;
nodes = (
"58 602 LINE",
"29 502 LINE",
"58 502 LINE",
"103 607 LINE",
"103 692 LINE",
"13 692 LINE",
"13 602 LINE"
);
}
);
width = 543;
}
);
note = napostrophe;
unicode = 0149;
},
{
glyphname = Omacron;
lastChange = "2017-06-10 14:08:23 +0000";
layers = (
{
layerId = "68C61D79-A6B0-463A-BFCB-C5A54C9143A5";
paths = (
{
closed = 1;
nodes = (
"133 539 LINE SMOOTH",
"133 590 OFFCURVE",
"155 616 OFFCURVE",
"198 616 CURVE SMOOTH",
"241 616 OFFCURVE",
"263 590 OFFCURVE",
"263 539 CURVE SMOOTH",
"263 161 LINE SMOOTH",
"263 110 OFFCURVE",
"241 84 OFFCURVE",
"198 84 CURVE SMOOTH",
"155 84 OFFCURVE",
"133 110 OFFCURVE",
"133 161 CURVE SMOOTH"
);
},
{
closed = 1;
nodes = (
"39 168 LINE SMOOTH",
"39 59 OFFCURVE",
"95 0 OFFCURVE",
"198 0 CURVE SMOOTH",
"301 0 OFFCURVE",
"357 59 OFFCURVE",
"357 168 CURVE SMOOTH",
"357 532 LINE SMOOTH",
"357 641 OFFCURVE",
"301 700 OFFCURVE",
"198 700 CURVE SMOOTH",
"95 700 OFFCURVE",
"39 641 OFFCURVE",
"39 532 CURVE SMOOTH"
);
},
{
closed = 1;
nodes = (
"91 811 LINE",
"91 749 LINE",
"305 749 LINE",
"305 811 LINE"
);
}
);
width = 396;
}
);
leftKerningGroup = O;
note = Omacron;
rightKerningGroup = O;
unicode = 014C;
},
{
glyphname = omacron;
lastChange = "2017-06-10 14:08:23 +0000";
layers = (
{
layerId = "68C61D79-A6B0-463A-BFCB-C5A54C9143A5";
paths = (
{
closed = 1;
nodes = (
"133 539 LINE SMOOTH",
"133 590 OFFCURVE",
"155 616 OFFCURVE",
"198 616 CURVE SMOOTH",
"241 616 OFFCURVE",
"263 590 OFFCURVE",
"263 539 CURVE SMOOTH",
"263 161 LINE SMOOTH",
"263 110 OFFCURVE",
"241 84 OFFCURVE",
"198 84 CURVE SMOOTH",
"155 84 OFFCURVE",
"133 110 OFFCURVE",
"133 161 CURVE SMOOTH"
);
},
{
closed = 1;
nodes = (
"39 168 LINE SMOOTH",
"39 59 OFFCURVE",
"95 0 OFFCURVE",
"198 0 CURVE SMOOTH",
"301 0 OFFCURVE",
"357 59 OFFCURVE",
"357 168 CURVE SMOOTH",
"357 532 LINE SMOOTH",
"357 641 OFFCURVE",
"301 700 OFFCURVE",
"198 700 CURVE SMOOTH",
"95 700 OFFCURVE",
"39 641 OFFCURVE",
"39 532 CURVE SMOOTH"
);
},
{
closed = 1;
nodes = (
"91 811 LINE",
"91 749 LINE",
"305 749 LINE",
"305 811 LINE"
);
}
);
width = 396;
}
);
leftKerningGroup = o;
note = omacron;
rightKerningGroup = o;
unicode = 014D;
},
{
glyphname = Obreve;
lastChange = "2017-06-10 14:08:23 +0000";
layers = (
{
layerId = "68C61D79-A6B0-463A-BFCB-C5A54C9143A5";
paths = (
{
closed = 1;
nodes = (
"133 539 LINE SMOOTH",
"133 590 OFFCURVE",
"155 616 OFFCURVE",
"198 616 CURVE SMOOTH",
"241 616 OFFCURVE",
"263 590 OFFCURVE",
"263 539 CURVE SMOOTH",
"263 161 LINE SMOOTH",
"263 110 OFFCURVE",
"241 84 OFFCURVE",
"198 84 CURVE SMOOTH",
"155 84 OFFCURVE",
"133 110 OFFCURVE",
"133 161 CURVE SMOOTH"
);
},
{
closed = 1;
nodes = (
"39 168 LINE SMOOTH",
"39 59 OFFCURVE",
"95 0 OFFCURVE",
"198 0 CURVE SMOOTH",
"301 0 OFFCURVE",
"357 59 OFFCURVE",
"357 168 CURVE SMOOTH",
"357 532 LINE SMOOTH",
"357 641 OFFCURVE",
"301 700 OFFCURVE",
"198 700 CURVE SMOOTH",
"95 700 OFFCURVE",
"39 641 OFFCURVE",
"39 532 CURVE SMOOTH"
);
},
{
closed = 1;
nodes = (
"248 807 OFFCURVE",
"231 793 OFFCURVE",
"197 793 CURVE SMOOTH",
"164 793 OFFCURVE",
"148 807 OFFCURVE",
"144 840 CURVE",
"94 840 LINE",
"98 775 OFFCURVE",
"133 741 OFFCURVE",
"197 741 CURVE SMOOTH",
"262 741 OFFCURVE",
"299 776 OFFCURVE",
"302 840 CURVE",
"252 840 LINE"
);
}
);
width = 396;
}
);
leftKerningGroup = O;
note = Obreve;
rightKerningGroup = O;
unicode = 014E;
},
{
glyphname = obreve;
lastChange = "2017-06-10 14:08:23 +0000";
layers = (
{
layerId = "68C61D79-A6B0-463A-BFCB-C5A54C9143A5";
paths = (
{
closed = 1;
nodes = (
"133 539 LINE SMOOTH",
"133 590 OFFCURVE",
"155 616 OFFCURVE",
"198 616 CURVE SMOOTH",
"241 616 OFFCURVE",
"263 590 OFFCURVE",
"263 539 CURVE SMOOTH",
"263 161 LINE SMOOTH",
"263 110 OFFCURVE",
"241 84 OFFCURVE",
"198 84 CURVE SMOOTH",
"155 84 OFFCURVE",
"133 110 OFFCURVE",
"133 161 CURVE SMOOTH"
);
},
{
closed = 1;
nodes = (
"39 168 LINE SMOOTH",
"39 59 OFFCURVE",
"95 0 OFFCURVE",
"198 0 CURVE SMOOTH",
"301 0 OFFCURVE",
"357 59 OFFCURVE",
"357 168 CURVE SMOOTH",
"357 532 LINE SMOOTH",
"357 641 OFFCURVE",
"301 700 OFFCURVE",
"198 700 CURVE SMOOTH",
"95 700 OFFCURVE",
"39 641 OFFCURVE",
"39 532 CURVE SMOOTH"
);
},
{
closed = 1;
nodes = (
"248 807 OFFCURVE",
"231 793 OFFCURVE",
"197 793 CURVE SMOOTH",
"164 793 OFFCURVE",
"148 807 OFFCURVE",
"144 840 CURVE",
"94 840 LINE",
"98 775 OFFCURVE",
"133 741 OFFCURVE",
"197 741 CURVE SMOOTH",
"262 741 OFFCURVE",
"299 776 OFFCURVE",
"302 840 CURVE",
"252 840 LINE"
);
}
);
width = 396;
}
);
leftKerningGroup = o;
note = obreve;
rightKerningGroup = o;
unicode = 014F;
},
{
glyphname = Ohungarumlaut;
lastChange = "2017-06-10 14:08:23 +0000";
layers = (
{
layerId = "68C61D79-A6B0-463A-BFCB-C5A54C9143A5";
paths = (
{
closed = 1;
nodes = (
"133 539 LINE SMOOTH",
"133 590 OFFCURVE",
"155 616 OFFCURVE",
"198 616 CURVE SMOOTH",
"241 616 OFFCURVE",
"263 590 OFFCURVE",
"263 539 CURVE SMOOTH",
"263 161 LINE SMOOTH",
"263 110 OFFCURVE",
"241 84 OFFCURVE",
"198 84 CURVE SMOOTH",
"155 84 OFFCURVE",
"133 110 OFFCURVE",
"133 161 CURVE SMOOTH"
);
},
{
closed = 1;
nodes = (
"39 168 LINE SMOOTH",
"39 59 OFFCURVE",
"95 0 OFFCURVE",
"198 0 CURVE SMOOTH",
"301 0 OFFCURVE",
"357 59 OFFCURVE",
"357 168 CURVE SMOOTH",
"357 532 LINE SMOOTH",
"357 641 OFFCURVE",
"301 700 OFFCURVE",
"198 700 CURVE SMOOTH",
"95 700 OFFCURVE",
"39 641 OFFCURVE",
"39 532 CURVE SMOOTH"
);
},
{
closed = 1;
nodes = (
"137 840 LINE",
"94 745 LINE",
"145 745 LINE",
"216 840 LINE"
);
},
{
closed = 1;
nodes = (
"267 840 LINE",
"225 745 LINE",
"275 745 LINE",
"347 840 LINE"
);
}
);
width = 396;
}
);
leftKerningGroup = O;
note = Ohungarumlaut;
rightKerningGroup = O;
unicode = 0150;
},
{
glyphname = ohungarumlaut;
lastChange = "2017-06-10 14:08:23 +0000";
layers = (
{
layerId = "68C61D79-A6B0-463A-BFCB-C5A54C9143A5";
paths = (
{
closed = 1;
nodes = (
"133 539 LINE SMOOTH",
"133 590 OFFCURVE",
"155 616 OFFCURVE",
"198 616 CURVE SMOOTH",
"241 616 OFFCURVE",
"263 590 OFFCURVE",
"263 539 CURVE SMOOTH",
"263 161 LINE SMOOTH",
"263 110 OFFCURVE",
"241 84 OFFCURVE",
"198 84 CURVE SMOOTH",
"155 84 OFFCURVE",
"133 110 OFFCURVE",
"133 161 CURVE SMOOTH"
);
},
{
closed = 1;
nodes = (
"39 168 LINE SMOOTH",
"39 59 OFFCURVE",
"95 0 OFFCURVE",
"198 0 CURVE SMOOTH",
"301 0 OFFCURVE",
"357 59 OFFCURVE",
"357 168 CURVE SMOOTH",
"357 532 LINE SMOOTH",
"357 641 OFFCURVE",
"301 700 OFFCURVE",
"198 700 CURVE SMOOTH",
"95 700 OFFCURVE",
"39 641 OFFCURVE",
"39 532 CURVE SMOOTH"
);
},
{
closed = 1;
nodes = (
"137 840 LINE",
"94 745 LINE",
"145 745 LINE",
"216 840 LINE"
);
},
{
closed = 1;
nodes = (
"267 840 LINE",
"225 745 LINE",
"275 745 LINE",
"347 840 LINE"
);
}
);
width = 396;
}
);
leftKerningGroup = o;
note = ohungarumlaut;
rightKerningGroup = o;
unicode = 0151;
},
{
glyphname = OE;
lastChange = "2017-06-10 14:08:23 +0000";
layers = (
{
layerId = "68C61D79-A6B0-463A-BFCB-C5A54C9143A5";
paths = (
{
closed = 1;
nodes = (
"360 608 LINE",
"550 608 LINE",
"550 692 LINE",
"194 692 LINE SMOOTH",
"90 692 OFFCURVE",
"38 637 OFFCURVE",
"38 527 CURVE SMOOTH",
"38 173 LINE SMOOTH",
"38 63 OFFCURVE",
"90 8 OFFCURVE",
"194 8 CURVE SMOOTH",
"550 8 LINE",
"550 92 LINE",
"360 92 LINE",
"360 313 LINE",
"511 313 LINE",
"511 397 LINE",
"360 397 LINE"
);
},
{
closed = 1;
nodes = (
"266 92 LINE",
"196 92 LINE SMOOTH",
"153 92 OFFCURVE",
"132 117 OFFCURVE",
"132 168 CURVE SMOOTH",
"132 532 LINE SMOOTH",
"132 583 OFFCURVE",
"153 608 OFFCURVE",
"196 608 CURVE SMOOTH",
"266 608 LINE"
);
}
);
width = 586;
}
);
note = OE;
unicode = 0152;
},
{
glyphname = oe;
lastChange = "2017-06-10 14:08:23 +0000";
layers = (
{
layerId = "68C61D79-A6B0-463A-BFCB-C5A54C9143A5";
paths = (
{
closed = 1;
nodes = (
"360 608 LINE",
"550 608 LINE",
"550 692 LINE",
"194 692 LINE SMOOTH",
"90 692 OFFCURVE",
"38 637 OFFCURVE",
"38 527 CURVE SMOOTH",
"38 173 LINE SMOOTH",
"38 63 OFFCURVE",
"90 8 OFFCURVE",
"194 8 CURVE SMOOTH",
"550 8 LINE",
"550 92 LINE",
"360 92 LINE",
"360 313 LINE",
"511 313 LINE",
"511 397 LINE",
"360 397 LINE"
);
},
{
closed = 1;
nodes = (
"266 92 LINE",
"196 92 LINE SMOOTH",
"153 92 OFFCURVE",
"132 117 OFFCURVE",
"132 168 CURVE SMOOTH",
"132 532 LINE SMOOTH",
"132 583 OFFCURVE",
"153 608 OFFCURVE",
"196 608 CURVE SMOOTH",
"266 608 LINE"
);
}
);
width = 586;
}
);
note = oe;
unicode = 0153;
},
{
glyphname = Racute;
lastChange = "2017-06-10 14:08:23 +0000";
layers = (
{
layerId = "68C61D79-A6B0-463A-BFCB-C5A54C9143A5";
paths = (
{
closed = 1;
nodes = (
"370 8 LINE",
"363 32 OFFCURVE",
"362 55 OFFCURVE",
"362 85 CURVE SMOOTH",
"362 193 LINE SMOOTH",
"362 282 OFFCURVE",
"334 327 OFFCURVE",
"273 341 CURVE",
"332 359 OFFCURVE",
"361 404 OFFCURVE",
"361 484 CURVE SMOOTH",
"361 539 LINE SMOOTH",
"361 645 OFFCURVE",
"313 692 OFFCURVE",
"206 692 CURVE SMOOTH",
"48 692 LINE",
"48 8 LINE",
"142 8 LINE",
"142 293 LINE",
"188 293 LINE SMOOTH",
"244 293 OFFCURVE",
"268 264 OFFCURVE",
"268 196 CURVE SMOOTH",
"268 86 LINE SMOOTH",
"268 36 OFFCURVE",
"271 23 OFFCURVE",
"276 8 CURVE"
);
},
{
closed = 1;
nodes = (
"203 608 LINE SMOOTH",
"247 608 OFFCURVE",
"267 582 OFFCURVE",
"267 528 CURVE SMOOTH",
"267 459 LINE SMOOTH",
"267 403 OFFCURVE",
"243 377 OFFCURVE",
"193 377 CURVE SMOOTH",
"142 377 LINE",
"142 608 LINE"
);
},
{
closed = 1;
nodes = (
"209 840 LINE",
"151 745 LINE",
"207 745 LINE",
"295 840 LINE"
);
}
);
width = 402;
}
);
note = Racute;
rightKerningGroup = R;
unicode = 0154;
},
{
glyphname = racute;
lastChange = "2017-06-10 14:08:23 +0000";
layers = (
{
layerId = "68C61D79-A6B0-463A-BFCB-C5A54C9143A5";
paths = (
{
closed = 1;
nodes = (
"370 8 LINE",
"363 32 OFFCURVE",
"362 55 OFFCURVE",
"362 85 CURVE SMOOTH",
"362 193 LINE SMOOTH",
"362 282 OFFCURVE",
"334 327 OFFCURVE",
"273 341 CURVE",
"332 359 OFFCURVE",
"361 404 OFFCURVE",
"361 484 CURVE SMOOTH",
"361 539 LINE SMOOTH",
"361 645 OFFCURVE",
"313 692 OFFCURVE",
"206 692 CURVE SMOOTH",
"48 692 LINE",
"48 8 LINE",
"142 8 LINE",
"142 293 LINE",
"188 293 LINE SMOOTH",
"244 293 OFFCURVE",
"268 264 OFFCURVE",
"268 196 CURVE SMOOTH",
"268 86 LINE SMOOTH",
"268 36 OFFCURVE",
"271 23 OFFCURVE",
"276 8 CURVE"
);
},
{
closed = 1;
nodes = (
"203 608 LINE SMOOTH",
"247 608 OFFCURVE",
"267 582 OFFCURVE",
"267 528 CURVE SMOOTH",
"267 459 LINE SMOOTH",
"267 403 OFFCURVE",
"243 377 OFFCURVE",
"193 377 CURVE SMOOTH",
"142 377 LINE",
"142 608 LINE"
);
},
{
closed = 1;
nodes = (
"209 840 LINE",
"151 745 LINE",
"207 745 LINE",
"295 840 LINE"
);
}
);
width = 402;
}
);
note = racute;
rightKerningGroup = r;
unicode = 0155;
},
{
glyphname = uni0156;
lastChange = "2017-06-10 14:08:23 +0000";
layers = (
{
layerId = "68C61D79-A6B0-463A-BFCB-C5A54C9143A5";
paths = (
{
closed = 1;
nodes = (
"370 8 LINE",
"363 32 OFFCURVE",
"362 55 OFFCURVE",
"362 85 CURVE SMOOTH",
"362 193 LINE SMOOTH",
"362 282 OFFCURVE",
"334 327 OFFCURVE",
"273 341 CURVE",
"332 359 OFFCURVE",
"361 404 OFFCURVE",
"361 484 CURVE SMOOTH",
"361 539 LINE SMOOTH",
"361 645 OFFCURVE",
"313 692 OFFCURVE",
"206 692 CURVE SMOOTH",
"48 692 LINE",
"48 8 LINE",
"142 8 LINE",
"142 293 LINE",
"188 293 LINE SMOOTH",
"244 293 OFFCURVE",
"268 264 OFFCURVE",
"268 196 CURVE SMOOTH",
"268 86 LINE SMOOTH",
"268 36 OFFCURVE",
"271 23 OFFCURVE",
"276 8 CURVE"
);
},
{
closed = 1;
nodes = (
"203 608 LINE SMOOTH",
"247 608 OFFCURVE",
"267 582 OFFCURVE",
"267 528 CURVE SMOOTH",
"267 459 LINE SMOOTH",
"267 403 OFFCURVE",
"243 377 OFFCURVE",
"193 377 CURVE SMOOTH",
"142 377 LINE",
"142 608 LINE"
);
},
{
closed = 1;
nodes = (
"206 -117 LINE",
"180 -171 LINE",
"202 -171 LINE",
"241 -113 LINE",
"241 -41 LINE",
"165 -41 LINE",
"165 -117 LINE"
);
}
);
width = 402;
}
);
note = uni0156;
rightKerningGroup = R;
unicode = 0156;
},
{
glyphname = uni0157;
lastChange = "2017-06-10 14:08:23 +0000";
layers = (
{
layerId = "68C61D79-A6B0-463A-BFCB-C5A54C9143A5";
paths = (
{
closed = 1;
nodes = (
"370 8 LINE",
"363 32 OFFCURVE",
"362 55 OFFCURVE",
"362 85 CURVE SMOOTH",
"362 193 LINE SMOOTH",
"362 282 OFFCURVE",
"334 327 OFFCURVE",
"273 341 CURVE",
"332 359 OFFCURVE",
"361 404 OFFCURVE",
"361 484 CURVE SMOOTH",
"361 539 LINE SMOOTH",
"361 645 OFFCURVE",
"313 692 OFFCURVE",
"206 692 CURVE SMOOTH",
"48 692 LINE",
"48 8 LINE",
"142 8 LINE",
"142 293 LINE",
"188 293 LINE SMOOTH",
"244 293 OFFCURVE",
"268 264 OFFCURVE",
"268 196 CURVE SMOOTH",
"268 86 LINE SMOOTH",
"268 36 OFFCURVE",
"271 23 OFFCURVE",
"276 8 CURVE"
);
},
{
closed = 1;
nodes = (
"203 608 LINE SMOOTH",
"247 608 OFFCURVE",
"267 582 OFFCURVE",
"267 528 CURVE SMOOTH",
"267 459 LINE SMOOTH",
"267 403 OFFCURVE",
"243 377 OFFCURVE",
"193 377 CURVE SMOOTH",
"142 377 LINE",
"142 608 LINE"
);
},
{
closed = 1;
nodes = (
"206 -117 LINE",
"180 -171 LINE",
"202 -171 LINE",
"241 -113 LINE",
"241 -41 LINE",
"165 -41 LINE",
"165 -117 LINE"
);
}
);
width = 402;
}
);
note = uni0157;
rightKerningGroup = r;
unicode = 0157;
},
{
glyphname = Rcaron;
lastChange = "2017-06-10 14:08:23 +0000";
layers = (
{
layerId = "68C61D79-A6B0-463A-BFCB-C5A54C9143A5";
paths = (
{
closed = 1;
nodes = (
"370 8 LINE",
"363 32 OFFCURVE",
"362 55 OFFCURVE",
"362 85 CURVE SMOOTH",
"362 193 LINE SMOOTH",
"362 282 OFFCURVE",
"334 327 OFFCURVE",
"273 341 CURVE",
"332 359 OFFCURVE",
"361 404 OFFCURVE",
"361 484 CURVE SMOOTH",
"361 539 LINE SMOOTH",
"361 645 OFFCURVE",
"313 692 OFFCURVE",
"206 692 CURVE SMOOTH",
"48 692 LINE",
"48 8 LINE",
"142 8 LINE",
"142 293 LINE",
"188 293 LINE SMOOTH",
"244 293 OFFCURVE",
"268 264 OFFCURVE",
"268 196 CURVE SMOOTH",
"268 86 LINE SMOOTH",
"268 36 OFFCURVE",
"271 23 OFFCURVE",
"276 8 CURVE"
);
},
{
closed = 1;
nodes = (
"203 608 LINE SMOOTH",
"247 608 OFFCURVE",
"267 582 OFFCURVE",
"267 528 CURVE SMOOTH",
"267 459 LINE SMOOTH",
"267 403 OFFCURVE",
"243 377 OFFCURVE",
"193 377 CURVE SMOOTH",
"142 377 LINE",
"142 608 LINE"
);
},
{
closed = 1;
nodes = (
"73 840 LINE",
"149 745 LINE",
"240 745 LINE",
"316 840 LINE",
"243 840 LINE",
"194 779 LINE",
"146 840 LINE"
);
}
);
width = 402;
}
);
note = Rcaron;
rightKerningGroup = R;
unicode = 0158;
},
{
glyphname = rcaron;
lastChange = "2017-06-10 14:08:23 +0000";
layers = (
{
layerId = "68C61D79-A6B0-463A-BFCB-C5A54C9143A5";
paths = (
{
closed = 1;
nodes = (
"370 8 LINE",
"363 32 OFFCURVE",
"362 55 OFFCURVE",
"362 85 CURVE SMOOTH",
"362 193 LINE SMOOTH",
"362 282 OFFCURVE",
"334 327 OFFCURVE",
"273 341 CURVE",
"332 359 OFFCURVE",
"361 404 OFFCURVE",
"361 484 CURVE SMOOTH",
"361 539 LINE SMOOTH",
"361 645 OFFCURVE",
"313 692 OFFCURVE",
"206 692 CURVE SMOOTH",
"48 692 LINE",
"48 8 LINE",
"142 8 LINE",
"142 293 LINE",
"188 293 LINE SMOOTH",
"244 293 OFFCURVE",
"268 264 OFFCURVE",
"268 196 CURVE SMOOTH",
"268 86 LINE SMOOTH",
"268 36 OFFCURVE",
"271 23 OFFCURVE",
"276 8 CURVE"
);
},
{
closed = 1;
nodes = (
"203 608 LINE SMOOTH",
"247 608 OFFCURVE",
"267 582 OFFCURVE",
"267 528 CURVE SMOOTH",
"267 459 LINE SMOOTH",
"267 403 OFFCURVE",
"243 377 OFFCURVE",
"193 377 CURVE SMOOTH",
"142 377 LINE",
"142 608 LINE"
);
},
{
closed = 1;
nodes = (
"73 840 LINE",
"149 745 LINE",
"240 745 LINE",
"316 840 LINE",
"243 840 LINE",
"194 779 LINE",
"146 840 LINE"
);
}
);
width = 402;
}
);
note = rcaron;
rightKerningGroup = r;
unicode = 0159;
},
{
glyphname = Sacute;
lastChange = "2017-06-10 14:08:23 +0000";
layers = (
{
layerId = "68C61D79-A6B0-463A-BFCB-C5A54C9143A5";
paths = (
{
closed = 1;
nodes = (
"34 338 OFFCURVE",
"249 312 OFFCURVE",
"249 161 CURVE SMOOTH",
"249 111 OFFCURVE",
"227 85 OFFCURVE",
"184 85 CURVE SMOOTH",
"141 85 OFFCURVE",
"119 111 OFFCURVE",
"119 161 CURVE SMOOTH",
"119 203 LINE",
"31 203 LINE",
"31 168 LINE SMOOTH",
"31 58 OFFCURVE",
"85 0 OFFCURVE",
"187 0 CURVE SMOOTH",
"289 0 OFFCURVE",
"343 58 OFFCURVE",
"343 168 CURVE SMOOTH",
"343 362 OFFCURVE",
"128 388 OFFCURVE",
"128 539 CURVE SMOOTH",
"128 590 OFFCURVE",
"149 616 OFFCURVE",
"191 616 CURVE SMOOTH",
"233 616 OFFCURVE",
"254 590 OFFCURVE",
"254 539 CURVE SMOOTH",
"254 518 LINE",
"342 518 LINE",
"342 532 LINE SMOOTH",
"342 642 OFFCURVE",
"289 700 OFFCURVE",
"188 700 CURVE SMOOTH",
"87 700 OFFCURVE",
"34 642 OFFCURVE",
"34 532 CURVE SMOOTH"
);
},
{
closed = 1;
nodes = (
"201 840 LINE",
"143 745 LINE",
"199 745 LINE",
"287 840 LINE"
);
}
);
width = 374;
}
);
leftKerningGroup = S;
note = Sacute;
rightKerningGroup = S;
unicode = 015A;
},
